<svg xmlns="http://www.w3.org/2000/svg" xmlns:xlink="http://www.w3.org/1999/xlink" viewBox="0 0 95.53 91.52"><defs><style>.a2c861cb-2736-478a-85c1-f57818043326{fill:none;}.b3355b27-a755-469e-b76f-c4f74355f26b{isolation:isolate;}.b748ef49-f22e-43c2-af46-60400a683fba{mix-blend-mode:multiply;}.bc48477d-53b8-4070-82b4-d017145a6125{clip-path:url(#b2eab4f5-de59-48d8-9757-49c6b0abac39);}.e78d2cc2-764a-47b7-9a8e-9388e23294d4{fill:#e8e7e7;}.a7c6d452-a481-4655-a4b3-34ea609bc864{fill:#e63850;}.e8cb6231-4418-46a7-9ebd-02b39d2f58d8{clip-path:url(#becf737e-b37d-4a81-aa72-36a1c141d799);}.f8496293-8c99-4566-87e7-ca3f75356105{fill:url(#a72ec1e1-e9c2-4ad1-9430-47f12faf9bdf);}.f969c476-a762-43d8-8db3-e038a7a506e8{clip-path:url(#b3466821-d7ee-440b-95c1-c5b5d5516024);}.a06acd8c-685c-48c0-9e1c-0cf2850405f4{fill:url(#aa34ceb0-a93b-4e35-b336-21595af63443);}.ad0dab62-88cc-4ba1-800c-54a201ca0eee{clip-path:url(#f7268437-dae9-4129-8bf2-18f21625c0bb);}.a0375378-3ac6-4ee7-bca3-2feb437332f6{fill:url(#be21253d-3f04-4d9e-86f9-d565c8e639de);}.aa2a4667-dd84-41c5-aea8-def11f3055a9{fill:#efe400;}.f5dcb1af-b5e8-4365-b390-972a830523fe{fill:#fdfdfd;}.b82db588-4f38-400d-9f55-70704e28b40e{fill:#b0b5cb;}.b4f0aed8-0a3c-4f92-bab4-842ca6fdbb6d{fill:#f8f9fd;}.a627dc92-c3b2-4c1f-a254-6d108b5cb896{fill:#595674;}.af9ccbea-0785-4c92-ae6d-d3d7c789de09{fill:#d8ddee;}</style><clipPath id="b2eab4f5-de59-48d8-9757-49c6b0abac39" transform="translate(-6.55 4.88)"><rect class="a2c861cb-2736-478a-85c1-f57818043326" x="21.74" y="54.76" width="55.22" height="31.88"/></clipPath><clipPath id="becf737e-b37d-4a81-aa72-36a1c141d799" transform="translate(-6.55 4.88)"><path class="a2c861cb-2736-478a-85c1-f57818043326" d="M62.23,7.09c-5.17,3-9.12,8.8-12.06,14.22a11,11,0,0,1,4.73,8.63C60,20.56,63.15,16,67,13.8c6.16-3.56,11.06-.4,11.2,5.41C78.87,39.61,54.65,68.69,55,68.26a3.38,3.38,0,0,1-.1.88,2.27,2.27,0,0,1-.45.92C64.49,58,74.2,41.28,77.06,31.27,81,17.41,79.84,10.6,72.7,6.15a7.78,7.78,0,0,0-4-1,13.2,13.2,0,0,0-6.49,2"/></clipPath><linearGradient id="a72ec1e1-e9c2-4ad1-9430-47f12faf9bdf" x1="-905.36" y1="2294.06" x2="-904.78" y2="2294.06" gradientTransform="matrix(130.87, 0, 0, -130.87, 118500.08, 300254.12)" gradientUnits="userSpaceOnUse"><stop offset="0" stop-color="#e5374d"/><stop offset="0.13" stop-color="#e5374d"/><stop offset="1" stop-color="#e94961"/></linearGradient><clipPath id="b3466821-d7ee-440b-95c1-c5b5d5516024" transform="translate(-6.55 4.88)"><path class="a2c861cb-2736-478a-85c1-f57818043326" d="M55,68.26h0M67,13.8C63.15,16,60,20.56,54.9,29.94c-5.13-3.48-8.29-4.41-12.11-2.19-6.16,3.55-11,12.35-11.13,18.3-.58,20.84,23,22.19,23.35,22.21.35-.43,23.85-28.95,23.15-49.05-.1-4.13-2.6-6.91-6.24-6.91a10,10,0,0,0-5,1.5"/></clipPath><linearGradient id="aa34ceb0-a93b-4e35-b336-21595af63443" x1="-904.72" y1="2291.47" x2="-904.14" y2="2291.47" gradientTransform="matrix(86.27, 0, 0, -86.27, 78065, 197715.84)" xlink:href="#a72ec1e1-e9c2-4ad1-9430-47f12faf9bdf"/><clipPath id="f7268437-dae9-4129-8bf2-18f21625c0bb" transform="translate(-6.55 4.88)"><path class="a2c861cb-2736-478a-85c1-f57818043326" d="M38.06,21.05C30,25.71,23.66,37.12,23.5,45.19c-.23,10.84,5,17,11.07,20.47a41.57,41.57,0,0,0,18.07,5.12,2.08,2.08,0,0,0,2.27-1.64,3.38,3.38,0,0,0,.1-.88c.36,0-23.94-1.06-23.35-22.21.11-5.95,5-14.75,11.13-18.3,3.82-2.22,7-1.29,12.11,2.19a11.14,11.14,0,0,0-4.44-8.45l-1.17-.73a10.33,10.33,0,0,0-5.23-1.5,12,12,0,0,0-6,1.79"/></clipPath><linearGradient id="be21253d-3f04-4d9e-86f9-d565c8e639de" x1="-905.36" y1="2294.06" x2="-904.78" y2="2294.06" gradientTransform="matrix(130.87, 0, 0, -130.87, 118490.11, 300262.41)" xlink:href="#a72ec1e1-e9c2-4ad1-9430-47f12faf9bdf"/></defs><title>analiticas_avanzadas</title><g class="b3355b27-a755-469e-b76f-c4f74355f26b"><g id="a37708c3-6c52-44cc-b95b-9da911e17453" data-name="Capa 1"><g class="b748ef49-f22e-43c2-af46-60400a683fba"><g class="bc48477d-53b8-4070-82b4-d017145a6125"><path class="e78d2cc2-764a-47b7-9a8e-9388e23294d4" d="M26.36,84h0c-6.84-4-6-10.85,1.91-15.41l17.38-10c7.9-4.56,19.85-5.06,26.69-1.11s6,10.85-1.91,15.41l-17.38,10c-7.9,4.56-19.85,5-26.69,1.1" transform="translate(-6.55 4.88)"/></g></g><path class="a7c6d452-a481-4655-a4b3-34ea609bc864" d="M70.54,5l-.76-.34c-.31-.12-.74-.26-1.06-.37L67.92,4c-.35-.08-.82-.16-1.17-.23L65.9,3.7c-.4,0-.94,0-1.35,0l-.89,0c-.52.06-1.2.16-1.71.26L61,4.2a17.83,17.83,0,0,0-2.74,1.07l-1,.55h0C52.44,8.6,49,13.63,44.8,21.37c.78-1.43,2.36-1.81,4.19-.74C51.93,15.2,55.88,9.39,61.05,6.41c4.14-2.39,7.83-2.48,10.47-1l-1-.51" transform="translate(-6.55 4.88)"/><g class="e8cb6231-4418-46a7-9ebd-02b39d2f58d8"><rect class="f8496293-8c99-4566-87e7-ca3f75356105" x="29.79" y="11.9" width="71.6" height="51.39" transform="translate(1.1 91.03) rotate(-69.78)"/></g><path class="a7c6d452-a481-4655-a4b3-34ea609bc864" d="M54.46,70.06c.07-.09.18-.21.25-.31l.58-.71.88-1.1,1.12-1.45c.41-.53.94-1.24,1.34-1.78l1.52-2.07c.51-.7,1.16-1.64,1.66-2.35l1.77-2.58,1.83-2.81,1.86-3c.57-.94,1.29-2.21,1.85-3.15l1.81-3.28c.53-1,1.2-2.37,1.72-3.38l1.6-3.46c.46-1,1-2.48,1.46-3.55L77,31.59c.07-.23.15-.48.22-.74-3.24,9-10.05,21.5-22.55,39a2,2,0,0,1-.17.23" transform="translate(-6.55 4.88)"/><path class="a7c6d452-a481-4655-a4b3-34ea609bc864" d="M78.32,12.62,78,11.8c-.17-.35-.42-.8-.61-1.14L76.86,10c-.2-.28-.49-.65-.71-.92l-.56-.62c-.23-.24-.56-.54-.8-.76l-.64-.53-.74-.53-.71-.44-1.18-.69c-2.64-1.53-6.33-1.44-10.47,1-5.17,3-9.12,8.79-12.06,14.22l1.18.68a7.08,7.08,0,0,1,1.08.79C55,15,59.17,11,64.71,9.12c-.12-.14-.25-.26-.38-.39l.37.38a18.67,18.67,0,0,1,2.39-.63c.18,0,9.12-1.31,11.8,6l-.08-.33c-.13-.46-.33-1.06-.49-1.5" transform="translate(-6.55 4.88)"/><path class="a7c6d452-a481-4655-a4b3-34ea609bc864" d="M36.88,20.36C28.81,25,22.48,36.43,22.32,44.5c-.23,10.85,5,17,10.93,20.39L31.78,64c-.66-.46-1.53-1.07-2.16-1.55l-1.27-1.07c-.51-.48-1.19-1.13-1.68-1.63l-1.08-1.22c-.41-.53-1-1.23-1.35-1.78l-.9-1.41c-.34-.62-.79-1.44-1.09-2.07l-.72-1.69c-.26-.79-.61-1.85-.83-2.66l-.45-2.25a27,27,0,0,1-.33-5.17l.06-1.1c0-.39.1-.92.16-1.31l.21-1.16c.1-.37.21-.88.31-1.25L21,35.47l.43-1.23.49-1.2c.17-.36.38-.84.55-1.2l.6-1.19.66-1.17.71-1.15c.23-.33.52-.79.76-1.12l.8-1.09c.26-.32.6-.75.86-1.06l.89-1c.29-.29.67-.69,1-1l1-.89c.33-.26.75-.63,1.09-.88l1-.75c.38-.23.87-.56,1.25-.78l.72-.39.85-.41.71-.29.93-.31.71-.19c.31-.07.72-.15,1-.2l.71-.1c.33,0,.77-.06,1.09-.07h.71l1.11.07.7.09,1.07.21.68.17,1,.3.65.25.9.38.62.31.87.47c-2.86-1.66-6.55-2.41-11.23.29" transform="translate(-6.55 4.88)"/><g class="f969c476-a762-43d8-8db3-e038a7a506e8"><rect class="a06acd8c-685c-48c0-9e1c-0cf2850405f4" x="24.46" y="13.38" width="61.02" height="53.8" transform="translate(2.18 95.22) rotate(-83.51)"/></g><g class="ad0dab62-88cc-4ba1-800c-54a201ca0eee"><rect class="a0375378-3ac6-4ee7-bca3-2feb437332f6" x="9.58" y="21.07" width="59.48" height="47.94" transform="translate(-23.08 71.26) rotate(-69.78)"/></g><path class="a7c6d452-a481-4655-a4b3-34ea609bc864" d="M25.3,47.87C23.48,32.66,39.24,14.68,54.09,26.19a10.62,10.62,0,0,0-3.54-4.64l-.67-.43-.59-.36-1.18-.69c-2.86-1.66-6.55-2.41-11.23.29C28.81,25,22.48,36.43,22.32,44.5c-.23,10.85,5,17,10.93,20.39l1.18.69A39.4,39.4,0,0,0,39.61,68l1.66.59c.76.25,1.78.54,2.54.76l1.68.41c.6.13,1.42.29,2,.4l1.45.24,1.46.18,1,.09.78.05.41,0A2.43,2.43,0,0,0,54,70.49c-6.73.06-26.44-4-28.66-22.62" transform="translate(-6.55 4.88)"/><path class="aa2a4667-dd84-41c5-aea8-def11f3055a9" d="M23.34,55.32a4.83,4.83,0,0,1,2.41.79c.74.35,1.5.67,2.26,1a26.17,26.17,0,0,0,4.72,1.35,20,20,0,0,0,4.88.27A16.45,16.45,0,0,0,40,58.32a20.55,20.55,0,0,0,2.38-.66,14.85,14.85,0,0,0,4.34-2.17,5.17,5.17,0,0,0,.81-.81A1.66,1.66,0,0,0,48,53.8L48,51.29l.22-10,.07-3.46.79,3.38,4.87,21-.86.11c0-2.77-.06-5.54.1-8.32,0-.7.09-1.39.19-2.1a6.71,6.71,0,0,1,.24-1.09,1.29,1.29,0,0,1,.13-.31,1,1,0,0,1,.27-.32,4.29,4.29,0,0,1,.45-.33c1.18-.78,2.36-1.47,3.52-2.21a32.18,32.18,0,0,0,3.34-2.35,9.43,9.43,0,0,0,.73-.66c-.06.07,0,0,0,0a1.42,1.42,0,0,0,0-.22c0-.15,0-.32.07-.48.08-.67.12-1.35.16-2,.12-2.74.15-5.51.15-8.26V30.07l.85,3.31L66.89,47H66l1.56-7.15h0l0-.13.12-.1c1.08-1,2.14-2.08,3.16-3.16s2-2.2,2.94-3.36a30,30,0,0,0,2.55-3.63c.76-1.28,1.25-2.59,2-4a5.82,5.82,0,0,1,0,1.18,7.19,7.19,0,0,1-.7,2.22l-.23.53-.28.5a25.44,25.44,0,0,1-2.54,3.83,43.39,43.39,0,0,1-6.38,6.52l.15-.24h0l-1.57,7.15-.39,1.78L66,47.17,62.53,33.6l.86-.12c0,2.78,0,5.54-.15,8.32,0,.69-.08,1.38-.16,2.09,0,.18,0,.36-.09.54s0,.2-.06.29a1.06,1.06,0,0,1-.21.42,9,9,0,0,1-.8.73,34.36,34.36,0,0,1-3.43,2.42c-1.17.74-2.38,1.45-3.5,2.19-.14.1-.28.19-.39.28s0,0-.06.07a1,1,0,0,0-.07.17,6.08,6.08,0,0,0-.2.93c-.09.67-.14,1.35-.18,2-.15,2.74-.15,5.5-.1,8.25l.07,4.11-.93-4-4.87-21,.86-.09L48.9,51.32l-.06,2.52a2.37,2.37,0,0,1-.59,1.37,5.81,5.81,0,0,1-1,1,15.54,15.54,0,0,1-4.6,2.31,23,23,0,0,1-2.46.7,18.21,18.21,0,0,1-2.54.43,22.66,22.66,0,0,1-5.14-.14,23.49,23.49,0,0,1-4.94-1.36A24.53,24.53,0,0,1,25.28,57a3.53,3.53,0,0,1-1.94-1.72" transform="translate(-6.55 4.88)"/><path class="f5dcb1af-b5e8-4365-b390-972a830523fe" d="M56.87,52.24h0c-.21.36-.22.75,0,.88l2.34,1.49c.21.13.54-.06.76-.41s.22-.75,0-.88l-2.34-1.49c-.21-.13-.54.05-.76.41" transform="translate(-6.55 4.88)"/><path class="f5dcb1af-b5e8-4365-b390-972a830523fe" d="M78.69,40.35h0c-.2-.13-.54,0-.76.41l-2.48,4.12c-.21.36-.22.75,0,.88s.54-.06.76-.41l2.48-4.12c.21-.36.22-.75,0-.88" transform="translate(-6.55 4.88)"/><path class="f5dcb1af-b5e8-4365-b390-972a830523fe" d="M78.08,65.74h0c.21-.36.22-.75,0-.88l-2.35-1.49c-.2-.13-.54.05-.75.41s-.23.75,0,.88l2.34,1.49c.2.13.54-.06.76-.41" transform="translate(-6.55 4.88)"/><path class="f5dcb1af-b5e8-4365-b390-972a830523fe" d="M56.26,77.63h0c.2.13.54-.06.75-.41l2.48-4.12c.22-.36.23-.75,0-.88s-.54,0-.75.41l-2.48,4.12c-.22.36-.23.75,0,.88" transform="translate(-6.55 4.88)"/><path class="f5dcb1af-b5e8-4365-b390-972a830523fe" d="M79.2,52.6h0c0,.34.23.49.52.33l1.85-1a1.17,1.17,0,0,0,.55-.92c0-.34-.22-.49-.52-.33l-1.85,1a1.2,1.2,0,0,0-.55.92" transform="translate(-6.55 4.88)"/><path class="f5dcb1af-b5e8-4365-b390-972a830523fe" d="M67.14,72.64h0a1.19,1.19,0,0,0-.55.91l0,2.15c0,.35.23.5.52.34a1.19,1.19,0,0,0,.55-.92l0-2.15c0-.35-.22-.49-.52-.33" transform="translate(-6.55 4.88)"/><path class="f5dcb1af-b5e8-4365-b390-972a830523fe" d="M55.75,65.38h0c0-.34-.23-.49-.52-.33l-1.86,1a1.16,1.16,0,0,0-.54.91c0,.35.22.49.51.33l1.86-1a1.19,1.19,0,0,0,.55-.91" transform="translate(-6.55 4.88)"/><path class="f5dcb1af-b5e8-4365-b390-972a830523fe" d="M67.8,45.34h0a1.17,1.17,0,0,0,.55-.91l.06-2.16c0-.34-.23-.49-.52-.33a1.14,1.14,0,0,0-.55.91L67.28,45c0,.34.23.49.52.33" transform="translate(-6.55 4.88)"/><polygon class="f5dcb1af-b5e8-4365-b390-972a830523fe" points="69.83 69.22 64.98 61.68 71.22 58.51 68.8 57.11 55.4 54.62 55.47 73.05 59.28 68.49 64.14 76.03 69.83 69.22"/><polygon class="b82db588-4f38-400d-9f55-70704e28b40e" points="66.56 77.42 64.14 76.03 59.28 68.49 61.7 69.88 66.56 77.42"/><polygon class="b4f0aed8-0a3c-4f92-bab4-842ca6fdbb6d" points="72.25 70.61 67.4 63.07 71.22 58.51 57.81 56.02 57.88 74.45 61.7 69.88 66.56 77.42 72.25 70.61"/><polygon class="a627dc92-c3b2-4c1f-a254-6d108b5cb896" points="61.93 68.87 58.45 73.03 58.39 56.91 70.11 59.09 66.63 63.25 71.48 70.79 66.79 76.4 61.93 68.87"/><polygon class="af9ccbea-0785-4c92-ae6d-d3d7c789de09" points="57.81 56.02 57.88 74.45 55.47 73.05 55.4 54.62 57.81 56.02"/></g></g></svg>