<svg xmlns="http://www.w3.org/2000/svg" xmlns:xlink="http://www.w3.org/1999/xlink" viewBox="0 0 77.96 84.46"><defs><style>.fd6cc3e8-4bd8-45fe-b330-54af3c22e801{fill:none;}.f185c750-56ac-4713-a24c-0bf34bb4216a{isolation:isolate;}.b60f5a07-992f-41d5-a56c-d8af3874a549{mix-blend-mode:multiply;}.a09a93e2-f791-4185-a9c6-1a380bc59bdf{clip-path:url(#a942eb5c-d18c-4490-a050-be59328d224b);}.f87941aa-9b48-4d3d-bb97-c4c96a62ee46{fill:#e8e7e7;}.b6768861-2a79-4e71-a2c1-6469814b8a67{fill:#56505a;}.bfcfa096-5818-4591-bea1-ec4e0e943709{fill:#365faa;}.ae569292-cfa9-4bcf-af95-df4357d61c1f{fill:#faf9f6;}.a504c7dd-303e-4b9c-9c2d-ccef662df858{fill:#b0bfc5;}.a8ff8271-233d-4e0a-a403-8fd8e3dc1311{fill:#ef7c7c;}.b66ec40a-9e1a-43f5-b8e6-f0850f981e3a{fill:#7c7c7d;}.e671d40e-becb-485f-a830-8ac7b6604fea{fill:#d8e0e3;}.af96b582-4a9c-4498-a085-3f859170e3e7{fill:#424d46;}.bffaac84-ee7a-42af-89ed-56d35cf10ea7{clip-path:url(#fcde79be-785a-40b4-9934-fd9a7872ed0b);}.e2e1b5ea-c492-4173-be6d-3508c5e7764b{fill:#cfcfcf;}.a15ca564-80e2-4b8d-b2f5-b75b997438a3{fill:#f5f5f5;}.abff125a-7308-44a3-bcf9-7ad1e70b4510{fill:#6c515d;}.ffef9e65-a184-4bed-a08e-09242e6a2cea{fill:#f8c0b4;}.e7d16f9d-1eb3-44d3-b807-7db6449ab1a2{fill:#9cbce1;}.fc4fc489-8b8e-484e-9590-04bc577e4dbf{clip-path:url(#efbdb559-5a70-4d25-9c17-07a41b702f98);}.b93ee9d5-f267-4e41-bc16-b72431b22829{fill:#f2d5d5;}.eefa2593-faf7-47a6-b0cc-b2191d179087{clip-path:url(#f8a51515-b90c-431c-907f-bb61025bac4c);}.ac067111-4dc0-4a2c-af07-8229394390fd{clip-path:url(#f1460e2f-124c-49bc-b888-d1f7ec9a3f91);}.e1075557-ce36-48e0-8d15-9cc5a6ffd55e{clip-path:url(#b5ee8019-1b09-4a81-addc-627c6984de74);}.a376ffb4-5107-4e54-a6f6-3512d0280425{clip-path:url(#b86f96f7-c0c0-4d74-bff4-8a33024fa417);}.a7543165-9e5e-450e-9fee-a13db5313f2c{clip-path:url(#e9b19084-e202-47c8-a4ef-727b40a417f0);}.a45c137d-138a-469f-b18b-235799aab0a1{clip-path:url(#ba66bdd9-0627-463c-b3a3-538734a8ace9);}.ae938725-d925-4cec-b7e9-9f9ee355da91{fill:#facfc5;}.faf6d360-a33d-4b45-be95-fed09fe2bb09{fill:#7395cd;}.f20c7047-be4d-4a51-bc8a-f4db43bc93f9{fill:#fbfbfb;}.e135ca83-cf7e-45da-bac4-a7ee6dd81a77{clip-path:url(#beab3b7e-291c-4646-960b-d86c0f6d0493);}.f9ff5333-633a-449d-ad5f-8007ae1cfe0c{fill:#e7e6e6;}.b676759a-d901-4a58-ae71-d7a7eb3db251{fill:#7a827d;}.a5c260cf-d8bf-4a92-95bc-771efc74f1a3{fill:#b8b8b8;}.f23d333a-a0df-44f6-b24f-eba3f5535183{fill:#4c3e41;}.fd1f192d-f8b7-4577-a394-4d92e12f1d46{clip-path:url(#f3e5b554-41e3-44a4-b809-09e71da3f589);}.ac233af5-a8ea-4ed0-952e-7a402963f227{clip-path:url(#b4e16b7b-c636-4f76-81b8-9e9dcb367afe);}.a02c3fb0-df9e-48e0-9835-79311c488fb3{clip-path:url(#bdf3e99b-d14a-4de0-98ad-7d14938452ec);}.e1a44e30-2950-4928-9f3f-0c5523b99ff2{clip-path:url(#b3dcfc34-41d8-4c75-8dfc-d863fb0ccda6);}.ac233de5-3d33-40d5-a031-23143a23f7d5{clip-path:url(#fbf737c6-68e0-4876-8206-47f6996da284);}.f09aed09-1fa4-471d-961a-9a5d1ab97fce{fill:#8b546b;}.a34977ae-8071-4449-bc8b-69687be4ed5f{clip-path:url(#e9eb58c0-2ab7-4a2e-b854-fb962be90ca7);}.fca687c0-410d-4e3b-8ee9-de678eca1935{fill:#7483bb;}.b796fbd2-99de-4f87-a7f9-3bfab6f779ce{fill:#acacac;}</style><clipPath id="a942eb5c-d18c-4490-a050-be59328d224b" transform="translate(-9.61 -2.38)"><rect class="fd6cc3e8-4bd8-45fe-b330-54af3c22e801" x="9.61" y="43.22" width="75" height="43.62"/></clipPath><clipPath id="fcde79be-785a-40b4-9934-fd9a7872ed0b" transform="translate(-9.61 -2.38)"><rect class="fd6cc3e8-4bd8-45fe-b330-54af3c22e801" x="41.81" y="57.19" width="17.85" height="10.31"/></clipPath><clipPath id="efbdb559-5a70-4d25-9c17-07a41b702f98" transform="translate(-9.61 -2.38)"><rect class="fd6cc3e8-4bd8-45fe-b330-54af3c22e801" x="49.85" y="35.62" width="1.76" height="22.42"/></clipPath><clipPath id="f8a51515-b90c-431c-907f-bb61025bac4c" transform="translate(-9.61 -2.38)"><rect class="fd6cc3e8-4bd8-45fe-b330-54af3c22e801" x="55.17" y="30.01" width="1.83" height="29.75"/></clipPath><clipPath id="f1460e2f-124c-49bc-b888-d1f7ec9a3f91" transform="translate(-9.61 -2.38)"><rect class="fd6cc3e8-4bd8-45fe-b330-54af3c22e801" x="31.48" y="29.12" width="1.56" height="0.58"/></clipPath><clipPath id="b5ee8019-1b09-4a81-addc-627c6984de74" transform="translate(-9.61 -2.38)"><rect class="fd6cc3e8-4bd8-45fe-b330-54af3c22e801" x="30.61" y="29.94" width="2.12" height="0.57"/></clipPath><clipPath id="b86f96f7-c0c0-4d74-bff4-8a33024fa417" transform="translate(-9.61 -2.38)"><rect class="fd6cc3e8-4bd8-45fe-b330-54af3c22e801" x="30.87" y="30.04" width="3.88" height="1.01"/></clipPath><clipPath id="e9b19084-e202-47c8-a4ef-727b40a417f0" transform="translate(-9.61 -2.38)"><rect class="fd6cc3e8-4bd8-45fe-b330-54af3c22e801" x="36.33" y="22.52" width="9.12" height="8.21"/></clipPath><clipPath id="ba66bdd9-0627-463c-b3a3-538734a8ace9" transform="translate(-9.61 -2.38)"><rect class="fd6cc3e8-4bd8-45fe-b330-54af3c22e801" x="40.5" y="20.8" width="2.54" height="3.64"/></clipPath><clipPath id="beab3b7e-291c-4646-960b-d86c0f6d0493" transform="translate(-9.61 -2.38)"><rect class="fd6cc3e8-4bd8-45fe-b330-54af3c22e801" x="47.21" y="20.63" width="11.1" height="10.6"/></clipPath><clipPath id="f3e5b554-41e3-44a4-b809-09e71da3f589" transform="translate(-9.61 -2.38)"><rect class="fd6cc3e8-4bd8-45fe-b330-54af3c22e801" x="48.48" y="26.3" width="1.6" height="1.51"/></clipPath><clipPath id="b4e16b7b-c636-4f76-81b8-9e9dcb367afe" transform="translate(-9.61 -2.38)"><rect class="fd6cc3e8-4bd8-45fe-b330-54af3c22e801" x="47.95" y="25.56" width="2.24" height="1.74"/></clipPath><clipPath id="bdf3e99b-d14a-4de0-98ad-7d14938452ec" transform="translate(-9.61 -2.38)"><rect class="fd6cc3e8-4bd8-45fe-b330-54af3c22e801" x="51.16" y="27.16" width="10.87" height="1.74"/></clipPath><clipPath id="b3dcfc34-41d8-4c75-8dfc-d863fb0ccda6" transform="translate(-9.61 -2.38)"><rect class="fd6cc3e8-4bd8-45fe-b330-54af3c22e801" x="54.22" y="25.54" width="4.94" height="1.35"/></clipPath><clipPath id="fbf737c6-68e0-4876-8206-47f6996da284" transform="translate(-9.61 -2.38)"><rect class="fd6cc3e8-4bd8-45fe-b330-54af3c22e801" x="49.24" y="11.04" width="3.39" height="1.94"/></clipPath><clipPath id="e9eb58c0-2ab7-4a2e-b854-fb962be90ca7" transform="translate(-9.61 -2.38)"><rect class="fd6cc3e8-4bd8-45fe-b330-54af3c22e801" x="57.71" y="23.71" width="3.01" height="1.89"/></clipPath></defs><title>consulta_inteligente</title><g class="f185c750-56ac-4713-a24c-0bf34bb4216a"><g id="ea45c5a0-0ec1-4a33-8140-da5ebeeaaf4e" data-name="Capa 1"><g class="b60f5a07-992f-41d5-a56c-d8af3874a549"><g class="a09a93e2-f791-4185-a9c6-1a380bc59bdf"><path class="f87941aa-9b48-4d3d-bb97-c4c96a62ee46" d="M83.63,57.37,81.27,56l-2.36-1.36-2.36-1.37-2.36-1.36-2.37-1.36-2.36-1.37L67.1,47.83l-2.36-1.36L62.38,45.1,60,43.74a4.76,4.76,0,0,0-4.34,0h0l-4.29,2.5-4.3,2.5-6.44,3.74L36.35,55l-4.29,2.49L27.76,60l-4.29,2.49L19.17,65l-4.3,2.5L10.58,70h0a1.65,1.65,0,0,0-1,1.38,1.58,1.58,0,0,0,.93,1.3L34.15,86.26c1.23.71,5.93.8,7.16.09L83.7,60.05a1.57,1.57,0,0,0,.91-1.28,1.76,1.76,0,0,0-1-1.4m-.1,0h0M60,43.74a.16.16,0,0,0-.1,0,.16.16,0,0,1,.1,0m-.24,0a.24.24,0,0,1,.13,0,.38.38,0,0,0-.13,0m-3.89,0-.1,0,.1,0M10.68,69.94h0m-.11,2.58h0m.06-.12,0,0,0,0M83.67,60a.05.05,0,0,0,0,0,.05.05,0,0,1,0,0m-.06-.12,0,0,0,0m-.1-.11,0,0,0,0" transform="translate(-9.61 -2.38)"/></g></g><path class="b6768861-2a79-4e71-a2c1-6469814b8a67" d="M86.25,55.54,62.92,42.08a4.69,4.69,0,0,0-4.34.09l-44.69,26c-1.23.71-1.62,1.79-.39,2.5L37.11,84.29a4.89,4.89,0,0,0,4.44,0L86.66,58.08c1.22-.71.82-1.83-.41-2.54m-.57,1.79L41.48,83A1.67,1.67,0,0,1,40,83L15.7,69a.46.46,0,0,1,0-.87L59.89,42.44a1.69,1.69,0,0,1,1.52,0l24.27,14a.47.47,0,0,1,0,.88" transform="translate(-9.61 -2.38)"/><path class="bfcfa096-5818-4591-bea1-ec4e0e943709" d="M85.68,56.45l-24.27-14a1.69,1.69,0,0,0-1.52,0L15.7,68.12c-.42.25-.42.64,0,.88L40,83a1.67,1.67,0,0,0,1.51,0l44.2-25.68a.47.47,0,0,0,0-.88" transform="translate(-9.61 -2.38)"/><path class="ae569292-cfa9-4bcf-af95-df4357d61c1f" d="M50.81,69.83a18.92,18.92,0,0,1-9.21-2.2c-2.51-1.45-3.89-3.39-3.89-5.46s1.36-4,3.83-5.39c5-2.91,13.26-2.89,18.32,0,2.51,1.45,3.89,3.39,3.89,5.46s-1.36,4-3.83,5.39a18.62,18.62,0,0,1-9.11,2.17m-.16-14.76a18.19,18.19,0,0,0-8.88,2.11c-2.32,1.34-3.6,3.12-3.6,5s1.3,3.69,3.66,5.06c4.94,2.85,13,2.86,17.86,0,2.32-1.34,3.6-3.12,3.6-5s-1.3-3.69-3.66-5.06a18.37,18.37,0,0,0-9-2.14" transform="translate(-9.61 -2.38)"/><path class="a504c7dd-303e-4b9c-9c2d-ccef662df858" d="M86.66,58.33,41.55,84.55a4,4,0,0,1-1.09.41,4.9,4.9,0,0,1-3.35-.42L13.5,70.91a2.36,2.36,0,0,1-.56-.43,1.27,1.27,0,0,1-.37-.86v1.61a1.3,1.3,0,0,0,.37.86,2.6,2.6,0,0,0,.56.44L37.1,86.16a5,5,0,0,0,3.36.41,4.1,4.1,0,0,0,1.08-.41L86.65,60a1.56,1.56,0,0,0,.91-1.28V57.06a1.56,1.56,0,0,1-.91,1.27" transform="translate(-9.61 -2.38)"/><path class="a8ff8271-233d-4e0a-a403-8fd8e3dc1311" d="M87.55,58.79a.57.57,0,0,0,0-.12.49.49,0,0,1,0,.12" transform="translate(-9.61 -2.38)"/><path class="a8ff8271-233d-4e0a-a403-8fd8e3dc1311" d="M87.54,58.88s0-.06,0-.09,0,.05,0,.09" transform="translate(-9.61 -2.38)"/><path class="b66ec40a-9e1a-43f5-b8e6-f0850f981e3a" d="M86.65,60,41.54,86.16a4.89,4.89,0,0,1-4.44,0s0,0,0,0h0v0L13.49,72.53a1.88,1.88,0,0,1-.86-.93,1.93,1.93,0,0,0,.91,1,.16.16,0,0,1,0-.07.16.16,0,0,0,0,.07L37.15,86.26a4.76,4.76,0,0,0,4.34,0L43.64,85l43-25a1.74,1.74,0,0,0,.94-1.17A1.72,1.72,0,0,1,86.65,60" transform="translate(-9.61 -2.38)"/><path class="a8ff8271-233d-4e0a-a403-8fd8e3dc1311" d="M12.63,71.6s0,0,0-.06,0,0,0,.06" transform="translate(-9.61 -2.38)"/><path class="a8ff8271-233d-4e0a-a403-8fd8e3dc1311" d="M12.59,71.46l0-.23a1.81,1.81,0,0,0,0,.23" transform="translate(-9.61 -2.38)"/><path class="a8ff8271-233d-4e0a-a403-8fd8e3dc1311" d="M12.61,71.54s0-.05,0-.08,0,.05,0,.08" transform="translate(-9.61 -2.38)"/><path class="e671d40e-becb-485f-a830-8ac7b6604fea" d="M86.59,55.66l-2.36-1.37-2.36-1.36-2.36-1.36L77.14,50.2l-2.36-1.36-2.36-1.36-2.36-1.37L67.7,44.75l-2.36-1.36L63,42a4.76,4.76,0,0,0-4.34,0l.08,0-.08,0-4.29,2.49L50.05,47l-6.44,3.74-4.3,2.5L35,55.76l-4.29,2.49-4.3,2.5-4.29,2.5-4.3,2.49-4.29,2.5a1.63,1.63,0,0,0-1,1.38,1.56,1.56,0,0,0,.93,1.29L37.11,84.54a4.86,4.86,0,0,0,4.44,0L86.66,58.33a1.56,1.56,0,0,0,.91-1.27,1.73,1.73,0,0,0-1-1.4m-.1,0h0M63,42a.16.16,0,0,0-.1,0,.16.16,0,0,1,.1,0m-.24,0,.12,0-.12,0m-3.89,0a.23.23,0,0,0-.11,0,.23.23,0,0,1,.11,0M13.64,68.22h0m-.11,2.58h0m.06-.11,0,0,0,0M86.3,57.88,41.2,84.09h0a4.11,4.11,0,0,1-3.74,0L13.85,70.46l-.15.11.15-.11a1.15,1.15,0,0,1,0-2.17l-.09,0h0l.09,0,45.1-26.21a4.11,4.11,0,0,1,3.74,0L86.29,55.71l0,0h0l-.06,0a1.15,1.15,0,0,1,0,2.17m.33.35,0,0,0,0m-.06-.11,0,0,0,0M86.46,58l0,0,0,0" transform="translate(-9.61 -2.38)"/><polygon class="af96b582-4a9c-4498-a085-3f859170e3e7" points="37.74 4.77 37.67 4.46 40.51 3.75 40.59 4.06 37.74 4.77"/><g class="b60f5a07-992f-41d5-a56c-d8af3874a549"><g class="bffaac84-ee7a-42af-89ed-56d35cf10ea7"><path class="e2e1b5ea-c492-4173-be6d-3508c5e7764b" d="M57.06,66a13.93,13.93,0,0,1-12.62,0c-3.5-2-3.51-5.29,0-7.29a13.93,13.93,0,0,1,12.62,0c3.5,2,3.51,5.28,0,7.29" transform="translate(-9.61 -2.38)"/></g></g><path class="a15ca564-80e2-4b8d-b2f5-b75b997438a3" d="M55.63,60.48s.56.16.6.43a2.17,2.17,0,0,1-.08,1,9.11,9.11,0,0,1-1,.88l-.2.05A4.09,4.09,0,0,1,53.8,64.7a4.58,4.58,0,0,1-2.39.87c-1,.08-1.77-.14-2-.63s.89-1.56,1.21-1.64l.33-.09Z" transform="translate(-9.61 -2.38)"/><path class="a15ca564-80e2-4b8d-b2f5-b75b997438a3" d="M51.31,58.5s.58.38.62.82a2.65,2.65,0,0,1-.06.82,6.38,6.38,0,0,1-.72.51c-.15.05-1,.46-1,.46l-.36-.19-.48.26a5.12,5.12,0,0,1-.84,1.16,4.08,4.08,0,0,1-2,1.09c-1.05.18-1.92-.51-1.87-1.1a2,2,0,0,1,.51-1.08l4.44-2.17Z" transform="translate(-9.61 -2.38)"/><path class="abff125a-7308-44a3-bcf9-7ad1e70b4510" d="M53.22,58.55l-.67.86s-.68,1.72-.77,1.81S50,63.5,49.85,63.75a2.68,2.68,0,0,0-.2.84s.1.3.67.51a3.15,3.15,0,0,0,2.22-.23A5.85,5.85,0,0,0,54.2,63.6c.26-.31.62-1.12.71-1.18a15.84,15.84,0,0,0,1.16-1.29,8.24,8.24,0,0,0-.37-2.2c-.07-.25-2.48-.38-2.48-.38" transform="translate(-9.61 -2.38)"/><path class="abff125a-7308-44a3-bcf9-7ad1e70b4510" d="M48.29,56.89a7.58,7.58,0,0,1-.37,1.62c-.19.25-2.45,1.94-2.73,2.43a2.76,2.76,0,0,0-.25,1.42c0,.35.7.57,1.18.63a5.93,5.93,0,0,0,2.25-1.19c.22-.22,1.16-1.37,1.29-1.44s1.75-.65,1.87-1.06a7.24,7.24,0,0,0-.5-2.51c-.12-.08-2.74.1-2.74.1" transform="translate(-9.61 -2.38)"/><path class="ffef9e65-a184-4bed-a08e-09242e6a2cea" d="M52.67,59.25s-.19.61,0,.86a2.42,2.42,0,0,0,1.88.41c.51-.22,1.16-.76,1.16-1s0-1.79,0-1.79Z" transform="translate(-9.61 -2.38)"/><path class="ffef9e65-a184-4bed-a08e-09242e6a2cea" d="M48.25,57.39a4,4,0,0,0-.07,1,2.34,2.34,0,0,0,1.76.19c.88-.16,1.21-.56,1.24-.73a9.6,9.6,0,0,0-.43-1.56s-2.5,1.1-2.5,1.1" transform="translate(-9.61 -2.38)"/><path class="e7d16f9d-1eb3-44d3-b807-7db6449ab1a2" d="M51.26,57.48c0,.25-.28.44-.67.56-.92.28-2.46.2-2.61-.22-.23-.61-.93-9.22-1.09-10.36s-1.67-8.82-1.81-11.28a40.54,40.54,0,0,1,.37-6.25L50.1,29s1,5,1.31,6.64h0c0,.15.06.27.08.36.23,1.1,0,8.06.1,9.76s-.31,10.88-.33,11.74" transform="translate(-9.61 -2.38)"/><g class="b60f5a07-992f-41d5-a56c-d8af3874a549"><g class="fc4fc489-8b8e-484e-9590-04bc577e4dbf"><path class="b93ee9d5-f267-4e41-bc16-b72431b22829" d="M51.26,57.48c0,.25-.28.44-.67.56.1-3.24.33-9.47.29-11.45a49.8,49.8,0,0,0-1-7.08l0-3.25,1.56-.64h0c0,.15.06.27.08.36.23,1.1,0,8.06.1,9.76s-.31,10.88-.33,11.74" transform="translate(-9.61 -2.38)"/></g></g><path class="e7d16f9d-1eb3-44d3-b807-7db6449ab1a2" d="M55.86,59.05a1.21,1.21,0,0,1-.7.71,1.67,1.67,0,0,1-.62.18c-.53,0-2-.25-2.14-.77s-.12-8.76-.5-10.7-1.83-9.86-1.83-9.86-1.9-.31-2-1.56,0-4.82,0-4.82l7.8-2.1.43-.12A22.76,22.76,0,0,1,57,35.34c0,2.71-1,11.28-1,11.28s.34,1.89.59,4.1-.66,7.87-.76,8.33" transform="translate(-9.61 -2.38)"/><g class="b60f5a07-992f-41d5-a56c-d8af3874a549"><g class="eefa2593-faf7-47a6-b0cc-b2191d179087"><path class="b93ee9d5-f267-4e41-bc16-b72431b22829" d="M55.86,59.05a1.21,1.21,0,0,1-.7.71c.45-2.85,1.14-7,1.17-7.72a29.82,29.82,0,0,0-.45-4L55.64,47c-.25-1.08.2-3.34.76-7.93A26,26,0,0,0,56,30.47l-.11-.34.43-.12A22.76,22.76,0,0,1,57,35.34c0,2.71-1,11.28-1,11.28s.34,1.89.59,4.1-.66,7.87-.76,8.33" transform="translate(-9.61 -2.38)"/></g></g><path class="ffef9e65-a184-4bed-a08e-09242e6a2cea" d="M45.45,22.57S44.8,24,44.32,25a6.4,6.4,0,0,1-1.64,2.22,17.67,17.67,0,0,1-3.75,2c-.71.29-1.75.95-2,1s-.35.29-.64.45l0,0a6.22,6.22,0,0,1-1.6.29A10.89,10.89,0,0,1,33,30.87l-1,.17a2.48,2.48,0,0,1-.75-.11,1.35,1.35,0,0,1-.4,0h0c-.2-.07-.06-.34-.06-.34l0,0h0a.84.84,0,0,1-.16-.23s0-.08,0-.1a8.63,8.63,0,0,1,1.32-.48,4.22,4.22,0,0,1-.45,0c-.17,0-.42-.15-.35-.39s.34-.29.58-.35,1.17-.37,1.41-.47a3.24,3.24,0,0,1,1.17,0c.41,0,1.16.21,1.35.19a7.55,7.55,0,0,0,1.82-1.27c1-.82,1-1.09,2-2.07a10.71,10.71,0,0,1,1-.86c.39-.29.66-.43.85-.6a25.7,25.7,0,0,0,1.55-3L43,20.8c1.07-.36,2.21,1.41,2.4,1.72l0,.05" transform="translate(-9.61 -2.38)"/><g class="b60f5a07-992f-41d5-a56c-d8af3874a549"><g class="ac067111-4dc0-4a2c-af07-8229394390fd"><path class="b93ee9d5-f267-4e41-bc16-b72431b22829" d="M33,29.12a3.87,3.87,0,0,1-.52.3,9.41,9.41,0,0,1-1,.24l.45,0,.71-.13.3-.16Z" transform="translate(-9.61 -2.38)"/></g></g><g class="b60f5a07-992f-41d5-a56c-d8af3874a549"><g class="e1075557-ce36-48e0-8d15-9cc5a6ffd55e"><path class="b93ee9d5-f267-4e41-bc16-b72431b22829" d="M31.69,30.15l-.8.14-.12.22a.84.84,0,0,1-.16-.23l.13-.06c.13,0,.85-.13.85-.13l1.15-.15Z" transform="translate(-9.61 -2.38)"/></g></g><g class="b60f5a07-992f-41d5-a56c-d8af3874a549"><g class="a376ffb4-5107-4e54-a6f6-3512d0280425"><path class="b93ee9d5-f267-4e41-bc16-b72431b22829" d="M32.63,30.6c0,.17.39.27.39.27l-1,.17a2.48,2.48,0,0,1-.75-.11,1.35,1.35,0,0,1-.4,0h0a1.38,1.38,0,0,0,.2-.08c.16-.1.13-.28.18-.33a4.12,4.12,0,0,1,.51-.26L32.9,30l-.25.08-.81.13s-.27.19-.39.3a.27.27,0,0,0,0,.33,1.75,1.75,0,0,0,.47.08,4.18,4.18,0,0,0,.63-.12l-.13-.34a2.07,2.07,0,0,1,.26-.33,3.82,3.82,0,0,1,1,0l1.12-.13-1.18.29a3.5,3.5,0,0,0-.78-.09c-.23,0-.21.17-.16.34" transform="translate(-9.61 -2.38)"/></g></g><g class="b60f5a07-992f-41d5-a56c-d8af3874a549"><g class="a7543165-9e5e-450e-9fee-a13db5313f2c"><path class="b93ee9d5-f267-4e41-bc16-b72431b22829" d="M45.45,22.57S44.8,24,44.32,25a6.4,6.4,0,0,1-1.64,2.22,17.67,17.67,0,0,1-3.75,2c-.71.29-1.75.95-2,1s-.35.29-.64.45a1.33,1.33,0,0,0,.39-.43c.05-.14,0-.28,0-.42A.64.64,0,0,0,37,30h.14a.35.35,0,0,0,.11-.1,5.64,5.64,0,0,1,1-.6,8,8,0,0,1,1.15-.54l1.09-.47a3.73,3.73,0,0,0,.94-.46,4.38,4.38,0,0,1,.79-.5,2,2,0,0,0,.69-.58A11.87,11.87,0,0,0,44.09,25l1.08-2a3.66,3.66,0,0,1,.26-.42l0,.05" transform="translate(-9.61 -2.38)"/></g></g><g class="b60f5a07-992f-41d5-a56c-d8af3874a549"><g class="a45c137d-138a-469f-b18b-235799aab0a1"><path class="b93ee9d5-f267-4e41-bc16-b72431b22829" d="M43,20.8l-.34,1.09-.8,1.66-.41.5-1,.39h0c.39-.29.65-.43.85-.6a25.7,25.7,0,0,0,1.55-3L43,20.8" transform="translate(-9.61 -2.38)"/></g></g><path class="ae938725-d925-4cec-b7e9-9f9ee355da91" d="M34.81,29.33a2,2,0,0,1-.37.27,1.15,1.15,0,0,1-.49.17,1.05,1.05,0,0,1-.48-.16.28.28,0,0,1-.11-.08.25.25,0,0,1,0-.17,1.16,1.16,0,0,1,.1-.49c.13-.28.46-.3.73-.28a1.35,1.35,0,0,1,.86.28c.13.16-.11.35-.22.46" transform="translate(-9.61 -2.38)"/><path class="ae938725-d925-4cec-b7e9-9f9ee355da91" d="M35.24,29.62c-.16.14-.25.35-.42.47s-.18.1-.26.17a.27.27,0,0,0-.1.26,2.4,2.4,0,0,0,1.48-.22c.27-.1.59-.41.29-.68a.8.8,0,0,0-1,0" transform="translate(-9.61 -2.38)"/><path class="ae938725-d925-4cec-b7e9-9f9ee355da91" d="M41.89,24.87a1.68,1.68,0,0,0-.58-.13,2,2,0,0,0-1.19.59c-.8.66-1.57,1.37-2.4,2l-.89.7c-.29.23-.73.41-.64.85a1.48,1.48,0,0,0,.1.27.65.65,0,0,0,.15.24.44.44,0,0,0,.15.08,1.48,1.48,0,0,0,.77.15,3.56,3.56,0,0,0,.67-.35l1.55-.82,3.06-1.6c.37-.19.83-.7.57-1.14a1.75,1.75,0,0,0-.52-.41,4.07,4.07,0,0,0-.8-.42" transform="translate(-9.61 -2.38)"/><path class="ae938725-d925-4cec-b7e9-9f9ee355da91" d="M42.85,21.91l-.16.34q-.25.43-.48.9c-.11.22-.2.46-.3.69s-.23.58-.36.87-.22.34-.22.56a1,1,0,0,0,.75,1,1.2,1.2,0,0,0,.83-.27,3,3,0,0,0,.71-.7c.11-.16.2-.32.3-.49a5.4,5.4,0,0,0,.46-1,3.35,3.35,0,0,0,.11-.55,1.62,1.62,0,0,0,0-.58,1.87,1.87,0,0,0-.35-.67,1.41,1.41,0,0,0-.39-.38.66.66,0,0,0-.74,0,1.06,1.06,0,0,0-.17.23" transform="translate(-9.61 -2.38)"/><path class="a15ca564-80e2-4b8d-b2f5-b75b997438a3" d="M46,13.91s-1.3.21-2,3.16A32.85,32.85,0,0,1,42.54,21a28.41,28.41,0,0,0,2.88,2.11c.28,0,1.88-3.5,1.84-4.36A42.75,42.75,0,0,0,46,13.91" transform="translate(-9.61 -2.38)"/><path class="abff125a-7308-44a3-bcf9-7ad1e70b4510" d="M46.8,33a12.2,12.2,0,0,0,7.6.71c2.79-.75-1.22-1.63-1.22-1.63s-3.78,1.25-6.38-.72c-.28.4,0,1.64,0,1.64" transform="translate(-9.61 -2.38)"/><path class="faf6d360-a33d-4b45-be95-fed09fe2bb09" d="M58.3,21.12c-.11.59-.2,1-.23,1.14-.16.51-1.12,4.23-1.12,4.28s-.38,3.21-.46,4.12a2.05,2.05,0,0,1-.41,1.09c-1.13,1-4.45,1.39-6.8.89-2.85-.61-3.74-1.51-3.83-2.18s.12-2.89,0-4.29a52.37,52.37,0,0,0-.54-7.75c-.51-2.5.24-3.68.71-4.11a4.83,4.83,0,0,1,2-.88c.76-.2,1.16-.13,2-.4a12.63,12.63,0,0,1,6,.31,13.25,13.25,0,0,0,1.36.8,7.42,7.42,0,0,1,1.89,1c.35.47-.18,4-.52,5.93" transform="translate(-9.61 -2.38)"/><path class="f20c7047-be4d-4a51-bc8a-f4db43bc93f9" d="M45.05,19s-.15,6.59,0,11c.06,1.6-.11,4.3-.62,10.24a2.45,2.45,0,0,0,1.89,1s.61-14.32.71-17.67.35-7.87.35-7.87Z" transform="translate(-9.61 -2.38)"/><g class="b60f5a07-992f-41d5-a56c-d8af3874a549"><g class="e135ca83-cf7e-45da-bac4-a7ee6dd81a77"><path class="b93ee9d5-f267-4e41-bc16-b72431b22829" d="M58.3,21.12c-.11.59-.2,1-.23,1.14-.16.51-1.12,4.23-1.12,4.28s-.38,3.21-.46,4.12a.89.89,0,0,1-.41.57c0-.92-.11-1.9-.11-1.9l-1.57.3s-3.91-.32-4.24-.33a25,25,0,0,1-2.95-1.4s6.35.37,6.45.35,2.33-1,2.48-1.15a17.63,17.63,0,0,0,.48-2.75c.08-.63-.2-3.72-.2-3.72Z" transform="translate(-9.61 -2.38)"/></g></g><path class="f20c7047-be4d-4a51-bc8a-f4db43bc93f9" d="M46,13.88c-.59.24-1.05,1.23-1.05,1.23a3.65,3.65,0,0,0-.46,1.17c0,.38.36,3.29.36,3.29l2.39-1.45a19.52,19.52,0,0,1,.53-4c.4-.93,2.65-1.1,3.15-1.08.22,0,.84-.05,1.53-.09-1.39,0-3,.05-3.06.08s-2.79.56-3.39.8" transform="translate(-9.61 -2.38)"/><path class="f9ff5333-633a-449d-ad5f-8007ae1cfe0c" d="M50.16,12.56a4.05,4.05,0,0,0-1.09.14,5.11,5.11,0,0,0-2.22,1.14c-1,.95-.93,4.63-.92,6.07s.61,16.2.61,16.2l.84-17s.11-1.85.27-3.17.61-2.81,2.63-2.87-.12-.53-.12-.53" transform="translate(-9.61 -2.38)"/><path class="f20c7047-be4d-4a51-bc8a-f4db43bc93f9" d="M52.47,13l1.76,0a15.06,15.06,0,0,0-1.76,0" transform="translate(-9.61 -2.38)"/><path class="f20c7047-be4d-4a51-bc8a-f4db43bc93f9" d="M58.4,21.32l.76-6s-.07-.16-.76-.55-2.9-1.5-2.9-1.5L54.6,13h-.37a3.14,3.14,0,0,1,.41.07,8.3,8.3,0,0,1-.5,2.66,47.3,47.3,0,0,0-1,7.12s-.24,5.32-.35,7.53c-.17,3.68-.35,8.73.23,12.07a12.75,12.75,0,0,0,5.83-1.77c-.07-1.81-.9-7.54-1.1-10.51-.17-2.62,0-4.81,0-5.89Z" transform="translate(-9.61 -2.38)"/><path class="b676759a-d901-4a58-ae71-d7a7eb3db251" d="M47.15,15.83l-.32,0a8.83,8.83,0,0,1,.22-1.24c.64-2.46,4-2.38,4-2.38v.32s-3.15-.08-3.72,2.14a10.1,10.1,0,0,0-.21,1.19" transform="translate(-9.61 -2.38)"/><path class="abff125a-7308-44a3-bcf9-7ad1e70b4510" d="M46.62,21.37a.24.24,0,0,1,.28-.15c.13,0,.24.14.21.25a.26.26,0,0,1-.3.16.23.23,0,0,1-.19-.26" transform="translate(-9.61 -2.38)"/><path class="a5c260cf-d8bf-4a92-95bc-771efc74f1a3" d="M47.16,21.63a.76.76,0,0,1-.21,0l.09-.31a.68.68,0,0,0,.6-.2c.64-2.55.18-4.81-.66-5.19-.92.32-1.41,3-1.51,4.74a.34.34,0,0,0,.3.32l-.08.31a.66.66,0,0,1-.54-.64c0-.48.32-4.67,1.8-5.06h0l0,0c1.16.42,1.56,3,.89,5.63l0,.07a1.18,1.18,0,0,1-.74.35" transform="translate(-9.61 -2.38)"/><path class="a5c260cf-d8bf-4a92-95bc-771efc74f1a3" d="M47.92,17.56A1.81,1.81,0,0,0,47,16.39c-.2,0-.46,0-.84.61L46,16.91c.35-.53.64-.73,1-.68s.88.7,1,1.28Z" transform="translate(-9.61 -2.38)"/><path class="abff125a-7308-44a3-bcf9-7ad1e70b4510" d="M46,21.25a.21.21,0,0,1-.29.11c-.13,0-.22-.17-.18-.27a.24.24,0,0,1,.32-.11.22.22,0,0,1,.15.27" transform="translate(-9.61 -2.38)"/><path class="f9ff5333-633a-449d-ad5f-8007ae1cfe0c" d="M54.6,13a21.68,21.68,0,0,0-1.42,5.6,178.14,178.14,0,0,0-.6,18.62c1.62-12.88,1.73-13.89,2.63-18.53.15-.77.23-1.55.34-2.07.31-1.53.93-2.58.71-2.94A5.1,5.1,0,0,0,54,11.89,2.82,2.82,0,0,0,54.6,13" transform="translate(-9.61 -2.38)"/><path class="b676759a-d901-4a58-ae71-d7a7eb3db251" d="M54.45,22a7.41,7.41,0,0,1,.14-1.56,18.44,18.44,0,0,1,.58-2.26A29.27,29.27,0,0,0,56,15.09c.29-1.66-2-3.05-2-3.06l.17-.27c.1.06,2.47,1.51,2.15,3.38-.17,1-.5,2.1-.79,3.1a19,19,0,0,0-.58,2.21,8.14,8.14,0,0,0-.13,1.49Z" transform="translate(-9.61 -2.38)"/><path class="ffef9e65-a184-4bed-a08e-09242e6a2cea" d="M49.15,11.41a5.1,5.1,0,0,1,.23,2.09c-.16,1-.25,1.7,1.41,1.85s3.61-1.82,3.68-1.91a1.82,1.82,0,0,0,.17-.39l-.48-.81a9.16,9.16,0,0,1-.46-1.6,21.12,21.12,0,0,1,.48-2.9s1.1-1.89-.41-1.55-2.92.88-3.22,1.93a33.18,33.18,0,0,1-1.4,3.29" transform="translate(-9.61 -2.38)"/><polygon class="a5c260cf-d8bf-4a92-95bc-771efc74f1a3" points="38.03 20.29 37.73 19.57 40.25 20.15 40.03 20.75 38.03 20.29"/><polygon class="abff125a-7308-44a3-bcf9-7ad1e70b4510" points="41.54 20.68 36.03 19.41 35.89 19.55 43 27.84 43.14 27.7 41.54 20.68"/><polygon class="f23d333a-a0df-44f6-b24f-eba3f5535183" points="41.41 20.82 35.89 19.55 37.8 26.57 43 27.84 41.41 20.82"/><path class="ffef9e65-a184-4bed-a08e-09242e6a2cea" d="M62,27.16a.83.83,0,0,1-.08.22c-.43.8-1.3.87-3.22,1.28a13.78,13.78,0,0,1-4,.15s-1.16,0-2,0a11.82,11.82,0,0,1-1.57-.18h0a5.76,5.76,0,0,1-.83-.18,4.66,4.66,0,0,1-.82-.61c-.21-.24-.78-.89-.92-1.1a.51.51,0,0,1-.1-.3V26.3h0a1.57,1.57,0,0,0-.34-.19C48,26,48,25.82,48,25.73v-.05a.55.55,0,0,1,0-.12.26.26,0,0,1,0-.24c.11-.12.37-.09.49-.07s2.06,1.32,2.06,1.32l0-.24a12.47,12.47,0,0,1-2-1.58c0-.21.3-.16.44-.15s2.36,1.2,2.36,1.2l.46,0h.24l-.33-.21a1.81,1.81,0,0,1-.21-.4c0-.07.1-.22.21-.21a6.12,6.12,0,0,1,1.17.59,8,8,0,0,0,1.45,1.12c.41.14.37.06,1.79-.19a9.22,9.22,0,0,0,2.42-.84h0l.17-.1a19.73,19.73,0,0,1-.2-2.57c0-.34.76-.71,1.45-1a3.26,3.26,0,0,1,1.25-.32s0,.07.07.15c.16.5.47,2,.47,2A9.47,9.47,0,0,1,62,27.16" transform="translate(-9.61 -2.38)"/><path class="a15ca564-80e2-4b8d-b2f5-b75b997438a3" d="M61.85,22.6a4.24,4.24,0,0,1-1.6,1l-2.1.69a28.24,28.24,0,0,1-1.55-3,5,5,0,0,1,.19-3.74c.67-1.58,1.66-2.36,2.2-2.36s1.35,2.87,1.49,3.45,1.37,4,1.37,4" transform="translate(-9.61 -2.38)"/><g class="b60f5a07-992f-41d5-a56c-d8af3874a549"><g class="fd1f192d-f8b7-4577-a394-4d92e12f1d46"><path class="b93ee9d5-f267-4e41-bc16-b72431b22829" d="M48.49,26.3l1.6,1.51-.23-.12-1.38-1.3a.31.31,0,0,1,0-.09" transform="translate(-9.61 -2.38)"/></g></g><g class="b60f5a07-992f-41d5-a56c-d8af3874a549"><g class="ac233af5-a8ea-4ed0-952e-7a402963f227"><path class="b93ee9d5-f267-4e41-bc16-b72431b22829" d="M48,25.73v-.05a.55.55,0,0,1,0-.12l1.23.82a13.14,13.14,0,0,1,1,.93L49,26.36Z" transform="translate(-9.61 -2.38)"/></g></g><g class="b60f5a07-992f-41d5-a56c-d8af3874a549"><g class="a02c3fb0-df9e-48e0-9835-79311c488fb3"><path class="b93ee9d5-f267-4e41-bc16-b72431b22829" d="M62,27.16a.83.83,0,0,1-.08.22c-.43.8-1.3.87-3.22,1.28a13.78,13.78,0,0,1-4,.15s-1.16,0-2,0a11.82,11.82,0,0,1-1.57-.18l2.15,0s2.08.16,3.39.1A13,13,0,0,0,60.9,28,2.34,2.34,0,0,0,62,27.16" transform="translate(-9.61 -2.38)"/></g></g><g class="b60f5a07-992f-41d5-a56c-d8af3874a549"><g class="e1a44e30-2950-4928-9f3f-0c5523b99ff2"><path class="b93ee9d5-f267-4e41-bc16-b72431b22829" d="M54.22,26.73l.73.16s.72,0,1,0,3.21-1.32,3.21-1.32l-.54.05-1.16.54L56,26.54l-1,.2-.2,0Z" transform="translate(-9.61 -2.38)"/></g></g><g class="b60f5a07-992f-41d5-a56c-d8af3874a549"><g class="ac233de5-3d33-40d5-a031-23143a23f7d5"><path class="b93ee9d5-f267-4e41-bc16-b72431b22829" d="M52.63,11a7.73,7.73,0,0,1-1.52,1.65,1.72,1.72,0,0,1-1.7.11l-.17-1.06Z" transform="translate(-9.61 -2.38)"/></g></g><path class="f20c7047-be4d-4a51-bc8a-f4db43bc93f9" d="M44.39,16.28c-.47,1.49-.93,3-1.4,4.48a4.84,4.84,0,0,0,1.63.83c.09-.67.17-1.34.25-2S45,18.5,45.05,18a10.68,10.68,0,0,1,.5-3.52,3.75,3.75,0,0,0-1.16,1.84" transform="translate(-9.61 -2.38)"/><path class="f20c7047-be4d-4a51-bc8a-f4db43bc93f9" d="M59.46,23.58A3,3,0,0,0,61,23h0c.14-.08.42-.14.46-.33a.43.43,0,0,0,0-.16,3.75,3.75,0,0,0-.13-.89c-.12-.31-2-6.32-2.73-6.09a2.27,2.27,0,0,0-1.13.94,4.31,4.31,0,0,0-.71,1.5,2.36,2.36,0,0,0,0,.35A4.13,4.13,0,0,0,57.32,20a14,14,0,0,1,.81,1.47c.15.42.43.78.58,1.21s.24.87.75.86" transform="translate(-9.61 -2.38)"/><path class="ae938725-d925-4cec-b7e9-9f9ee355da91" d="M61.61,26a1.48,1.48,0,0,0-.81-.32,2.35,2.35,0,0,0-.65,0c-.33.06-.64.26-1,.34a2.85,2.85,0,0,0-.71.25,5.39,5.39,0,0,1-1,.38,4.16,4.16,0,0,1-1.62.37c-.42,0-.84,0-1.26,0a1,1,0,0,0-.59.1.55.55,0,0,0-.19.56.85.85,0,0,0,.34.49,2.29,2.29,0,0,0,1.41.3c.51,0,1-.1,1.52-.11a12.16,12.16,0,0,0,1.35,0A7.61,7.61,0,0,0,60,28a4.35,4.35,0,0,0,1.06-.39c.18-.11.44-.21.55-.4a1,1,0,0,0,0-1.17" transform="translate(-9.61 -2.38)"/><path class="ae938725-d925-4cec-b7e9-9f9ee355da91" d="M61.44,23.92c0-.33,0-.7-.12-.73s-.47.38-.6.48a1.89,1.89,0,0,1-.81.38,4.2,4.2,0,0,0-.62.07.49.49,0,0,0-.37.44.42.42,0,0,0,.24.34,1.39,1.39,0,0,0,.41.12c.41.07,1.21.07,1.39.55a2.14,2.14,0,0,1,.06.27,1,1,0,0,0,.31.55c.21.18.45.17.52-.14a1,1,0,0,0,0-.34,16.69,16.69,0,0,1-.4-2" transform="translate(-9.61 -2.38)"/><path class="ffef9e65-a184-4bed-a08e-09242e6a2cea" d="M48.76,4.23c-.59.39-.84,1.22-.87,2.76a24,24,0,0,0,.2,3.61c.07.28.46,1.48.57,1.72s1.2.29,1.4.19,2.27-.86,2.68-1.63A12,12,0,0,0,53.5,9a17.39,17.39,0,0,0,.22-2.86C53.64,5.94,53,4,52.2,3.69s-3.44.54-3.44.54" transform="translate(-9.61 -2.38)"/><path class="f09aed09-1fa4-471d-961a-9a5d1ab97fce" d="M53.11,8.58l-.64-.05a5.37,5.37,0,0,0-.08-1.14c-.1-.14-.63-.56-.6-.89a15.63,15.63,0,0,0-.2-1.67,6.24,6.24,0,0,1-1.33,0c-.61-.08-1.72-.15-1.72-.15l-.32.19-.31,1.62a7.56,7.56,0,0,1,.14-1.9c.21-.71.37-1.39,2.09-2A4.6,4.6,0,0,1,54,3.05c.65.16,1,.51,1.31,1.53a7.25,7.25,0,0,1-.37,3.65,11.1,11.1,0,0,1-1.18,1.82l.19-1.11.39-1.47a1,1,0,0,0-.86.19,1.85,1.85,0,0,0-.35.92" transform="translate(-9.61 -2.38)"/><path class="a15ca564-80e2-4b8d-b2f5-b75b997438a3" d="M42.54,21l-1.21,2.55-5,4.47-.17.32s.58-.37,1.15.4.4,1,.33,1.37a2.14,2.14,0,0,1-.13.45S42.82,27.73,43.4,27a39.5,39.5,0,0,0,2.15-4Z" transform="translate(-9.61 -2.38)"/><path class="a15ca564-80e2-4b8d-b2f5-b75b997438a3" d="M55,26.74s.44,0,.21.84a2.06,2.06,0,0,1-1.26,1.48,31.64,31.64,0,0,0,5.4-.29c1.63-.27,2.87-.61,3.31-1.41s-.77-4.76-.77-4.76l-3.7,1.66.35,1.22-.06.21Z" transform="translate(-9.61 -2.38)"/><g class="b60f5a07-992f-41d5-a56c-d8af3874a549"><g class="a34977ae-8071-4449-bc8b-69687be4ed5f"><path class="b93ee9d5-f267-4e41-bc16-b72431b22829" d="M60.72,25.48a6.69,6.69,0,0,0-1.34,0c-.26,0-.6.15-.85,0s-.74-1.82-.82-1.81a.35.35,0,0,1,.24.12,1.89,1.89,0,0,1,.34.51,4.28,4.28,0,0,1,.23.55c0,.1,0,.28.09.36s.3.07.45.05a2.77,2.77,0,0,1,1.66.18" transform="translate(-9.61 -2.38)"/></g></g><path class="f9ff5333-633a-449d-ad5f-8007ae1cfe0c" d="M49.76,34.23h-.1l-1.15-.29a.71.71,0,0,1-.45-.69v-.57a.57.57,0,0,1,.2-.46.42.42,0,0,1,.36-.08l1.14.29a.69.69,0,0,1,.45.69v.57a.58.58,0,0,1-.2.47.41.41,0,0,1-.25.08m-1.25-1.69a.27.27,0,0,0,0,.13v.57a.35.35,0,0,0,.13.29l1.15.29a.2.2,0,0,0,0-.14v-.57a.31.31,0,0,0-.14-.28Z" transform="translate(-9.61 -2.38)"/><path class="af96b582-4a9c-4498-a085-3f859170e3e7" d="M48.37,8.69l-.72-.25-.4-.72v-.9l1.59.69v.8Zm-.49-.51.42.14.21-.17V7.73l-.94-.42v.32Z" transform="translate(-9.61 -2.38)"/><path class="af96b582-4a9c-4498-a085-3f859170e3e7" d="M50.77,9.36l-1.12-.23-.53-.63V7.63l2.22.43v.82Zm-.94-.52.85.17L51,8.73v-.4L49.45,8v.35Z" transform="translate(-9.61 -2.38)"/><rect class="af96b582-4a9c-4498-a085-3f859170e3e7" x="51.14" y="7.68" width="2.91" height="0.32" transform="translate(-9.95 10.59) rotate(-14.02)"/><path class="ffef9e65-a184-4bed-a08e-09242e6a2cea" d="M53.56,7.92c.28-.6.74-.74.94-.55s.29.73-.17,1.41-.54.86-.82.85-.15-.56-.11-.75.16-1,.16-1" transform="translate(-9.61 -2.38)"/><rect class="af96b582-4a9c-4498-a085-3f859170e3e7" x="48.82" y="7.4" width="0.32" height="0.65" transform="translate(16.21 49.19) rotate(-71.12)"/><polygon class="a5c260cf-d8bf-4a92-95bc-771efc74f1a3" points="37.76 20.63 37.46 19.91 39.98 20.49 39.76 21.09 37.76 20.63"/><polygon class="a5c260cf-d8bf-4a92-95bc-771efc74f1a3" points="39.98 20.49 40.25 20.15 40.25 20.07 37.46 19.84 37.46 19.91 39.98 20.49"/><polygon class="f9ff5333-633a-449d-ad5f-8007ae1cfe0c" points="39.98 20.41 40.25 20.08 37.74 19.5 37.46 19.84 39.98 20.41"/><path class="fca687c0-410d-4e3b-8ee9-de678eca1935" d="M55.51,22.5a1.07,1.07,0,1,1-1.07-1.08,1.07,1.07,0,0,1,1.07,1.08" transform="translate(-9.61 -2.38)"/><path class="a5c260cf-d8bf-4a92-95bc-771efc74f1a3" d="M55.22,22.5a.89.89,0,0,1-1.77,0,.89.89,0,1,1,1.77,0" transform="translate(-9.61 -2.38)"/><path class="e2e1b5ea-c492-4173-be6d-3508c5e7764b" d="M55,22.45a.61.61,0,0,1-.61.61.61.61,0,1,1,0-1.22.61.61,0,0,1,.61.61" transform="translate(-9.61 -2.38)"/><path class="b796fbd2-99de-4f87-a7f9-3bfab6f779ce" d="M54.63,22.48a.58.58,0,0,1-.57.54.57.57,0,0,1-.56-.57.57.57,0,1,1,1.13,0Z" transform="translate(-9.61 -2.38)"/></g></g></svg>