<svg xmlns="http://www.w3.org/2000/svg" xmlns:xlink="http://www.w3.org/1999/xlink" viewBox="0 0 92.49 73.01"><defs><style>.e04f9900-e3d1-4745-8d0f-d04c43d393b7{fill:none;}.b482b283-702c-4915-ae37-5fd2831b3ea6{isolation:isolate;}.ad6cac43-2551-4a72-b747-d3597c47119d{fill:#fbd4bf;}.bc4ac88d-289a-4611-abcb-3bb128931a61{mix-blend-mode:multiply;}.b1b06599-9624-4f88-a539-f84bdebab56d{clip-path:url(#befc93fb-9d42-4e60-b51f-c2efbca8167c);}.f038ed34-5498-434f-862b-e47fec6f964e{fill:#f2d5d5;}.fa7cdc7c-15b7-41c1-bfa3-28696be50b11{clip-path:url(#effb7a97-068c-4689-961a-bce1c1e2de79);}.bbee7f7a-a1ac-4ffb-833a-b899f4997302{clip-path:url(#af003085-ef53-4201-ab83-6c49517c68db);}.a0e4f0f3-33d2-49d7-b4c8-1d02d174201f{clip-path:url(#e0d2b7bb-c5f2-4a4d-becd-fbc5452004ec);}.bcbc62fa-1f7d-4429-bf9e-faeeca629b8c{clip-path:url(#b8179585-b4a5-4549-a5be-81c346026726);}.b821de42-1953-4230-9901-7682f4cdbbe8{clip-path:url(#a14efe77-27a0-4b81-943d-0a92120826ce);}.b0dfa39f-1c3e-447b-a381-f78ba47be107{clip-path:url(#ecc7ce92-71e3-480b-bc27-5ca1603a9b6e);}.edf0f1d9-b52d-4e09-ada8-63fba265f3ed{fill:#fcdbc9;}.b46e0e93-0930-40d1-a31c-be205259fc2f{clip-path:url(#ece9c379-4b0b-468d-a7a4-436fbc4899b1);}.aea670ab-1661-4f15-b808-e23f1482a11b{clip-path:url(#aaa01578-2fdb-40a0-8ac7-05efd1eaaa73);}.f0f1f249-1dad-4b16-915c-f7b23ba63b8d{clip-path:url(#b0e254ec-e301-4f4e-b37b-497faa581e1a);}.e3aa06ad-9146-4fde-b608-577d6566b1a5{clip-path:url(#a434494b-f46a-444c-a6b1-de11c0de8b13);}.a65378f2-567b-4ea6-9f00-1d4011b1ca0a{fill:#e0acb5;}.a99cf010-9751-48ce-9347-46eec15b54ae{fill:#d62040;}.bdb66bb2-6bba-47cc-9b43-2ca7b66c992e{fill:#e73251;}.ed4ec0d8-f21e-46cc-b5ed-2438c821345e{fill:#e94259;}.fa1ca79e-7dda-4244-8217-ec400be64f49{fill:#efe400;}</style><clipPath id="befc93fb-9d42-4e60-b51f-c2efbca8167c" transform="translate(-2.74 -7.83)"><rect class="e04f9900-e3d1-4745-8d0f-d04c43d393b7" x="73.68" y="37.98" width="21.56" height="14.05"/></clipPath><clipPath id="effb7a97-068c-4689-961a-bce1c1e2de79" transform="translate(-2.74 -7.83)"><rect class="e04f9900-e3d1-4745-8d0f-d04c43d393b7" x="78.3" y="51.17" width="16.3" height="13.9"/></clipPath><clipPath id="af003085-ef53-4201-ab83-6c49517c68db" transform="translate(-2.74 -7.83)"><rect class="e04f9900-e3d1-4745-8d0f-d04c43d393b7" x="75.69" y="55.35" width="13.87" height="16.9"/></clipPath><clipPath id="e0d2b7bb-c5f2-4a4d-becd-fbc5452004ec" transform="translate(-2.74 -7.83)"><rect class="e04f9900-e3d1-4745-8d0f-d04c43d393b7" x="57.9" y="58.77" width="26.98" height="15.69"/></clipPath><clipPath id="b8179585-b4a5-4549-a5be-81c346026726" transform="translate(-2.74 -7.83)"><rect class="e04f9900-e3d1-4745-8d0f-d04c43d393b7" x="40.06" y="42.98" width="42.1" height="37.86"/></clipPath><clipPath id="a14efe77-27a0-4b81-943d-0a92120826ce" transform="translate(-2.74 -7.83)"><rect class="e04f9900-e3d1-4745-8d0f-d04c43d393b7" x="29.01" y="58.4" width="15.18" height="16.25"/></clipPath><clipPath id="ecc7ce92-71e3-480b-bc27-5ca1603a9b6e" transform="translate(-2.74 -7.83)"><rect class="e04f9900-e3d1-4745-8d0f-d04c43d393b7" x="60.87" y="41.61" width="18.06" height="3.84"/></clipPath><clipPath id="ece9c379-4b0b-468d-a7a4-436fbc4899b1" transform="translate(-2.74 -7.83)"><rect class="e04f9900-e3d1-4745-8d0f-d04c43d393b7" x="30.18" y="21.04" width="39.72" height="46.19"/></clipPath><clipPath id="aaa01578-2fdb-40a0-8ac7-05efd1eaaa73" transform="translate(-2.74 -7.83)"><rect class="e04f9900-e3d1-4745-8d0f-d04c43d393b7" x="14.61" y="24.01" width="24.95" height="13.23"/></clipPath><clipPath id="b0e254ec-e301-4f4e-b37b-497faa581e1a" transform="translate(-2.74 -7.83)"><rect class="e04f9900-e3d1-4745-8d0f-d04c43d393b7" x="2.81" y="36.3" width="27.89" height="15.09"/></clipPath><clipPath id="a434494b-f46a-444c-a6b1-de11c0de8b13" transform="translate(-2.74 -7.83)"><rect class="e04f9900-e3d1-4745-8d0f-d04c43d393b7" x="35.84" y="37.9" width="38.99" height="29.56"/></clipPath></defs><title>contenido_especializado</title><g class="b482b283-702c-4915-ae37-5fd2831b3ea6"><g id="ad3224e5-6f42-46d2-ac73-a2f31c838871" data-name="Capa 1"><path class="ad6cac43-2551-4a72-b747-d3597c47119d" d="M94.06,59.27c.85,2,1,3.1.74,4a1.17,1.17,0,0,1-.19.41h0A3.1,3.1,0,0,1,91.46,65h0c1.69,3,1,4.11.55,5.12a2.86,2.86,0,0,1-2.2,1.18l-.1,0h-.18a2,2,0,0,1-1.13-.14,4.38,4.38,0,0,0,.44,1.08h0a2.42,2.42,0,0,1-1.59,2.23,3.36,3.36,0,0,1-2.38,0,6.47,6.47,0,0,1-1.52-.76c-.45-.31-3.92-3.23-4.17-3.43.17.19,2.33,2.58,2.61,3s-.22.84-.22.84a6.57,6.57,0,0,1,.58,2.48h0a2.1,2.1,0,0,1-.22.94c-.67,1.23-1.3,1.34-2.65,1.17s-5-.41-5-.41.37,1.32-1.71,2.3S67.89,79,66.26,78.85s-4.94.25-7.66-.46-8-2.56-8-2.56a5.63,5.63,0,0,1-1.87,2.11,2.88,2.88,0,0,1-.63.32h0s0,0-.06,0h0c-1,.28-1.59-.37-2.14-1.18l-1.68-2.46s-5-.29-6.31-.88a6.87,6.87,0,0,1-2.36-2.33S30.25,63.05,29,60.1h0a4.83,4.83,0,0,1-.19-.5c-.69-2.31-.71-7.51-.71-7.51l-.53-.68c-.77-1-2.18-2.78-2.88-3.46-.53-.53-11.24-4.86-20.87-8.68a7.43,7.43,0,0,1-1-3,8.71,8.71,0,0,1,.14-2.87,14.41,14.41,0,0,1,3-5.94,8.86,8.86,0,0,1,5.86-3.56,8.33,8.33,0,0,1,2.8.08,9.74,9.74,0,0,1,2.7.93s0,0,0,0l.08,0c7.79,4.73,15.38,9.29,16.42,9.72,1.6.66,3,1.4,4.19,1.93.46.2.88.38,1.27.51l.28.08.29.08.5.13h.07l.36.09.22.06.42.1.2.05,0,0h0c.14,0,.28.07.41.12a6.64,6.64,0,0,1,2.35,1c-.21-.3-.45-.61-.68-.93-.78-1-1.63-2.11-2.49-3.17-.59-.73-1.19-1.45-1.77-2.14C37.24,30,35.33,27.9,35.33,27.9l-5.11-5.79h0a9.45,9.45,0,0,1,0-1.06,8.94,8.94,0,0,1,.34-2.2c1.38-4.95,6.61-8.46,10.12-9.93q.76-.32,1.47-.54a8.68,8.68,0,0,1,7.11.5c3.17,4.57,6.68,9.45,9,12.73l1.59,2.22c.69,1,1.1,1.55,1.14,1.63a1.46,1.46,0,0,0,.62.73s2.28.32,4.51.69a32.59,32.59,0,0,1,3.84.8c1.59.56,8.15,2,8.87,2.75.31.3,1.1,1.18,2,2.17l.31.36.74.85h0c.85,1,1.6,1.87,1.84,2.22.57.86,4.48,5.68,4.75,6.19S89.59,44.28,90,45s4.12,3.64,4.76,4.26a2.34,2.34,0,0,1,.24.31,1.37,1.37,0,0,1-.56,2,5,5,0,0,1-4.7-.31l.34.59c.9,1.55,3.31,5.75,4,7.41" transform="translate(-2.74 -7.83)"/><g class="bc4ac88d-289a-4611-abcb-3bb128931a61"><g class="b1b06599-9624-4f88-a539-f84bdebab56d"><path class="f038ed34-5498-434f-862b-e47fec6f964e" d="M90.06,51.86l-.35-.59a5,5,0,0,0,4.71.3,1.36,1.36,0,0,0,.56-2,2.47,2.47,0,0,1-.44,1.34,5,5,0,0,1-3.4.41c-1.38-.37-6.63-2.69-8-4.36a60.4,60.4,0,0,0-4.53-4.63l-1.77-1.73a10.44,10.44,0,0,1-1.29-.37C74.88,40,73.68,38,73.68,38l.64,2.26,2.2.83,1.73,1.48,1.62,1.65s2.74,3.08,3.25,3.6a28.83,28.83,0,0,0,3.48,2.12s1.31.77,3.46,1.94" transform="translate(-2.74 -7.83)"/></g></g><g class="bc4ac88d-289a-4611-abcb-3bb128931a61"><g class="fa7cdc7c-15b7-41c1-bfa3-28696be50b11"><path class="f038ed34-5498-434f-862b-e47fec6f964e" d="M78.86,52l4.36,4,2.37,3s2,3,2.68,3.87a6.24,6.24,0,0,0,2.78,1.88,2,2,0,0,1,.41.16,3.1,3.1,0,0,0,3.15-1.26A3.44,3.44,0,0,1,92,64.78a9.64,9.64,0,0,1-3.2-1.87,36.58,36.58,0,0,1-2.66-3.68s-2.53-3.32-2.67-3.37S79.39,52,79.39,52l-1.09-.85Z" transform="translate(-2.74 -7.83)"/></g></g><g class="bc4ac88d-289a-4611-abcb-3bb128931a61"><g class="bbee7f7a-a1ac-4ffb-833a-b899f4997302"><path class="f038ed34-5498-434f-862b-e47fec6f964e" d="M77.87,60a60.66,60.66,0,0,0,4.7,5.81c1.2,1.32,2.81,3.82,3.32,4.5a10.52,10.52,0,0,0,3,2,4.27,4.27,0,0,1-.45-1.08,2.24,2.24,0,0,0,1.16.14,4.68,4.68,0,0,1-2.21-.77,22.45,22.45,0,0,1-3.23-3.77c-1.36-1.91-3.49-3.87-4.8-5.63s-3.63-5.79-3.63-5.79,1.55,3.53,2.18,4.64" transform="translate(-2.74 -7.83)"/></g></g><g class="bc4ac88d-289a-4611-abcb-3bb128931a61"><g class="a0e4f0f3-33d2-49d7-b4c8-1d02d174201f"><path class="f038ed34-5498-434f-862b-e47fec6f964e" d="M81.57,74.14s.52-.38.22-.84-2.43-2.84-2.6-3c.24.2,3.72,3.12,4.17,3.43a6.47,6.47,0,0,0,1.52.76,5.41,5.41,0,0,1-1-.68c-.41-.46-3.51-2.94-3.51-2.94s-2.35-1.92-3.57-2.8-4.49-4.09-5-4.53S67.06,59,66.85,58.77c.1.15,1.77,2.53,2.66,3.51s5.37,5,5.37,5l4.94,4.14a13.73,13.73,0,0,1,1.46,1.9c-.12.05-2.79-1-2.91-1s-6.45-.52-6.84-.61-12.14-6.23-12.14-6.23l-1.15-.7-.35,1.54s1.27-.08,1.48-.06,6.72,3.07,6.72,3.07,5.13,2.63,5.35,2.71,5.71.47,6.17.44a29.64,29.64,0,0,1,4,1.68" transform="translate(-2.74 -7.83)"/></g></g><path class="ad6cac43-2551-4a72-b747-d3597c47119d" d="M48.1,78.26l-.08,0,.08,0Z" transform="translate(-2.74 -7.83)"/><g class="bc4ac88d-289a-4611-abcb-3bb128931a61"><g class="bcbc62fa-1f7d-4429-bf9e-faeeca629b8c"><path class="f038ed34-5498-434f-862b-e47fec6f964e" d="M48.1,78.26a3.12,3.12,0,0,0,.63-.32,5.63,5.63,0,0,0,1.87-2.11s5.28,1.84,8,2.56,6,.26,7.66.46,4.21,2.75,6.29,1.77,1.7-2.3,1.7-2.3,3.69.24,5,.41,2,.07,2.65-1.18a2,2,0,0,0,.21-.92,2.34,2.34,0,0,1-2.32,1.45c-.61.09-4.76-.33-4.76-.33s-.15-.19-.31-.36A6.38,6.38,0,0,0,72,73.94a54.39,54.39,0,0,0-6.39-1.87s-8.64-3.52-9-3.7-7.35-3.82-7.39-3.8c.14.12,6.49,4,6.85,4.13s7.61,3,8.25,3.31,4.22.91,6.73,2,3.16,2.8,3.19,3.88a2.43,2.43,0,0,1-2.16,2.26c-1.15.12-4.68-1.39-5.94-1.78s-14-3.62-15.13-3.1c-.08-.44-1.23-5.31-2.74-7.51a18.33,18.33,0,0,0-4-3.9c-.48-.47-3.3-6.2-3.3-6.2s4-1.51,4.41-3.58.81-5.13-.2-11.06c.34,3.62.08,8.56-.6,10s-3.13,3-3.26,3.06a18.33,18.33,0,0,1-1.3-2.58,31.42,31.42,0,0,0,.54,4.62c.31.69,3.34,5.93,3.34,5.93s1,.83,2.34,2.17a19.46,19.46,0,0,1,3.22,5.4A9.93,9.93,0,0,1,50.1,76c-.28,1-2,2.22-2,2.25" transform="translate(-2.74 -7.83)"/></g></g><g class="bc4ac88d-289a-4611-abcb-3bb128931a61"><g class="b821de42-1953-4230-9901-7682f4cdbbe8"><path class="f038ed34-5498-434f-862b-e47fec6f964e" d="M35.52,71.44a6.87,6.87,0,0,0,2.36,2.33c1.29.58,6.31.88,6.31.88a13.12,13.12,0,0,0-.95-1.21c-.17-.12-3.42-3-4.13-3.62S34,63.17,33.53,62.74s-4.17-4.11-4.4-4.34l3.36,3.86s5.32,7.55,5.36,7.65,4.62,4,4.62,4-4.59-.17-5.32-1S29.5,60.89,29,60.1c1.24,2.95,6.51,11.34,6.51,11.34" transform="translate(-2.74 -7.83)"/></g></g><g class="bc4ac88d-289a-4611-abcb-3bb128931a61"><g class="b0dfa39f-1c3e-447b-a381-f78ba47be107"><path class="f038ed34-5498-434f-862b-e47fec6f964e" d="M60.87,41.61s4.87,3.68,10.21,3.33,7.17-2.39,7.17-2.39l.68.37a10.7,10.7,0,0,1-5.24,2.32,16.19,16.19,0,0,1-12.82-3.63" transform="translate(-2.74 -7.83)"/></g></g><path class="edf0f1d9-b52d-4e09-ada8-63fba265f3ed" d="M60,28.3a8.42,8.42,0,0,1,4.52-.74,12.87,12.87,0,0,1,2.11.56,14.31,14.31,0,0,0,3.65,1,14.32,14.32,0,0,1,3.72.71,2.83,2.83,0,0,1,.84.4,3.12,3.12,0,0,1,.81,1.14,2.41,2.41,0,0,1,.3.81,4.62,4.62,0,0,1-.43,2,7.9,7.9,0,0,1-2,3.17,6.43,6.43,0,0,1-4.95,1.22,19.2,19.2,0,0,1-5-1.61L61.41,36a19.63,19.63,0,0,1-1.8-.84c-1.17-.66-3.48-2.2-3.4-3.77S58.85,28.8,60,28.3" transform="translate(-2.74 -7.83)"/><path class="edf0f1d9-b52d-4e09-ada8-63fba265f3ed" d="M75.24,30.16a7,7,0,0,1,1.89.71,17.57,17.57,0,0,1,4.73,4.57l4.79,6a.56.56,0,0,1,.15.32.44.44,0,0,1-.14.27c-2,2.31-4.75.35-6.21-1.39-1.1-1.31-1.91-3-3.73-3.4a12.61,12.61,0,0,0-1.85-.19,10.55,10.55,0,0,1-2.55-.55,5.5,5.5,0,0,1-2.18-1.3,2.89,2.89,0,0,1-.84-2.33c.12-.75.57-1,1.08-1.51s.6-1,1.1-1.28c1.06-.66,2.64-.24,3.76,0" transform="translate(-2.74 -7.83)"/><path class="edf0f1d9-b52d-4e09-ada8-63fba265f3ed" d="M89,49.81l-.61-.28c-.64-.32-1.12-.83-1.73-1.19A8,8,0,0,1,84.45,46a8.5,8.5,0,0,1-1.87-3.7,2,2,0,0,1,2-2.34c1.73-.06,2.64,2.1,3.33,3.37A14.19,14.19,0,0,0,89.2,44.9c.42.55.82,1.12,1.26,1.66a4.21,4.21,0,0,0,1.35,1,10.27,10.27,0,0,1,1.66,1.36,2.14,2.14,0,0,1,.65.79.22.22,0,0,1,0,.16A.33.33,0,0,1,94,50a3.67,3.67,0,0,1-3.83.32c-.41-.17-.83-.31-1.24-.48" transform="translate(-2.74 -7.83)"/><g class="bc4ac88d-289a-4611-abcb-3bb128931a61"><g class="b46e0e93-0930-40d1-a31c-be205259fc2f"><path class="f038ed34-5498-434f-862b-e47fec6f964e" d="M69.9,67.23l-1.12-.73L68,66l-2.78-1.81s0,0,0,0l-1.08-.71-1.69-1.1a8.8,8.8,0,0,0-2.18.42c-.61.28-1.09,1.73-1.25,2.24,0,.09,0,.15-.05.17V65l-.07-1.68,1.27-1.57-1.5-2c-.72-1-1.46-2-1.58-2.26s-.6-1.07-1.32-2.27c-1.52-2.54-3.87-6.41-4.41-7.35-.65-1.15-3.29-4.76-4.71-6.58-.31-.38-.56-.69-.72-.87a17.5,17.5,0,0,0-4-2.51l-.23-.12c.14,0,.28.07.41.12a6.64,6.64,0,0,1,2.35,1c-.21-.3-.45-.61-.68-.93-.78-1-1.63-2.11-2.49-3.17-.59-.73-1.19-1.45-1.77-2.14C37.24,30,35.33,27.9,35.33,27.9l-5.11-5.79h0a9.45,9.45,0,0,1,0-1.06c3.46,4,7.1,8.2,9.61,11.1l1.76,2c.9,1,1.42,1.65,1.42,1.65l2.13-.94L44,37.5a9.43,9.43,0,0,1,.82.71,25.83,25.83,0,0,1,2,2.16c.74.9,1.59,2,2.55,3.46,3.16,4.75,4.14,6.56,5.65,9,.39.64.88,1.42,1.4,2.23C57.84,57.4,59.52,60,59.52,60l.43.39a6.42,6.42,0,0,0,1.71,1.21c.33,0,4.06,2.68,6.43,4.37l.74.54,1.07.76" transform="translate(-2.74 -7.83)"/></g></g><path class="ad6cac43-2551-4a72-b747-d3597c47119d" d="M41.63,37.77l-.2-.05.2.05" transform="translate(-2.74 -7.83)"/><path class="ad6cac43-2551-4a72-b747-d3597c47119d" d="M41.43,37.72c-.56-.14-1.1-.27-1.57-.4.7.19,1.26.33,1.57.4" transform="translate(-2.74 -7.83)"/><g class="bc4ac88d-289a-4611-abcb-3bb128931a61"><g class="aea670ab-1661-4f15-b808-e23f1482a11b"><path class="f038ed34-5498-434f-862b-e47fec6f964e" d="M39.57,37.24,38,36.83a32.29,32.29,0,0,1-4.45-1.35C33.2,35.23,23.25,29.22,14.61,24a9.74,9.74,0,0,1,2.7.93s0,0,0,0l.08,0c7.79,4.73,15.38,9.29,16.42,9.72,1.6.66,3,1.4,4.19,1.93.46.2.88.38,1.27.51l.28.08" transform="translate(-2.74 -7.83)"/></g></g><path class="edf0f1d9-b52d-4e09-ada8-63fba265f3ed" d="M53,28a15.28,15.28,0,0,0-1.9,1.05c-.48.26-6.36,3.59-6.11,4A12.85,12.85,0,0,0,43.28,31c-.54-.55-1.11-1.07-1.71-1.58-1.26-1.08-2.57-2.11-3.66-3.13-2.17-2-4.26-4.13-6.31-6.28l-1.07-1.14c1.38-4.95,6.61-8.46,10.12-9.93q.76-.32,1.47-.54c4.07,5,10.21,10.78,12.08,16.11a.49.49,0,0,0,0,.11,11.6,11.6,0,0,1,.36,1.34c.27,1.38-.45,1.66-1.58,2.11" transform="translate(-2.74 -7.83)"/><g class="bc4ac88d-289a-4611-abcb-3bb128931a61"><g class="f0f1f249-1dad-4b16-915c-f7b23ba63b8d"><path class="f038ed34-5498-434f-862b-e47fec6f964e" d="M30.69,42.94c-.34,3.17-2.82,5.38-3.11,8.46-.77-1-2.19-2.78-2.88-3.46-.53-.53-11.24-4.86-20.87-8.69a7.3,7.3,0,0,1-1-3l.07,0C4.33,37,21.66,44.51,26.73,46a1.52,1.52,0,0,0,.73.08,1.44,1.44,0,0,0,.7-.46c.89-.84,1.73-1.72,2.53-2.64" transform="translate(-2.74 -7.83)"/></g></g><path class="edf0f1d9-b52d-4e09-ada8-63fba265f3ed" d="M35.84,38.9a11.5,11.5,0,0,0-6.5,4.36,1.07,1.07,0,0,1-.4.39,1,1,0,0,1-.67,0A137.43,137.43,0,0,1,2.94,33.43a14.41,14.41,0,0,1,3-5.94,8.86,8.86,0,0,1,5.86-3.56c1.44.7,2.88,1.39,4.32,2.15,2,1.07,3.89,2.42,5.9,3.53,4.69,2.6,10.58,5,13.81,9.29" transform="translate(-2.74 -7.83)"/><path class="edf0f1d9-b52d-4e09-ada8-63fba265f3ed" d="M36.37,40.27a3.87,3.87,0,0,1,4.11.64,4.15,4.15,0,0,1,.87,1.51,7.73,7.73,0,0,1,.43,3.09c-.27,4.14-3.74,7.36-4.92,11.34-.22.73-.44,1.58-1.13,1.89a2.06,2.06,0,0,1-1.13.09,4.32,4.32,0,0,1-3.05-1.47,4.28,4.28,0,0,1-.63-2.7c0-.94.22-1.88.2-2.82,0-.71-.17-1.41-.25-2.12a10.36,10.36,0,0,1,.5-5.24,10.93,10.93,0,0,1,5-4.21" transform="translate(-2.74 -7.83)"/><path class="edf0f1d9-b52d-4e09-ada8-63fba265f3ed" d="M42.43,68.06a2.65,2.65,0,0,1-2.67-.62,30.24,30.24,0,0,1-4.4-5c-1.28-1.72-2.73-3.26-4-5a1,1,0,0,1-.28-.76.82.82,0,0,1,.27-.4,3.94,3.94,0,0,1,2.54-1.29,5.49,5.49,0,0,1,2.09.51,13.23,13.23,0,0,1,2.65,1.28,9.64,9.64,0,0,1,2.16,2.21A17.41,17.41,0,0,1,43,63.1,5.61,5.61,0,0,1,43.37,67a1.79,1.79,0,0,1-.94,1.09" transform="translate(-2.74 -7.83)"/><path class="edf0f1d9-b52d-4e09-ada8-63fba265f3ed" d="M46,66.75a26.75,26.75,0,0,1,2.71,4.85,1.63,1.63,0,0,1,.22.8.56.56,0,0,1-.53.54c-.88-1.33-2-2.81-3.6-2.85-.47,0-.93.1-1.39.06a4.11,4.11,0,0,1-2.31-1.37c-1.33-1.28-2.67-2.71-3-4.52a1,1,0,0,1,.05-.69,1,1,0,0,1,.46-.32,3.52,3.52,0,0,1,3.63.17A16.45,16.45,0,0,1,46,66.75" transform="translate(-2.74 -7.83)"/><path class="edf0f1d9-b52d-4e09-ada8-63fba265f3ed" d="M53.1,68a20.89,20.89,0,0,0,5.84,2.68c2.65.67,5.19,1.47,7.79,2.37a14.78,14.78,0,0,1,5.69,3c.66.64,1.22,1.64.78,2.45a1.74,1.74,0,0,1-1.69.75,5.3,5.3,0,0,1-1.83-.66c-1.38-.67-2.78-1.29-4.21-1.84a10.81,10.81,0,0,0-3.2-.84c-.77-.06-1.56,0-2.34,0a8.62,8.62,0,0,1-2.71-.47,27.69,27.69,0,0,0-3.29-1.23c-1.47-.31-2.79-.54-3.29-2.2A13.48,13.48,0,0,0,49,68.34a7.83,7.83,0,0,0-.74-.88,16.1,16.1,0,0,1-2-2,7.77,7.77,0,0,0,1.74.34c.63.2,1.18.54,1.78.79A21.78,21.78,0,0,1,53.1,68" transform="translate(-2.74 -7.83)"/><path class="edf0f1d9-b52d-4e09-ada8-63fba265f3ed" d="M74,72.89a2.19,2.19,0,0,0,.36,0c2.41.06,5.07-.31,6.53,2.1a1.26,1.26,0,0,1-.63,2,3.19,3.19,0,0,1-1.71.13A10.14,10.14,0,0,0,76.85,77a2.24,2.24,0,0,1-.73,0c-.41-.14-.62-.59-.82-1a7.3,7.3,0,0,0-1.82-2.37,7,7,0,0,0-3-.73,29.52,29.52,0,0,1-7.84-2.61c-1.17-.56-2.38-1-3.54-1.63a17.39,17.39,0,0,0-3.69-1.58c.14,0,.68-.27.86-.31a3.64,3.64,0,0,1,1.14-.09c2.09.13,4.15,1.22,6.07,2,2.33,1,4.27,2.58,6.73,3.34a17.9,17.9,0,0,0,2.28.52c.52.09,1,.26,1.55.33" transform="translate(-2.74 -7.83)"/><path class="edf0f1d9-b52d-4e09-ada8-63fba265f3ed" d="M47.37,47.75c0-1.54-.69-3-.76-4.54a6.88,6.88,0,0,1,1.1,1.51c1,1.61,2.31,3,3.38,4.58,2.23,3.25,3.44,7.2,6.15,10.07.58.62,1.29,1.38,1,2.19a7.27,7.27,0,0,0-.33.76c-.06.23,0,.47-.08.7a1.89,1.89,0,0,1-.3.58,19.64,19.64,0,0,1-1.52,1.89,1.62,1.62,0,0,1-.57.44,1.8,1.8,0,0,1-1.37-.35,7.37,7.37,0,0,0-2.62-.83,2.15,2.15,0,0,1-1.2-.33,2,2,0,0,1-.55-1.14q-.74-3-1.75-6a9.47,9.47,0,0,0-1.55-2.57,1.85,1.85,0,0,1-.31-1.82,21.34,21.34,0,0,0,1.24-5.19" transform="translate(-2.74 -7.83)"/><path class="edf0f1d9-b52d-4e09-ada8-63fba265f3ed" d="M63.86,63.32a15.29,15.29,0,0,1,2.58,1.8,66.38,66.38,0,0,0,6.09,4.32,6.93,6.93,0,0,1,2.17,1.81A6,6,0,0,1,71,70.7a30.76,30.76,0,0,1-3.26-1.94,30.45,30.45,0,0,0-4-2.12,25.57,25.57,0,0,1-3.61-1.43c-.13-.08-.28-.2-.28-.35a.47.47,0,0,1,.06-.2,3,3,0,0,1,4-1.34" transform="translate(-2.74 -7.83)"/><path class="edf0f1d9-b52d-4e09-ada8-63fba265f3ed" d="M93.44,60.43a9.32,9.32,0,0,0-1.26-2.5c-.66-1.15-1.2-2.4-1.78-3.59s-1-2.5-2.27-3.15c-.68-.34-1.42-.33-2.11-.7a9,9,0,0,1-3.88-3.08c-.67-1.06-1.13-.07-1.17.74a8.26,8.26,0,0,0,.12,2.33c.48,1.69,2.29,3.31,3.51,4.49s2.16,3.41,3.11,5.06a7.78,7.78,0,0,0,.7,1.06c.31.38.69.69,1,1a9.56,9.56,0,0,0,.89.91c.67.52,2,1,2.76.39.93-.74.6-2,.36-3" transform="translate(-2.74 -7.83)"/><path class="edf0f1d9-b52d-4e09-ada8-63fba265f3ed" d="M83.35,58c.55.66,1.17,1.26,1.78,1.87L89,63.69a10.49,10.49,0,0,1,1.77,2.06,3.59,3.59,0,0,1,.52,2.62,2.18,2.18,0,0,1-1.87,1.72,3.59,3.59,0,0,1-2.6-1.55c-1.82-2-3.57-4.11-5.42-6.11a21.51,21.51,0,0,1-2.68-2.81c-.67-1.07-1.29-2.2-1.91-3.31s-.57-2.53,1-2.81c1.24-.22,2.52.7,3.3,1.57s1.47,2,2.25,2.93" transform="translate(-2.74 -7.83)"/><path class="edf0f1d9-b52d-4e09-ada8-63fba265f3ed" d="M74,56.41c1.28.4,1.84,1.42,2.53,2.46L79,62.63c.31.47.63.94,1,1.37.85,1.06,1.92,1.83,2.82,2.84,1.6,1.8,3.18,3.62,4.7,5.49.12.15.24.33.16.5a.43.43,0,0,1-.21.19,3.88,3.88,0,0,1-4-.68c-1.16-.86-2-2.06-3.12-3-1.35-1.15-3-1.88-4.31-3a24.21,24.21,0,0,1-3.91-3.6,15.72,15.72,0,0,0-2-2.64c-.49-.44-1.16-.8-1-1.54.33-1.66,3.56-2.55,4.94-2.11" transform="translate(-2.74 -7.83)"/><path class="edf0f1d9-b52d-4e09-ada8-63fba265f3ed" d="M66.86,61a13.2,13.2,0,0,1,3.56,2.81q3.09,3,6.29,6a9.07,9.07,0,0,1,1.15,1.17c-.15.25-.53.14-.78,0A40.11,40.11,0,0,1,71.44,67a33.51,33.51,0,0,0-2.63-2.13c-1.65-1.12-3.56-1.81-5.19-2.95-.25-.17-1-.54-.84-.89s1-.42,1.24-.46a5,5,0,0,1,2.84.44" transform="translate(-2.74 -7.83)"/><path class="edf0f1d9-b52d-4e09-ada8-63fba265f3ed" d="M46.63,38.15a1.53,1.53,0,0,1-.32-.94,1.25,1.25,0,0,1,.42-.71,4.92,4.92,0,0,1,7.15.1c.52.56.9,1.24,1.38,1.84a22.54,22.54,0,0,0,3.93,3.34c.64.52,1.26,1.07,1.88,1.61a5.07,5.07,0,0,0,2,1.11L68,46.14a10.93,10.93,0,0,0,2.38.6,18.24,18.24,0,0,1,2.77.18,4.3,4.3,0,0,1,2.39,1.74,4,4,0,0,1,.81,2.18,2.56,2.56,0,0,1-.87,2.09,3.7,3.7,0,0,1-.84.49c-1.37.63-2.85.9-4.22,1.47-1.21.51-2.34,1.39-3.51,2-.56.31-1.12.61-1.65,1a13.38,13.38,0,0,1-1.93,1.27,2.38,2.38,0,0,1-2.13,0c-.64-.37-1-1.15-1.46-1.68a28.3,28.3,0,0,1-3-3.92,22.09,22.09,0,0,1-1.22-2.18,36.82,36.82,0,0,0-2.88-5.14,40.66,40.66,0,0,0-3.66-4.4,19.22,19.22,0,0,1-2.43-3.7" transform="translate(-2.74 -7.83)"/><path class="ad6cac43-2551-4a72-b747-d3597c47119d" d="M45.12,70.5a1.65,1.65,0,0,1,1.56.57,8.27,8.27,0,0,1,1.87,3.3,3.31,3.31,0,0,1,.22.94,3.58,3.58,0,0,1-.1.8,3,3,0,0,1-.4,1.12,2.56,2.56,0,0,1-1,.86c-.52.15-1.08-.8-1.31-1.16-.42-.69-.9-1.35-1.34-2a3.27,3.27,0,0,1-.66-2.51c.13-.68.44-1.65,1.18-1.89" transform="translate(-2.74 -7.83)"/><g class="bc4ac88d-289a-4611-abcb-3bb128931a61"><g class="e3aa06ad-9146-4fde-b608-577d6566b1a5"><path class="a65378f2-567b-4ea6-9f00-1d4011b1ca0a" d="M67.26,49s9.81,4.07,7.09,9.37c-3.11,6-4.66,8.64-8.29,9S50.43,66.51,45,62.3c-4.21-3.26-4.33-5.78-4.33-5.78s-4.9-8.42-4.8-12.07,2.31-7.1,7.74-6.47S67.26,49,67.26,49" transform="translate(-2.74 -7.83)"/></g></g><path class="a99cf010-9751-48ce-9347-46eec15b54ae" d="M55.73,27.3A41.81,41.81,0,0,1,59.23,20a15.25,15.25,0,0,1,3.7-4.14,12.44,12.44,0,0,1,4.74-2.16,10.93,10.93,0,0,1,2.75-.22,10.37,10.37,0,0,1,2.7.48l.86.27a8.84,8.84,0,0,0-7.17,1c-3.9,2.25-6.37,6.87-8,11.21l-.86-.27a1.67,1.67,0,0,0-2.18,1.16" transform="translate(-2.74 -7.83)"/><path class="a99cf010-9751-48ce-9347-46eec15b54ae" d="M57,64.36A33.67,33.67,0,0,1,53.67,63a28.79,28.79,0,0,1-4.8-2.9,23.91,23.91,0,0,1-3.77-3.52c-.25-.29-.49-.58-.72-.89s-.6-.8-.88-1.21A22.43,22.43,0,0,1,40.84,49a24.65,24.65,0,0,1-1-4,16.66,16.66,0,0,1,0-4.58,19.89,19.89,0,0,1,.4-2.24c0-.24.11-.48.17-.71a25.29,25.29,0,0,1,.87-2.63l.27-.63a0,0,0,0,1,0,0A21,21,0,0,1,43.28,31a16,16,0,0,1,5.29-5.24A9.34,9.34,0,0,1,50.26,25a7.62,7.62,0,0,1,.9-.26l.36-.07a8.3,8.3,0,0,1,2.72,0,8.12,8.12,0,0,1,1.09.23c.11,0,.22.07.33.09l-.86-.26-.6-.17a11.22,11.22,0,0,0-4-.34,10.71,10.71,0,0,0-4.3,1.42h0c-.61.37-.63.38-1,.6l-.43.32-.45.35-.4.35-.42.37-.38.37-.38.4-.35.4-.35.41-.21.26-.11.15c-.1.14-.23.31-.33.43l-.29.44-.3.45-.28.45c-.07.13-.19.32-.26.46l-.2.37,0,.09a5.06,5.06,0,0,0-.24.46h0l-.22.47-.22.48-.2.49c-.06.15-.14.34-.19.49l-.19.49c0,.15-.11.34-.16.5l-.15.49-.14.5v0l0,.18-.07.28c0,.15-.09.34-.12.49l-.1.5c0,.15-.06.35-.08.5l-.07.5c0,.15,0,.35-.07.49l0,.29v.21c0,.15,0,.35,0,.5v1.47c0,.15,0,.35,0,.49l.05.48c0,.15,0,.34.06.49l.13.71c0,.21.09.49.14.71l.16.68.17.69.19.65c.07.21.14.48.22.67l.21.63c.07.19.17.45.25.64l.26.61c.07.19.19.44.27.62l.28.58.07.13.24.47.32.56c.09.17.23.4.33.57l.34.53.36.56.36.5.4.53.38.48a.45.45,0,0,1,.09.1l.33.39.4.46a2.34,2.34,0,0,0,.22.23l.22.24.42.43a6.2,6.2,0,0,0,.45.44l.44.41.46.42.45.38.48.39.46.36.49.36L48,60l.49.33.48.32.07,0,.43.27.48.29.5.29.49.27.5.27.48.24.5.24.93.44,1,.43.92.36,1,.36.73.24.16.06.34.11.75.23L57,64.36" transform="translate(-2.74 -7.83)"/><path class="bdb66bb2-6bba-47cc-9b43-2ca7b66c992e" d="M82.13,26.5a17.63,17.63,0,0,0-1.21-5.89A11.72,11.72,0,0,0,78,16.48a11,11,0,0,0-4-2.3,8.88,8.88,0,0,0-7.17,1,10.68,10.68,0,0,0-1.39.95h0a13,13,0,0,0-1.25,1.12A20.12,20.12,0,0,0,61,21.55c-.15.26-.3.53-.43.79-.26.49-.5,1-.73,1.48L59.8,24c-.36.79-.7,1.59-1,2.38a15.84,15.84,0,0,0-2.23-1.1l-.85-.3-.05,0c-.11,0-.22-.06-.33-.09a10,10,0,0,0-1.09-.23,8.57,8.57,0,0,0-2.72,0l-.36.08a7.62,7.62,0,0,0-.9.26,9.34,9.34,0,0,0-1.69.77A16.13,16.13,0,0,0,43.28,31a21,21,0,0,0-1.72,3.21,0,0,0,0,0,0,0l-.27.63a25.29,25.29,0,0,0-.87,2.63c-.06.23-.12.47-.17.71a19.89,19.89,0,0,0-.4,2.24,16.66,16.66,0,0,0,0,4.58,24.65,24.65,0,0,0,1,4,22.43,22.43,0,0,0,2.66,5.47c.28.41.57.82.88,1.21s.47.6.72.89a23.91,23.91,0,0,0,3.77,3.52,28.79,28.79,0,0,0,4.8,2.9A33.67,33.67,0,0,0,57,64.36l1.24.42.09,0h0l.6.19H59l1.51.42h0a38.76,38.76,0,0,0,6.11,1.06,1.74,1.74,0,0,0,1.2-.31A.91.91,0,0,0,68,66a.46.46,0,0,0,.07-.07,1.5,1.5,0,0,0,.19-.25l.55-.81c.31-.46.66-1,1-1.6.08-.12.15-.25.23-.38s.25-.39.38-.59l.64-1c.84-1.4,1.78-3,2.75-4.88.22-.41.45-.85.67-1.28.39-.76.78-1.54,1.16-2.35h0c.21-.43.42-.87.62-1.32.45-1,.9-2,1.34-3,.64-1.53,1.23-3.08,1.74-4.61.06-.17.12-.35.17-.52.3-.88.57-1.76.81-2.63a54.33,54.33,0,0,0,1.25-5.43c.07-.47.15-.92.21-1.37h0c0-.29.08-.57.11-.85a33.61,33.61,0,0,0,.16-6.45" transform="translate(-2.74 -7.83)"/><path class="ed4ec0d8-f21e-46cc-b5ed-2438c821345e" d="M52.8,30.86a12.82,12.82,0,0,0-5,6,14.15,14.15,0,0,0-1.2,7.45A19.17,19.17,0,0,0,51.05,54a23.82,23.82,0,0,0,7.78,5.8,38.3,38.3,0,0,0,9.86,3,105.16,105.16,0,0,0,7-12.77,64.4,64.4,0,0,0,4.4-12.84,30.44,30.44,0,0,0,.39-12.49A6.85,6.85,0,0,0,77.05,20a6.11,6.11,0,0,0-6,.32c-2.63,1.5-4.49,4.9-7.69,13.16-5.3-3.35-7.92-4.17-10.55-2.63" transform="translate(-2.74 -7.83)"/><path class="fa1ca79e-7dda-4244-8217-ec400be64f49" d="M61.93,60.74l-2.09-8.06a21.67,21.67,0,0,1-19.59-.41l.41-.8a20.54,20.54,0,0,0,19.23.16l.52-.32.52,2-.22-16.94.91,2.5c0,.08,2.66,7.33,4.41,11.46a27.05,27.05,0,0,0,2.56-1.68L69.25,42l2.59,6L70.56,30.2l1,2.28c0,.06,2.82,6.19,4.44,9.29,3.73-3.28,4.65-6.71,5.26-12.93l.89.09c-.63,6.56-1.69,10.32-6,13.89l-.42.36-.26-.49c-1-1.86-2.63-5.31-3.69-7.59l1.3,18.12L69.8,45.57l-.36,3.57-.15.12A21.39,21.39,0,0,1,66,51.36l-.4.15-.17-.4c-1.13-2.62-2.71-6.81-3.7-9.46Z" transform="translate(-2.74 -7.83)"/></g></g></svg>