<svg xmlns="http://www.w3.org/2000/svg" xmlns:xlink="http://www.w3.org/1999/xlink" viewBox="0 0 54.83 83.86"><defs><style>.a9c2cb31-dec5-4ff0-9a85-0c7b8ea70ef4{fill:none;}.a4f7f1eb-c890-4966-a3c6-aae9850dc27a{isolation:isolate;}.eb80888f-2bff-4f56-b7f6-60c9343572de{mix-blend-mode:multiply;}.acf075a0-812e-479f-9c8c-99a0d0bbeb2a{clip-path:url(#a1acf353-3b8b-4c03-8798-2b17482745d7);}.b4c7a298-923e-432f-8a69-3459846af355{fill:#e8e7e7;}.bb7d67f0-601e-4219-b46c-ec7afb42f8df{fill:#393942;}.fdbc5cba-92b3-4089-a074-3e94f7e218a7{fill:#b0bfc5;}.b071c2b5-1d2f-4458-9a6a-a9ed4d98423a{fill:#56505a;}.a083bc55-62dd-49e2-b7d4-1bc599a793d2{fill:#285da9;}.b8dd7e3d-bb59-483d-a99c-868a8ad1d0c8{fill:#214d9c;}.bd23123a-5ea9-44d5-93e6-353b0b108caf{fill:#d8e0e3;}.f67fa801-f219-40be-9273-39e679d782d1{fill:#babbbd;}.a2199875-5f74-4ecd-a9da-9b9ea7339f2b{fill:#d8d8da;}.b15c8d2a-0ba9-4308-8fd2-bc4edc4698d9{clip-path:url(#a099d725-d738-4dd1-8d48-f223b70e05ef);}.f894db92-c156-424f-8df1-0b33eb544a24{fill:#ddddde;}.f6037606-9c11-4140-9374-b5a68575b155{fill:#6a94ce;}.a60b8d61-a7bb-43bc-a7a0-469087489b12{fill:#4a79bc;}.a7b96f50-f4a5-4f60-8679-d52638cfa0fa{fill:#4a75b9;}.b7c9207d-d398-4612-9714-2b7870d9e0a4{fill:#8ba4d5;}</style><clipPath id="a1acf353-3b8b-4c03-8798-2b17482745d7" transform="translate(-17.47 -3.66)"><rect class="a9c2cb31-dec5-4ff0-9a85-0c7b8ea70ef4" x="17.47" y="72.35" width="40.67" height="15.16"/></clipPath><clipPath id="a099d725-d738-4dd1-8d48-f223b70e05ef" transform="translate(-17.47 -3.66)"><rect class="a9c2cb31-dec5-4ff0-9a85-0c7b8ea70ef4" x="48.52" y="9.04" width="20.45" height="40.62"/></clipPath></defs><title>evaluaciones_certificadas</title><g class="a4f7f1eb-c890-4966-a3c6-aae9850dc27a"><g id="bc8c9863-9e75-4de1-959c-a784ecdf6bef" data-name="Capa 1"><g class="eb80888f-2bff-4f56-b7f6-60c9343572de"><g class="acf075a0-812e-479f-9c8c-99a0d0bbeb2a"><path class="b4c7a298-923e-432f-8a69-3459846af355" d="M57.6,72.35l-6.55,0-.08,0-6.73,0a7.39,7.39,0,0,0-3.66,1L18.5,86.14c-1.15.66-1.37,1.28-.49,1.38l6.55,0,.08,0,6.73,0a7.45,7.45,0,0,0,3.67-1L57.11,73.73c1.15-.66,1.37-1.28.49-1.38" transform="translate(-17.47 -3.66)"/></g></g><path class="bb7d67f0-601e-4219-b46c-ec7afb42f8df" d="M54.83,26.86,35.14,38.23l-.16.1-.14.1-.15.13-.13.12-.13.13L34.3,39l-.12.15-.11.16a.91.91,0,0,0-.11.16l-.1.16a1.4,1.4,0,0,0-.09.17l-.09.17a1,1,0,0,1-.08.18l-.06.18a1.27,1.27,0,0,0-.06.18l0,.18a1.29,1.29,0,0,0,0,.19l0,.17c0,.06,0,.14,0,.2a1,1,0,0,1,0,.17l.12,41.43h0A1.46,1.46,0,0,0,33.91,84c-.25-.22,1.76-1,1.76-1.55L55.83,27.63c.38-.22-.17-1.05.13-1a1.72,1.72,0,0,0-1.13.23M35.18,38.22h0M54.89,26.86h0" transform="translate(-17.47 -3.66)"/><path class="fdbc5cba-92b3-4089-a074-3e94f7e218a7" d="M56.25,26.74a1.23,1.23,0,0,0-1.16,0l-.16.09L35.24,38.24a3,3,0,0,0-.55.41A4.26,4.26,0,0,0,33.43,41a2.59,2.59,0,0,0,0,.48l.11,41.43a2,2,0,0,0,0,.36,1.14,1.14,0,0,0,.52.83l1.05.61a1.11,1.11,0,0,1-.52-.83,2,2,0,0,1,0-.36l-.11-41.43a2.59,2.59,0,0,1,0-.48,4.3,4.3,0,0,1,1.26-2.32,3,3,0,0,1,.55-.41L56,27.48l.16-.09a1.23,1.23,0,0,1,1.16,0Z" transform="translate(-17.47 -3.66)"/><path class="b071c2b5-1d2f-4458-9a6a-a9ed4d98423a" d="M36.32,82.38c-.35.2-.63,0-.63-.37l-.12-40.56a1.39,1.39,0,0,1,.63-1.09L56.44,28.68c.35-.2.63,0,.63.36l.12,40.56a1.39,1.39,0,0,1-.63,1.09ZM56.16,27.59,36.47,39a4.09,4.09,0,0,0-1.85,3.21l.12,41.44c0,1.18.83,1.4,1.86.81L56.29,73A3.67,3.67,0,0,0,57.94,70l-.12-41.43a1,1,0,0,0-1.66-.93" transform="translate(-17.47 -3.66)"/><path class="a083bc55-62dd-49e2-b7d4-1bc599a793d2" d="M56.44,28.68,36.2,40.36a1.39,1.39,0,0,0-.63,1.09L35.69,82c0,.4.28.57.63.37L56.56,70.69a1.39,1.39,0,0,0,.63-1.09L57.07,29c0-.4-.28-.56-.63-.36" transform="translate(-17.47 -3.66)"/><path class="b8dd7e3d-bb59-483d-a99c-868a8ad1d0c8" d="M44.45,74.2c0,.84.59,1.18,1.33.76a2.92,2.92,0,0,0,1.32-2.29c0-.84-.59-1.18-1.32-.76a2.92,2.92,0,0,0-1.33,2.29" transform="translate(-17.47 -3.66)"/><path class="bd23123a-5ea9-44d5-93e6-353b0b108caf" d="M58,70.15s.05-.06,0-.09L57.9,28.62a1.34,1.34,0,0,0-.6-1.27,1.29,1.29,0,0,0-1.32.13s.05,0,.08.07-.05-.06-.08-.07L36.29,38.85a4.05,4.05,0,0,0-1.85,3.21l.11,41.43a1.3,1.3,0,0,0,.55,1.19,1.47,1.47,0,0,0,1.42-.12L56.21,73.19A4,4,0,0,0,58,70.06s0,.06,0,.09M36.43,39.06v0h0M56.12,27.67l0-.08,0,.08M36.39,39l0,0,0,0m-1.68,3.11h0m0,0h0m-.18,0h0M56.29,73,36.6,84.32c-.86.5-1.57.1-1.57-.89L34.91,42a3.46,3.46,0,0,1,1.56-2.7L56.16,27.92c.87-.5,1.57-.1,1.57.9l.12,41.43A3.43,3.43,0,0,1,56.29,73M36.55,84.53a.21.21,0,0,0,0-.12.21.21,0,0,1,0,.12M56.14,27.75s0,0,0,0,0,0,0,0" transform="translate(-17.47 -3.66)"/><path class="f67fa801-f219-40be-9273-39e679d782d1" d="M69.18,4.09l-4,2.3-.68-.72a1.35,1.35,0,0,0-1.7,0L56.1,9.52a4.48,4.48,0,0,0-1.69,2L53.72,13l-4,2.3a6.88,6.88,0,0,0-3.12,5.39V50.79c0,2,1.39,2.78,3.12,1.78,0,0,7.67-3.11,19.44-11.22A7.35,7.35,0,0,0,72.3,36V5.87c0-2-1.39-2.78-3.12-1.78M61.3,9.8l-3.68,2.12c-.45.26-.82.06-.82-.46a1.8,1.8,0,0,1,.82-1.41l1-.58a1.8,1.8,0,0,1,.7-.85l.28-.16c.3-.17.55-.14.7,0l1-.58c.45-.26.82,0,.82.47A1.8,1.8,0,0,1,61.3,9.8" transform="translate(-17.47 -3.66)"/><path class="a2199875-5f74-4ecd-a9da-9b9ea7339f2b" d="M50.11,76.18a3.8,3.8,0,0,1-1.89-.57L45.49,74a.52.52,0,0,1-.19-.72.51.51,0,0,1,.71-.19l2.74,1.59a2.06,2.06,0,0,0,2,.25,2,2,0,0,0,.79-1.86V56.81A3,3,0,0,1,52.89,54a3.06,3.06,0,0,1,3.1.26,2.07,2.07,0,0,0,2,.26,2,2,0,0,0,.79-1.87V39.86a.52.52,0,0,1,.53-.52.52.52,0,0,1,.52.52V52.68a2.71,2.71,0,0,1-4.41,2.52,2.06,2.06,0,0,0-2-.25,2,2,0,0,0-.79,1.86V73.09a3,3,0,0,1-1.32,2.77,2.37,2.37,0,0,1-1.2.32" transform="translate(-17.47 -3.66)"/><g class="eb80888f-2bff-4f56-b7f6-60c9343572de"><g class="b15c8d2a-0ba9-4308-8fd2-bc4edc4698d9"><path class="f67fa801-f219-40be-9273-39e679d782d1" d="M51.65,49.28l14.2-8.2a7.47,7.47,0,0,0,3.12-6V11.77c0-2.3-1.39-3.35-3.12-2.36l-14.2,8.2a7.48,7.48,0,0,0-3.13,6V46.92c0,2.3,1.4,3.35,3.13,2.36" transform="translate(-17.47 -3.66)"/></g></g><path class="f894db92-c156-424f-8df1-0b33eb544a24" d="M65.6,6.58l4-2.3a2.44,2.44,0,0,1,1.88-.36,2.13,2.13,0,0,0-2.29.17L65.34,6.31Z" transform="translate(-17.47 -3.66)"/><path class="f894db92-c156-424f-8df1-0b33eb544a24" d="M58,12.11,61.71,10a1.79,1.79,0,0,0,.81-1.41c0-.39-.21-.61-.5-.57a.69.69,0,0,1,.1.38A1.8,1.8,0,0,1,61.3,9.8l-3.68,2.12a.68.68,0,0,1-.31.11c.14.21.4.26.72.08" transform="translate(-17.47 -3.66)"/><path class="f894db92-c156-424f-8df1-0b33eb544a24" d="M47,51V20.89a6.9,6.9,0,0,1,3.12-5.39l4-2.3.68-1.5a4.49,4.49,0,0,1,1.7-2l6.71-3.88a1.72,1.72,0,0,1,1.17-.26,1.41,1.41,0,0,0-1.58.07L56.1,9.52a4.48,4.48,0,0,0-1.69,2L53.72,13l-4,2.3a6.89,6.89,0,0,0-3.13,5.39V50.79a2,2,0,0,0,1.24,2.14A2.23,2.23,0,0,1,47,51" transform="translate(-17.47 -3.66)"/><path class="f6037606-9c11-4140-9374-b5a68575b155" d="M52.36,48.2,66.56,40a7.46,7.46,0,0,0,3.12-6V10.7c0-2.3-1.39-3.36-3.12-2.36l-14.2,8.2a7.45,7.45,0,0,0-3.13,6V45.84c0,2.3,1.4,3.36,3.13,2.36" transform="translate(-17.47 -3.66)"/><path class="a60b8d61-a7bb-43bc-a7a0-469087489b12" d="M67.45,38.46c-4.44,4.29-14.2,8.2-14.2,8.2-1.72,1-3.12.55-3.12-1.75v-22a7.5,7.5,0,0,1,3.12-6l14.2-8.2a2.32,2.32,0,0,1,1.38-.36,1.89,1.89,0,0,0-2.27,0l-14.2,8.2a7.45,7.45,0,0,0-3.13,6V45.84c0,2.3,1.4,3.36,3.13,2.36,0,0,9.57-4.1,14.2-8.2a9,9,0,0,0,2.3-2.67c-.43.45-1,.72-1.41,1.13" transform="translate(-17.47 -3.66)"/><polygon class="a7b96f50-f4a5-4f60-8679-d52638cfa0fa" points="46.5 19.43 43.59 21.11 43.59 17.77 40.38 19.62 40.38 22.96 37.48 24.64 37.48 28.32 40.38 26.64 40.38 29.98 43.59 28.13 43.59 24.79 46.5 23.11 46.5 19.43"/><path class="a7b96f50-f4a5-4f60-8679-d52638cfa0fa" d="M56.36,37.05a4.27,4.27,0,0,1-2.12-.55c-1.5-.87-2.32-2.64-2.32-5a16,16,0,0,1,7.22-12.46c2.06-1.19,4-1.36,5.53-.49s2.33,2.64,2.33,5A16,16,0,0,1,59.78,36a6.93,6.93,0,0,1-3.42,1m6.19-17.74a5.7,5.7,0,0,0-2.77.86A14.53,14.53,0,0,0,53.2,31.52c0,1.87.6,3.24,1.68,3.87s2.61.46,4.26-.49a14.53,14.53,0,0,0,6.58-11.35c0-1.87-.6-3.24-1.69-3.87a2.9,2.9,0,0,0-1.48-.37" transform="translate(-17.47 -3.66)"/><polygon class="b7c9207d-d398-4612-9714-2b7870d9e0a4" points="46.95 19.61 44.04 21.29 44.04 17.95 40.83 19.8 40.83 23.14 37.92 24.82 37.92 28.5 40.83 26.82 40.83 30.16 44.04 28.31 44.04 24.97 46.95 23.29 46.95 19.61"/><path class="b7c9207d-d398-4612-9714-2b7870d9e0a4" d="M56.81,37.23a4.14,4.14,0,0,1-2.12-.55c-1.5-.87-2.33-2.63-2.33-5a15.93,15.93,0,0,1,7.23-12.46c2-1.18,4-1.36,5.53-.49s2.33,2.64,2.33,5a16,16,0,0,1-7.22,12.46,7,7,0,0,1-3.42,1M63,19.49a5.7,5.7,0,0,0-2.77.86A14.53,14.53,0,0,0,53.65,31.7c0,1.87.59,3.24,1.68,3.87s2.61.46,4.26-.49a14.52,14.52,0,0,0,6.58-11.35c0-1.86-.6-3.24-1.69-3.87A2.9,2.9,0,0,0,63,19.49" transform="translate(-17.47 -3.66)"/></g></g></svg>