<svg id="e57981bb-54a4-4338-a643-940a6940d579" data-name="Capa 1" xmlns="http://www.w3.org/2000/svg" xmlns:xlink="http://www.w3.org/1999/xlink" viewBox="0 0 84.26 70.5"><defs><style>.bcc819aa-4b8b-40b9-82a4-2281d9971a0a{fill:url(#fde663f5-6d2e-43b4-bdb6-aa6472ac56a6);}.b05a47c3-7d42-4cb2-b4ed-56addc6044b0{fill:none;}.f3db6721-e799-492c-84a5-48879d784476{clip-path:url(#f0918f05-3b40-4cb3-8272-41e7a8f19c90);}.e9dce629-3b18-4caf-a673-ea929e348078{mask:url(#af1e761d-c838-447f-a557-593bf4482198);}.f058c50a-bf63-4971-aeee-b1e72f566fdb{fill:url(#b26bfa46-0f6a-4246-a529-15908a66ef5d);}.e3669b85-4aea-4696-b291-6e76ec3a08b0{fill:#f5f5f7;}</style><linearGradient id="fde663f5-6d2e-43b4-bdb6-aa6472ac56a6" x1="-901.91" y1="2270.59" x2="-900.91" y2="2270.59" gradientTransform="matrix(84.26, 0, 0, -84.26, 75990.94, 191345.43)" gradientUnits="userSpaceOnUse"><stop offset="0" stop-color="#fff"/><stop offset="1" stop-color="#9e9e9e"/></linearGradient><clipPath id="f0918f05-3b40-4cb3-8272-41e7a8f19c90" transform="translate(0 -0.5)"><rect class="b05a47c3-7d42-4cb2-b4ed-56addc6044b0" y="0.5" width="84.26" height="70.5" rx="12"/></clipPath><mask id="af1e761d-c838-447f-a557-593bf4482198" x="0" y="0" width="84.26" height="70.5" maskUnits="userSpaceOnUse"><g transform="translate(0 -0.5)"><rect class="bcc819aa-4b8b-40b9-82a4-2281d9971a0a" y="0.5" width="84.26" height="70.5"/></g></mask><linearGradient id="b26bfa46-0f6a-4246-a529-15908a66ef5d" x1="-901.91" y1="2270.59" x2="-900.91" y2="2270.59" gradientTransform="matrix(84.26, 0, 0, -84.26, 75990.94, 191344.94)" gradientUnits="userSpaceOnUse"><stop offset="0" stop-color="#15365a"/><stop offset="1" stop-color="#bf1819"/></linearGradient></defs><title>logo</title><g class="f3db6721-e799-492c-84a5-48879d784476"><g class="e9dce629-3b18-4caf-a673-ea929e348078"><rect class="f058c50a-bf63-4971-aeee-b1e72f566fdb" width="84.26" height="70.5"/></g></g><path class="e3669b85-4aea-4696-b291-6e76ec3a08b0" d="M28.94,54.91c-6.88-6.15-9.19-30.71-9.82-40.14-.28-4.27.23-2.41,2.94-2.93,10.54-2.05,6.29,5.87,6.88,5.87H58.31c.78,0-3.49-10.87,9.78-3.91-3.68,11.48-.54,30.11-9.72,40.2-7.2,7.92-21.81,7.72-29.43.91" transform="translate(0 -0.5)"/></svg>