<svg xmlns="http://www.w3.org/2000/svg" xmlns:xlink="http://www.w3.org/1999/xlink" viewBox="0 0 81.84 83.13"><defs><style>.b2dffb49-9346-4530-b012-c569ecaad84a{fill:none;}.aaac37ba-b24e-4a2c-aca8-476455b22e9a{isolation:isolate;}.a6214042-10b0-4513-b57c-25465fc88c2e{mix-blend-mode:multiply;}.a9ef815b-4630-452c-8327-8b29daafcc7a{clip-path:url(#aa98ec68-d224-40f3-bf4c-f8e55e3cbb6d);}.f8ac9087-0885-4cdb-8847-f8122ef5a6d1{fill:#e8e7e7;}.a27f108c-5db7-49cf-b763-13283b29eeef{clip-path:url(#a59a23ca-064f-4e2a-8b97-722879ad61e4);}.b69728f0-dacf-4265-a821-3aa1fa0dda3b{fill:#56505a;}.bb52afec-7d06-4247-8105-58ff64e976e8{fill:#e9eaf1;}.b2a276a4-f284-41ef-aa08-513ef0a93a66{fill:#a0a1a5;}.f8e73e5a-c4ad-4f1b-b1ca-2b093135c0be{fill:#929296;}.acc9c041-dd4c-494b-920b-2fa92e7cfba7{fill:#838587;}.bfbe7e96-5fe5-467e-8b9f-94d1d6e8ff01{fill:#f3f3f3;}.fbe29b65-cad0-4153-a182-a16aad6bcf5d{fill:#fafafa;}.ba45dbf5-e034-4b07-838c-cdf2b0f8493e{fill:#cfcece;}.af0eb2db-36cb-45e5-b53c-7ce68f82a31b{fill:#c92623;}.b2bd2e6a-75ff-48f5-b1d0-923e0c23b2b2{fill:#aa1f1a;}.b62bc24e-5351-43c0-a4be-bb5b22d5b098{fill:#da3532;}.bc5fc06c-8527-4535-a4da-46699764d03a{fill:#eb5958;}.a23ec9bd-4d9a-41d7-a5db-1b9748c11125{fill:#e8423f;}.a9f70d85-bcaa-49b2-8e9a-3901e92b042b{fill:#dd3835;}</style><clipPath id="aa98ec68-d224-40f3-bf4c-f8e55e3cbb6d" transform="translate(-8.16 -4.11)"><rect class="b2dffb49-9346-4530-b012-c569ecaad84a" x="8.16" y="50.85" width="50.49" height="24.16"/></clipPath><clipPath id="a59a23ca-064f-4e2a-8b97-722879ad61e4" transform="translate(-8.16 -4.11)"><rect class="b2dffb49-9346-4530-b012-c569ecaad84a" x="48.18" y="66.9" width="35.24" height="20.34"/></clipPath></defs><title>modo_mentor</title><g class="aaac37ba-b24e-4a2c-aca8-476455b22e9a"><g id="e6b0e83a-d0bf-4d03-9c3a-451091f443e6" data-name="Capa 1"><g class="a6214042-10b0-4513-b57c-25465fc88c2e"><g class="a9ef815b-4630-452c-8327-8b29daafcc7a"><path class="f8ac9087-0885-4cdb-8847-f8122ef5a6d1" d="M58,57.43l-3.39-2h-.08L42.38,50.87a8.6,8.6,0,0,0-4.25,1.19L9.88,68C7.73,69.05,7.69,70.26,9.22,71l7.42,2.8L23.1,75h4.51a8.5,8.5,0,0,0,4.25-1.19L57.45,59c1.33-.77,1.59-1.48.57-1.6" transform="translate(-8.16 -4.11)"/></g></g><g class="a6214042-10b0-4513-b57c-25465fc88c2e"><g class="a27f108c-5db7-49cf-b763-13283b29eeef"><path class="f8ac9087-0885-4cdb-8847-f8122ef5a6d1" d="M79.69,85.27,80,85.1c5.07-2.93,4.43-8.09-1.42-11.46l-6.83-4C65.9,66.32,57,66,51.9,68.87l-.31.18C46.53,72,47.17,77.13,53,80.51l6.83,3.94c5.85,3.38,14.78,3.75,19.84.82" transform="translate(-8.16 -4.11)"/></g></g><path class="b69728f0-dacf-4265-a821-3aa1fa0dda3b" d="M69.73,75,57.07,67.64a4.44,4.44,0,0,1-2.57-3.72A4.37,4.37,0,0,1,57,60.23l2.24-1.29a2.71,2.71,0,0,0,1.62-2.12,2.76,2.76,0,0,0-1.66-2.14c-4.71-2.73-9.94,0-14.88,2.93a71.35,71.35,0,0,1-9.93,5l-.68-1.68a71.54,71.54,0,0,0,9.67-4.84c4-2.41,10.69-6.45,16.73-3a4.44,4.44,0,0,1,2.57,3.72,4.38,4.38,0,0,1-2.53,3.69L57.94,61.8a2.71,2.71,0,0,0-1.62,2.12A2.76,2.76,0,0,0,58,66.06l12.66,7.32Z" transform="translate(-8.16 -4.11)"/><path class="bb52afec-7d06-4247-8105-58ff64e976e8" d="M57.48,77.07" transform="translate(-8.16 -4.11)"/><path class="b2a276a4-f284-41ef-aa08-513ef0a93a66" d="M84.3,68.37c.13.1.26.19.39.3a.46.46,0,0,0-.07-.07Z" transform="translate(-8.16 -4.11)"/><path class="f8e73e5a-c4ad-4f1b-b1ca-2b093135c0be" d="M86.38,70.17l.48.57-.48-.57" transform="translate(-8.16 -4.11)"/><path class="acc9c041-dd4c-494b-920b-2fa92e7cfba7" d="M88.54,73.28l0,0v0Z" transform="translate(-8.16 -4.11)"/><path class="bfbe7e96-5fe5-467e-8b9f-94d1d6e8ff01" d="M89.37,75.32a1.09,1.09,0,0,1-.05-.17L89,74.23c-.07-.13-.14-.28-.21-.44s-.09-.19-.13-.29a1.3,1.3,0,0,1-.08-.17v0a2.1,2.1,0,0,0-.15-.3L88.36,73l-.18-.36-.24-.37a1,1,0,0,0-.11-.17l-.2-.31-.1-.15L87.1,71a8.64,8.64,0,0,0-.85-1l-.17-.17-.42-.41-.16-.15-.2-.17-.53-.43a12.32,12.32,0,0,0-1.29-.89h0l-.19-.12-5.25-3,0,0-.6-.35h0l-3.5-2-.36-.2-.59-.3c-.45-.2-1-.46-1.5-.62l-.18,0a7.08,7.08,0,0,0-.75-.22l-.08,0h-.07a10.83,10.83,0,0,0-1.08-.22l-.45-.07-1-.1h-1a22.55,22.55,0,0,0-7.11,2.37l-.82.49A10.89,10.89,0,0,0,56,65.82a11.89,11.89,0,0,0-2.43,6.91v.88l0,.39a1.21,1.21,0,0,1,0,.19s0,.6,0,.62c.19,1.8,1.49,3,3.9,4.42l9.4,5.47h0l0,0a16,16,0,0,0,2,.94l.31.11L70,86c.35.12.72.22,1.08.31h0l.45.12.12,0,.2,0a10.51,10.51,0,0,0,1.52.26h0l.52.07.3,0L75,87c.42,0,.84,0,1.26.06h1.16a3.31,3.31,0,0,0,.44,0h.32l.18,0h.22l.31,0,.31,0h.06l.16,0,.4,0,.45-.06.16,0,.11,0h0l.09,0,.16,0h.09l.73-.15c.4-.09.78-.19,1.17-.31s.75-.23,1.11-.37A14.6,14.6,0,0,0,86,84.89a10.18,10.18,0,0,0,2.21-1.59,5.81,5.81,0,0,0,1.46-2,4.68,4.68,0,0,0,.3-1.53c0-.14,0-.25,0-.29h0a12.81,12.81,0,0,0-.62-4.2M73,61.83h0l0,0-.22-.08.16,0" transform="translate(-8.16 -4.11)"/><path class="fbe29b65-cad0-4153-a182-a16aad6bcf5d" d="M84,68.67c-6.53-4.12-11.54-6.79-12.9-7.23s-5-1.81-10.4,1.18-4.5,5.64,5.58,10.66,14.57,5.18,19.45,2.85C91.1,73.58,84,68.67,84,68.67" transform="translate(-8.16 -4.11)"/><path class="ba45dbf5-e034-4b07-838c-cdf2b0f8493e" d="M71.74,67.13l-.16.27a2.81,2.81,0,0,0-.27-.16c-1.07-.62-4.93-2.83-5.83-3.25-4.08-1.92-6.42-.74-6.52-.7l-.56.27.45-.3.82-.49a9.11,9.11,0,0,1,5.94.94c1,.45,5.1,2.82,6,3.33l.16.09" transform="translate(-8.16 -4.11)"/><path class="ba45dbf5-e034-4b07-838c-cdf2b0f8493e" d="M78,64.65c-.24-.13-1.81-.65-6.62,2.91-5.76,4.26-7.36,7.38-8.6,12.37l0,.2-1.32-.73c-3.9-2.13-6.8-3.71-7.85-5.79v-.88c.64,2.38,3.71,4,8,6.4l1,.53c1.22-4.85,2.94-8.11,8.66-12.35l.1-.07a2.22,2.22,0,0,1,.27-.19c3.27-2.37,5-2.81,5.79-2.79h0l.6.35Z" transform="translate(-8.16 -4.11)"/><polygon class="af0eb2db-36cb-45e5-b53c-7ce68f82a31b" points="45.64 29.69 33.98 22.91 45.79 24.08 57.45 30.85 45.64 29.69"/><polygon class="b2bd2e6a-75ff-48f5-b1d0-923e0c23b2b2" points="30.35 64.37 18.69 57.59 18.65 42.17 30.3 48.95 30.35 64.37"/><polygon class="b62bc24e-5351-43c0-a4be-bb5b22d5b098" points="40.59 22.2 28.93 15.42 40.47 0.93 52.13 7.7 40.59 22.2"/><polygon class="b2bd2e6a-75ff-48f5-b1d0-923e0c23b2b2" points="18.76 63.45 7.1 56.67 1.82 49.46 13.48 56.24 18.76 63.45"/><polygon class="af0eb2db-36cb-45e5-b53c-7ce68f82a31b" points="13.48 56.24 1.82 49.46 13.59 34.69 25.24 41.46 13.48 56.24"/><polygon class="bc5fc06c-8527-4535-a4da-46699764d03a" points="30.2 12.74 18.54 5.97 28.88 0 40.54 6.77 30.2 12.74"/><polygon class="b2bd2e6a-75ff-48f5-b1d0-923e0c23b2b2" points="30.24 28.17 18.59 21.4 18.54 5.97 30.2 12.74 30.24 28.17"/><polygon class="a23ec9bd-4d9a-41d7-a5db-1b9748c11125" points="57.45 30.85 45.64 29.69 57.4 14.91 52.13 7.7 40.59 22.2 40.54 6.77 30.2 12.74 30.24 28.17 18.65 27.03 13.44 40.3 25.24 41.46 13.48 56.24 18.76 63.45 30.3 48.95 30.35 64.37 40.69 58.4 40.64 42.98 52.23 44.12 57.45 30.85"/><polygon class="bc5fc06c-8527-4535-a4da-46699764d03a" points="31.16 47.73 19.13 62.83 14.46 56.44 26.56 41.25 14.5 40.06 19.34 27.75 31.1 28.91 31.06 13.22 40.41 7.82 40.45 23.8 52.47 8.71 57.14 15.09 45.05 30.29 57.11 31.47 52.27 43.79 40.51 42.63 40.55 58.3 31.2 63.7 31.16 47.73"/><polygon class="a9f70d85-bcaa-49b2-8e9a-3901e92b042b" points="13.44 40.3 1.78 33.52 7 20.25 18.65 27.03 13.44 40.3"/><polygon class="af0eb2db-36cb-45e5-b53c-7ce68f82a31b" points="18.65 27.03 7 20.25 18.59 21.4 30.24 28.17 18.65 27.03"/></g></g></svg>