<svg xmlns="http://www.w3.org/2000/svg" xmlns:xlink="http://www.w3.org/1999/xlink" viewBox="0 0 93.34 82.83"><defs><style>.ec12cf0d-204f-4b4d-9459-c9d52543aa16{fill:none;}.b52544d8-e3cd-4c4b-b694-53d26881a9ec{isolation:isolate;}.bae39d49-eca1-474d-823e-6efb4ffdf16e{mix-blend-mode:multiply;}.b717b969-ac26-4e94-a271-75b147b796ec{clip-path:url(#b8e483d0-c6c2-444a-95dc-2b2d1cf5a2bb);}.fa0c6d20-5426-4b9a-a930-9e918ad9725b{fill:#e8e7e7;}.bcb32e89-3000-407e-9213-58d6e8deef0c{fill:#989fb9;}.b57c0a33-a66d-4688-adb8-2be15773ab1b{fill:#d0d3de;}.bdb39327-9138-48ac-9002-cac3144c9e06{fill:#53525a;}.fd4b1358-28a2-45fb-8edb-e981fa6aa48e{fill:#393942;}.ecb38df7-0b1c-4718-94b2-c7babea0a076{fill:#dee0e9;}.e25f8272-bd52-4447-b7a8-9d96184bdd51{fill:#a9afc5;}.ad6974ac-4ab1-4c34-acbf-c4b64b776984{fill:#a9b1c6;}.b5cdc8c0-4726-47a8-99e7-14946533d725{fill:#bfc4d5;}.ad6d4f2c-319c-4e52-8cdc-ef63330aff7f{fill:#e33a36;}.a01140c8-5cdb-40af-9842-2c12f620a703{fill:#e94542;}.b7b8cb5b-d3f7-45e5-b967-04e3de3bb4f6{fill:#ea5655;}.bc1b6d97-6072-4dcf-853d-db29ec4ac5b9{clip-path:url(#b63d1cd0-0cb5-4771-a25a-6c29a67e700b);}.a82e8b26-20de-45e5-b440-803c97a75e9a{fill:#a6afaa;}.fcab9adc-d1e0-4060-bb9b-96e87d721ff8{fill:#e94a48;}.be70e75a-e9e1-47ff-9551-85b72cf0004c{fill:#faf9f6;}.e49333c0-8f31-43f3-b26c-28619daa75ad{fill:#8e9b94;}.e7daf9c2-2e75-4b74-9195-e6b74b449450{fill:#849088;}.fc393cb5-2854-4891-856c-5bcb328d367b{fill:#c4cac6;}.a082c771-c8eb-4e2a-a32d-4e40ef111a05{fill:#dde0dd;}</style><clipPath id="b8e483d0-c6c2-444a-95dc-2b2d1cf5a2bb" transform="translate(-2.12 -3.81)"><rect class="ec12cf0d-204f-4b4d-9459-c9d52543aa16" x="2.12" y="28.69" width="89.31" height="57.95"/></clipPath><clipPath id="b63d1cd0-0cb5-4771-a25a-6c29a67e700b" transform="translate(-2.12 -3.81)"><rect class="ec12cf0d-204f-4b4d-9459-c9d52543aa16" x="33.42" y="39.11" width="6.82" height="23.39"/></clipPath></defs><title>seguridad_medica</title><g class="b52544d8-e3cd-4c4b-b694-53d26881a9ec"><g id="acf08683-b757-4548-b9e4-2a416a341d86" data-name="Capa 1"><g class="bae39d49-eca1-474d-823e-6efb4ffdf16e"><g class="b717b969-ac26-4e94-a271-75b147b796ec"><path class="fa0c6d20-5426-4b9a-a930-9e918ad9725b" d="M91,59.5,61.22,42.31a2.66,2.66,0,0,0-2.7,0L56,43.77,29.9,28.7c-.84-.48,17.85,16.4,17,16.89L2.37,71.3a.52.52,0,0,0,0,.89l10,.46c4.52.18,6.61.56,7.45-.11l.19-.12,23.39,13.5c1.37.79,6.37,1,7.74.23L91,61a.88.88,0,0,0,0-1.52" transform="translate(-2.12 -3.81)"/></g></g><path class="bcb32e89-3000-407e-9213-58d6e8deef0c" d="M62.27,4.49,61.44,4h0a1.34,1.34,0,0,0-1.37,0L17.46,28.59a4.06,4.06,0,0,0-2,3.51l-.25,33.67a1,1,0,0,0,.53.79h0l1,.56.64-.88L62.09,40.41V5.16A1.34,1.34,0,0,0,62,4.81Z" transform="translate(-2.12 -3.81)"/><path class="b57c0a33-a66d-4688-adb8-2be15773ab1b" d="M62.94,40.9,17.53,67.12a.83.83,0,0,1-1.24-.71V32.59a4,4,0,0,1,2-3.5L60.92,4.49a1.35,1.35,0,0,1,2,1.16Z" transform="translate(-2.12 -3.81)"/><path class="bdb39327-9138-48ac-9002-cac3144c9e06" d="M62.23,37.42,17,63.54V32.47a3.14,3.14,0,0,1,1.59-2.74L61.5,5a.49.49,0,0,1,.73.42Z" transform="translate(-2.12 -3.81)"/><path class="fd4b1358-28a2-45fb-8edb-e981fa6aa48e" d="M17.85,32.51a2.33,2.33,0,0,1,1.16-2L61.38,6V36.9L17.85,62Z" transform="translate(-2.12 -3.81)"/><path class="bcb32e89-3000-407e-9213-58d6e8deef0c" d="M95.46,60.15V58.47l-1,.6L65.25,42.21h0l-1.35-.78L63,42a2.39,2.39,0,0,0-.43.2L19,67.38l-1.2-.7v1.68h0a.53.53,0,0,0,.26.45l1.45.83,27.77,16,.24.14a4.33,4.33,0,0,0,2.21.59,4.39,4.39,0,0,0,2.21-.59L95,60.92a.89.89,0,0,0,.44-.77Z" transform="translate(-2.12 -3.81)"/><path class="ecb38df7-0b1c-4718-94b2-c7babea0a076" d="M95,59.23,51.89,84.13a4.42,4.42,0,0,1-4.42,0L18,67.12a.51.51,0,0,1,0-.88L62.55,40.52a2.71,2.71,0,0,1,2.7,0L95,57.71a.88.88,0,0,1,0,1.52" transform="translate(-2.12 -3.81)"/><polygon class="fd4b1358-28a2-45fb-8edb-e981fa6aa48e" points="60.59 39.87 22.09 62.1 19.27 60.47 57.77 38.24 60.59 39.87"/><path class="e25f8272-bd52-4447-b7a8-9d96184bdd51" d="M82.92,52.81l-15.64-9a2.22,2.22,0,0,0-2,0L24.11,67.72a.61.61,0,0,0,0,1.15l15.64,9a2.22,2.22,0,0,0,2,0L82.93,54a.61.61,0,0,0,0-1.15" transform="translate(-2.12 -3.81)"/><path class="fd4b1358-28a2-45fb-8edb-e981fa6aa48e" d="M26.32,68.82V69h.18l1.88,1.08a.76.76,0,0,0,.69,0L31,69h.16v-.21h0v0h0a.24.24,0,0,0-.14-.18l-1.92-1.11a.76.76,0,0,0-.69,0l-1.9,1.11a.22.22,0,0,0-.14.2" transform="translate(-2.12 -3.81)"/><path class="fd4b1358-28a2-45fb-8edb-e981fa6aa48e" d="M38.39,75.78V76h.18l1.87,1.08a.78.78,0,0,0,.7,0L43,76h.16v-.22h0a.27.27,0,0,0-.14-.19l-1.92-1.1a.76.76,0,0,0-.69,0l-1.9,1.1a.24.24,0,0,0-.14.2" transform="translate(-2.12 -3.81)"/><path class="fd4b1358-28a2-45fb-8edb-e981fa6aa48e" d="M41.37,74.05v.23h.18l1.87,1.08a.76.76,0,0,0,.69,0L46,74.27h.17v-.22h0a.27.27,0,0,0-.15-.19l-1.91-1.1a.76.76,0,0,0-.69,0l-1.9,1.1c-.1.06-.15.13-.14.2" transform="translate(-2.12 -3.81)"/><path class="fd4b1358-28a2-45fb-8edb-e981fa6aa48e" d="M44.34,72.32v.23h.19l1.87,1.08a.76.76,0,0,0,.69,0L49,72.54h.17v-.21h0a.23.23,0,0,0-.14-.19L47.08,71a.76.76,0,0,0-.69,0l-1.9,1.1c-.1.06-.15.13-.15.2" transform="translate(-2.12 -3.81)"/><path class="fd4b1358-28a2-45fb-8edb-e981fa6aa48e" d="M47.32,70.59v.23h.19l1.87,1.08a.76.76,0,0,0,.69,0L52,70.81h.16v-.21h0a.23.23,0,0,0-.14-.19l-1.91-1.1a.78.78,0,0,0-.7,0l-1.9,1.1a.26.26,0,0,0-.14.2" transform="translate(-2.12 -3.81)"/><path class="fd4b1358-28a2-45fb-8edb-e981fa6aa48e" d="M29.3,67.09v.22h.18l1.87,1.08a.78.78,0,0,0,.7,0l1.88-1.09h.16v-.23h0a.29.29,0,0,0-.15-.19L32,65.78a.76.76,0,0,0-.69,0l-1.9,1.1a.24.24,0,0,0-.14.21" transform="translate(-2.12 -3.81)"/><path class="fd4b1358-28a2-45fb-8edb-e981fa6aa48e" d="M34,67.84v.22h.18L36,69.14a.78.78,0,0,0,.7,0l1.88-1.09h.16v-.21h0v0h0a.28.28,0,0,0-.15-.18l-1.91-1.11a.76.76,0,0,0-.69,0l-1.9,1.11a.23.23,0,0,0-.14.2" transform="translate(-2.12 -3.81)"/><path class="fd4b1358-28a2-45fb-8edb-e981fa6aa48e" d="M37,66.11v.22h.19L39,67.41a.76.76,0,0,0,.69,0l1.88-1.09h.17v-.23h0a.23.23,0,0,0-.14-.18L39.69,64.8a.76.76,0,0,0-.69,0l-1.9,1.11a.24.24,0,0,0-.15.2" transform="translate(-2.12 -3.81)"/><path class="fd4b1358-28a2-45fb-8edb-e981fa6aa48e" d="M38.5,68.73V69h.19L40.56,70a.76.76,0,0,0,.69,0l1.88-1.09h.16v-.21h0v0h0c0-.07,0-.13-.14-.18l-1.91-1.11a.78.78,0,0,0-.7,0l-1.9,1.11a.23.23,0,0,0-.14.2" transform="translate(-2.12 -3.81)"/><path class="fd4b1358-28a2-45fb-8edb-e981fa6aa48e" d="M41.54,70.48v.22h.18l1.88,1.08a.71.71,0,0,0,.69,0l1.88-1.09h.16v-.21h0a.26.26,0,0,0-.14-.19l-1.91-1.1a.75.75,0,0,0-.7,0l-1.9,1.11a.25.25,0,0,0-.14.2" transform="translate(-2.12 -3.81)"/><path class="fd4b1358-28a2-45fb-8edb-e981fa6aa48e" d="M44.52,68.75V69h.18l1.88,1.08a.73.73,0,0,0,.69,0L49.15,69h.16v-.21h0a.26.26,0,0,0-.14-.19l-1.92-1.11a.76.76,0,0,0-.69,0l-1.9,1.11a.23.23,0,0,0-.14.2" transform="translate(-2.12 -3.81)"/><path class="fd4b1358-28a2-45fb-8edb-e981fa6aa48e" d="M47.5,67v.22h.18l1.87,1.08a.76.76,0,0,0,.69,0l1.88-1.09h.17V67h0a.27.27,0,0,0-.15-.19l-1.91-1.11a.76.76,0,0,0-.69,0l-1.9,1.11a.23.23,0,0,0-.14.2" transform="translate(-2.12 -3.81)"/><path class="fd4b1358-28a2-45fb-8edb-e981fa6aa48e" d="M50.47,65.29v.22h.19l1.87,1.08a.76.76,0,0,0,.69,0L55.1,65.5h.17v-.23h0a.23.23,0,0,0-.14-.18L53.21,64a.76.76,0,0,0-.69,0l-1.9,1.11a.24.24,0,0,0-.15.2" transform="translate(-2.12 -3.81)"/><path class="fd4b1358-28a2-45fb-8edb-e981fa6aa48e" d="M53.45,63.56v.22h.19l1.87,1.08a.76.76,0,0,0,.69,0l1.88-1.09h.16v-.21h0v0h0a.23.23,0,0,0-.14-.18l-1.91-1.11a.78.78,0,0,0-.7,0l-1.9,1.11a.23.23,0,0,0-.14.2" transform="translate(-2.12 -3.81)"/><path class="fd4b1358-28a2-45fb-8edb-e981fa6aa48e" d="M56.43,61.83v.22h.18l1.88,1.08a.76.76,0,0,0,.69,0L61.06,62h.16v-.23h0a.26.26,0,0,0-.14-.18l-1.91-1.11a.78.78,0,0,0-.7,0l-1.9,1.11a.23.23,0,0,0-.14.2" transform="translate(-2.12 -3.81)"/><path class="fd4b1358-28a2-45fb-8edb-e981fa6aa48e" d="M59.41,60.1v.22h.18l1.88,1.08a.76.76,0,0,0,.69,0L64,60.31h.16V60.1h0v0h0a.24.24,0,0,0-.14-.18l-1.92-1.11a.76.76,0,0,0-.69,0l-1.9,1.11a.22.22,0,0,0-.14.2" transform="translate(-2.12 -3.81)"/><path class="fd4b1358-28a2-45fb-8edb-e981fa6aa48e" d="M62.39,58.37v.22h.18l1.87,1.08a.78.78,0,0,0,.7,0L67,58.58h.17v-.23h0a.29.29,0,0,0-.15-.19l-1.91-1.1a.76.76,0,0,0-.69,0l-1.9,1.1a.24.24,0,0,0-.14.21" transform="translate(-2.12 -3.81)"/><path class="fd4b1358-28a2-45fb-8edb-e981fa6aa48e" d="M70.16,56.63v-.22H70L68.1,55.33a.76.76,0,0,0-.69,0l-1.88,1.09h-.17v.21h0c0,.07,0,.13.14.19l1.91,1.1a.76.76,0,0,0,.69,0l1.9-1.1a.25.25,0,0,0,.15-.21" transform="translate(-2.12 -3.81)"/><path class="fd4b1358-28a2-45fb-8edb-e981fa6aa48e" d="M68.55,58.25v.23h.19l1.87,1.08a.76.76,0,0,0,.69,0l1.88-1.09h.17v-.22h0c0-.07,0-.13-.14-.19L71.29,57a.76.76,0,0,0-.69,0l-1.91,1.1a.26.26,0,0,0-.14.2" transform="translate(-2.12 -3.81)"/><path class="fd4b1358-28a2-45fb-8edb-e981fa6aa48e" d="M71.53,56.52v.23h.19l1.87,1.08a.76.76,0,0,0,.69,0l1.88-1.09h.16v-.22h0a.23.23,0,0,0-.14-.19l-1.91-1.1a.78.78,0,0,0-.7,0l-1.9,1.1a.26.26,0,0,0-.14.2" transform="translate(-2.12 -3.81)"/><path class="fd4b1358-28a2-45fb-8edb-e981fa6aa48e" d="M77.56,53v.22h.18l1.88,1.08a.73.73,0,0,0,.69,0l1.88-1.09h.16V53h0a.23.23,0,0,0-.14-.19L80.3,51.71a.78.78,0,0,0-.7,0l-1.9,1.11a.25.25,0,0,0-.14.2" transform="translate(-2.12 -3.81)"/><path class="fd4b1358-28a2-45fb-8edb-e981fa6aa48e" d="M74.48,51.67l1.88,1.08a.76.76,0,0,0,.69,0l.26-.16,1.62-.93h.16v-.09l.1-.06h.17v-.23h0a.23.23,0,0,0-.14-.18L77.3,50a.76.76,0,0,0-.69,0l-2.17,1.26a.24.24,0,0,0-.14.2v.23Z" transform="translate(-2.12 -3.81)"/><path class="fd4b1358-28a2-45fb-8edb-e981fa6aa48e" d="M68.34,54.9v.23h.19l1.87,1.08a.76.76,0,0,0,.69,0L73,55.12h.16V54.9h0c0-.07,0-.13-.14-.19l-1.91-1.1a.78.78,0,0,0-.7,0l-1.9,1.1a.26.26,0,0,0-.14.2" transform="translate(-2.12 -3.81)"/><path class="fd4b1358-28a2-45fb-8edb-e981fa6aa48e" d="M71.32,53.17v.23h.18l1.88,1.08a.76.76,0,0,0,.69,0L76,53.39h.16v-.22h0A.27.27,0,0,0,76,53l-1.91-1.1a.78.78,0,0,0-.7,0L71.46,53a.26.26,0,0,0-.14.2" transform="translate(-2.12 -3.81)"/><path class="fd4b1358-28a2-45fb-8edb-e981fa6aa48e" d="M41.48,67v.22h.18l1.88,1.08a.76.76,0,0,0,.69,0l1.88-1.09h.16V67h0a.27.27,0,0,0-.14-.19l-1.91-1.1a.78.78,0,0,0-.7,0l-1.9,1.1a.26.26,0,0,0-.14.21" transform="translate(-2.12 -3.81)"/><path class="fd4b1358-28a2-45fb-8edb-e981fa6aa48e" d="M44.46,65.27v.22h.18l1.88,1.08a.76.76,0,0,0,.69,0l1.88-1.09h.16v-.21h0a.27.27,0,0,0-.14-.19L47.19,64a.76.76,0,0,0-.69,0l-1.9,1.1a.24.24,0,0,0-.14.21" transform="translate(-2.12 -3.81)"/><path class="fd4b1358-28a2-45fb-8edb-e981fa6aa48e" d="M47.44,63.53v.23h.18l1.87,1.08a.78.78,0,0,0,.7,0l1.88-1.09h.16v-.22h0a.29.29,0,0,0-.15-.19l-1.91-1.1a.76.76,0,0,0-.69,0l-1.9,1.1a.24.24,0,0,0-.14.2" transform="translate(-2.12 -3.81)"/><path class="fd4b1358-28a2-45fb-8edb-e981fa6aa48e" d="M50.41,61.8V62h.19l1.87,1.08a.76.76,0,0,0,.69,0L55,62h.17V61.8h0c0-.07-.05-.13-.14-.19l-1.91-1.1a.76.76,0,0,0-.69,0l-1.9,1.1c-.1.06-.15.13-.15.2" transform="translate(-2.12 -3.81)"/><path class="fd4b1358-28a2-45fb-8edb-e981fa6aa48e" d="M53.39,60.07v.23h.19l1.87,1.08a.76.76,0,0,0,.69,0L58,60.29h.16v-.21h0a.23.23,0,0,0-.14-.19l-1.91-1.1a.78.78,0,0,0-.7,0l-1.9,1.1a.26.26,0,0,0-.14.2" transform="translate(-2.12 -3.81)"/><path class="fd4b1358-28a2-45fb-8edb-e981fa6aa48e" d="M56.37,58.34v.23h.18l1.88,1.08a.76.76,0,0,0,.69,0L61,58.55h.16v-.21h0a.26.26,0,0,0-.14-.19L59.11,57a.78.78,0,0,0-.7,0l-1.9,1.1a.26.26,0,0,0-.14.2" transform="translate(-2.12 -3.81)"/><path class="fd4b1358-28a2-45fb-8edb-e981fa6aa48e" d="M59.35,56.61v.23h.18l1.88,1.09a.76.76,0,0,0,.69,0L64,56.82h.16v-.21h0a.26.26,0,0,0-.14-.19l-1.92-1.1a.76.76,0,0,0-.69,0l-1.9,1.1a.24.24,0,0,0-.14.2" transform="translate(-2.12 -3.81)"/><path class="fd4b1358-28a2-45fb-8edb-e981fa6aa48e" d="M62.33,54.88v.22h.18l1.87,1.09a.78.78,0,0,0,.7,0L67,55.09h.16v-.21h0a.27.27,0,0,0-.15-.19l-1.91-1.1a.76.76,0,0,0-.69,0l-1.9,1.1a.24.24,0,0,0-.14.2" transform="translate(-2.12 -3.81)"/><path class="fd4b1358-28a2-45fb-8edb-e981fa6aa48e" d="M65.3,53.15v.22h.19l1.87,1.09a.76.76,0,0,0,.69,0l1.88-1.1h.17v-.21h0A.23.23,0,0,0,70,53L68,51.85a.71.71,0,0,0-.69,0L65.45,53c-.1.06-.15.13-.15.2" transform="translate(-2.12 -3.81)"/><path class="fd4b1358-28a2-45fb-8edb-e981fa6aa48e" d="M39.93,64.38v.22h.19L42,65.68a.76.76,0,0,0,.69,0l1.88-1.09h.16v-.21h0v0h0a.23.23,0,0,0-.14-.18l-1.91-1.11a.78.78,0,0,0-.7,0l-1.9,1.11a.23.23,0,0,0-.14.2" transform="translate(-2.12 -3.81)"/><path class="fd4b1358-28a2-45fb-8edb-e981fa6aa48e" d="M42.91,62.65v.22h.18L45,64a.76.76,0,0,0,.69,0l1.88-1.09h.16v-.23h0a.26.26,0,0,0-.14-.18l-1.91-1.11a.78.78,0,0,0-.7,0l-1.9,1.11a.23.23,0,0,0-.14.2" transform="translate(-2.12 -3.81)"/><path class="fd4b1358-28a2-45fb-8edb-e981fa6aa48e" d="M45.89,60.92v.22h.18L48,62.22a.76.76,0,0,0,.69,0l1.88-1.09h.16v-.21h0v0h0a.24.24,0,0,0-.14-.18l-1.92-1.11a.76.76,0,0,0-.69,0L46,60.72a.23.23,0,0,0-.14.2" transform="translate(-2.12 -3.81)"/><path class="fd4b1358-28a2-45fb-8edb-e981fa6aa48e" d="M48.87,59.19v.22h.18l1.87,1.08a.78.78,0,0,0,.7,0L53.5,59.4h.16v-.23h0a.29.29,0,0,0-.15-.19l-1.91-1.1a.76.76,0,0,0-.69,0L49,59a.24.24,0,0,0-.14.21" transform="translate(-2.12 -3.81)"/><path class="fd4b1358-28a2-45fb-8edb-e981fa6aa48e" d="M51.84,57.46v.22H52l1.87,1.08a.76.76,0,0,0,.69,0l1.88-1.09h.17v-.21h0c0-.07-.05-.13-.14-.19l-1.91-1.1a.76.76,0,0,0-.69,0L52,57.25a.25.25,0,0,0-.15.21" transform="translate(-2.12 -3.81)"/><path class="fd4b1358-28a2-45fb-8edb-e981fa6aa48e" d="M54.82,55.72V56H55L56.88,57a.76.76,0,0,0,.69,0l1.88-1.09h.17v-.22h0c0-.07,0-.13-.14-.19l-1.91-1.1a.76.76,0,0,0-.69,0L55,55.52a.26.26,0,0,0-.14.2" transform="translate(-2.12 -3.81)"/><path class="fd4b1358-28a2-45fb-8edb-e981fa6aa48e" d="M57.8,54v.23H58l1.88,1.08a.76.76,0,0,0,.69,0l1.88-1.09h.16V54h0a.27.27,0,0,0-.14-.19l-1.91-1.1a.78.78,0,0,0-.7,0l-1.9,1.1a.26.26,0,0,0-.14.2" transform="translate(-2.12 -3.81)"/><path class="fd4b1358-28a2-45fb-8edb-e981fa6aa48e" d="M60.78,52.26v.23H61l1.88,1.08a.76.76,0,0,0,.69,0l1.88-1.09h.16v-.21h0a.26.26,0,0,0-.14-.19L63.51,51a.76.76,0,0,0-.69,0l-1.9,1.1a.26.26,0,0,0-.14.2" transform="translate(-2.12 -3.81)"/><path class="fd4b1358-28a2-45fb-8edb-e981fa6aa48e" d="M63.76,50.53v.23h.18l1.87,1.08a.78.78,0,0,0,.7,0l1.88-1.1h.16v-.21h0a.27.27,0,0,0-.15-.19l-1.91-1.1a.76.76,0,0,0-.69,0l-1.9,1.1a.24.24,0,0,0-.14.2" transform="translate(-2.12 -3.81)"/><path class="fd4b1358-28a2-45fb-8edb-e981fa6aa48e" d="M32.27,65.36v.22h.19l1.87,1.08a.76.76,0,0,0,.69,0l1.88-1.09h.17v-.21h0c0-.07-.05-.13-.14-.19L35,64.05a.76.76,0,0,0-.69,0l-1.9,1.1a.25.25,0,0,0-.15.21" transform="translate(-2.12 -3.81)"/><path class="fd4b1358-28a2-45fb-8edb-e981fa6aa48e" d="M35.25,63.62v.23h.19l1.87,1.08a.76.76,0,0,0,.69,0l1.88-1.09H40v-.22h0c0-.07,0-.13-.14-.19L38,62.32a.78.78,0,0,0-.7,0l-1.9,1.1a.26.26,0,0,0-.14.2" transform="translate(-2.12 -3.81)"/><path class="fd4b1358-28a2-45fb-8edb-e981fa6aa48e" d="M38.23,61.89v.23h.18l1.88,1.08a.76.76,0,0,0,.69,0l1.88-1.09H43v-.22h0a.27.27,0,0,0-.14-.19L41,60.59a.78.78,0,0,0-.7,0l-1.9,1.1a.26.26,0,0,0-.14.2" transform="translate(-2.12 -3.81)"/><path class="fd4b1358-28a2-45fb-8edb-e981fa6aa48e" d="M41.21,60.16v.23h.18l1.88,1.08a.76.76,0,0,0,.69,0l1.88-1.09H46v-.22h0a.26.26,0,0,0-.14-.19l-1.92-1.1a.76.76,0,0,0-.69,0L41.35,60a.24.24,0,0,0-.14.2" transform="translate(-2.12 -3.81)"/><path class="fd4b1358-28a2-45fb-8edb-e981fa6aa48e" d="M44.19,58.43v.23h.18l1.87,1.08a.78.78,0,0,0,.7,0l1.88-1.1H49v-.21h0a.27.27,0,0,0-.15-.19l-1.91-1.1a.76.76,0,0,0-.69,0l-1.9,1.1a.24.24,0,0,0-.14.2" transform="translate(-2.12 -3.81)"/><path class="fd4b1358-28a2-45fb-8edb-e981fa6aa48e" d="M47.16,56.7v.23h.19L49.22,58a.76.76,0,0,0,.69,0l1.88-1.1H52V56.7h0a.23.23,0,0,0-.14-.19L49.9,55.4a.76.76,0,0,0-.69,0l-1.9,1.1c-.1.06-.15.13-.15.2" transform="translate(-2.12 -3.81)"/><path class="fd4b1358-28a2-45fb-8edb-e981fa6aa48e" d="M50.14,55v.22h.19l1.87,1.09a.76.76,0,0,0,.69,0l1.88-1.1h.16V55h0a.23.23,0,0,0-.14-.19l-1.91-1.1a.78.78,0,0,0-.7,0l-1.9,1.1a.26.26,0,0,0-.14.2" transform="translate(-2.12 -3.81)"/><path class="fd4b1358-28a2-45fb-8edb-e981fa6aa48e" d="M53.12,53.24v.22h.18l1.88,1.09a.76.76,0,0,0,.69,0l1.88-1.1h.16v-.21h0a.26.26,0,0,0-.14-.19l-1.91-1.1a.78.78,0,0,0-.7,0L53.26,53a.26.26,0,0,0-.14.2" transform="translate(-2.12 -3.81)"/><path class="fd4b1358-28a2-45fb-8edb-e981fa6aa48e" d="M56.1,51.51v.22h.18l1.88,1.08a.71.71,0,0,0,.69,0l1.88-1.09h.16v-.21h0a.26.26,0,0,0-.14-.19l-1.92-1.1a.73.73,0,0,0-.69,0l-1.9,1.11a.24.24,0,0,0-.14.2" transform="translate(-2.12 -3.81)"/><path class="fd4b1358-28a2-45fb-8edb-e981fa6aa48e" d="M59.08,49.78V50h.18l1.87,1.08a.75.75,0,0,0,.7,0L63.71,50h.16v-.21h0a.27.27,0,0,0-.15-.19l-1.91-1.11a.76.76,0,0,0-.69,0l-1.9,1.11a.23.23,0,0,0-.14.2" transform="translate(-2.12 -3.81)"/><path class="fd4b1358-28a2-45fb-8edb-e981fa6aa48e" d="M62.05,48.05v.22h.19l1.87,1.08a.76.76,0,0,0,.69,0l1.88-1.09h.17v-.21h0a.23.23,0,0,0-.14-.19l-1.91-1.11a.76.76,0,0,0-.69,0l-1.9,1.11a.24.24,0,0,0-.15.2" transform="translate(-2.12 -3.81)"/><path class="fd4b1358-28a2-45fb-8edb-e981fa6aa48e" d="M65,46.55h.19l1.87,1.08a.73.73,0,0,0,.69,0l2.32-1.34h.18V46h0a.24.24,0,0,0-.14-.18l-1.91-1.1a.78.78,0,0,0-.7,0l-2.36,1.37a.24.24,0,0,0-.14.21h0Z" transform="translate(-2.12 -3.81)"/><path class="fd4b1358-28a2-45fb-8edb-e981fa6aa48e" d="M50.3,68.87v.21h.18l1.88,1.09a.79.79,0,0,0,.53.06l.16-.06,1.88-1.1h.16V69l13.23-7.69,1.89-1.09h.16V60h0a.08.08,0,0,0,0,0h0s0,0,0,0a0,0,0,0,1,0,0l0,0s0,0-.06,0h0l-1.91-1.1a.44.44,0,0,0-.16-.06.58.58,0,0,0-.19,0,.63.63,0,0,0-.34.08l-1.9,1.1L50.44,68.66a.24.24,0,0,0-.14.21" transform="translate(-2.12 -3.81)"/><path class="fd4b1358-28a2-45fb-8edb-e981fa6aa48e" d="M28.16,65.89h0v.21l.12,0h0l.52.3a.76.76,0,0,0,.69,0l1.76-1,.28-.07v-.22a.26.26,0,0,0-.14-.19l-.52-.3a.76.76,0,0,0-.69,0l-1.9,1.1a.24.24,0,0,0-.14.2Z" transform="translate(-2.12 -3.81)"/><path class="fd4b1358-28a2-45fb-8edb-e981fa6aa48e" d="M31.13,64.16h0v.21l.13,0h0l.51.3a.78.78,0,0,0,.7,0l1.76-1,.28-.07v-.22a.27.27,0,0,0-.15-.19l-.51-.3a.76.76,0,0,0-.69,0L31.28,64a.24.24,0,0,0-.14.2Z" transform="translate(-2.12 -3.81)"/><path class="fd4b1358-28a2-45fb-8edb-e981fa6aa48e" d="M34.11,62.43h0v.21l.13,0h0l.51.3a.78.78,0,0,0,.7,0l1.75-1,.29-.07v-.22a.27.27,0,0,0-.15-.19l-.51-.3a.78.78,0,0,0-.7,0l-1.9,1.1a.26.26,0,0,0-.14.2Z" transform="translate(-2.12 -3.81)"/><path class="fd4b1358-28a2-45fb-8edb-e981fa6aa48e" d="M37.09,60.7h0v.22l.12,0h0l.51.3a.76.76,0,0,0,.69,0l1.76-1,.28-.07v-.22a.23.23,0,0,0-.14-.19l-.52-.3a.76.76,0,0,0-.69,0l-1.9,1.1a.26.26,0,0,0-.14.2Z" transform="translate(-2.12 -3.81)"/><path class="fd4b1358-28a2-45fb-8edb-e981fa6aa48e" d="M40.07,59h0v.22l.12,0h0l.52.3a.76.76,0,0,0,.69,0l1.76-1,.28-.07v-.23a.26.26,0,0,0-.14-.19l-.52-.29a.76.76,0,0,0-.69,0l-1.9,1.1a.26.26,0,0,0-.14.2Z" transform="translate(-2.12 -3.81)"/><path class="fd4b1358-28a2-45fb-8edb-e981fa6aa48e" d="M43.05,57.24h0v.21l.12,0h0l.52.3a.76.76,0,0,0,.69,0l1.76-1,.28-.07v-.23a.27.27,0,0,0-.14-.19l-.52-.29a.73.73,0,0,0-.69,0L43.19,57a.22.22,0,0,0-.14.2Z" transform="translate(-2.12 -3.81)"/><path class="fd4b1358-28a2-45fb-8edb-e981fa6aa48e" d="M46,55.51h0v.21l.13,0h0l.51.3a.78.78,0,0,0,.7,0l1.76-1,.28-.07v-.23a.26.26,0,0,0-.15-.19l-.51-.29a.73.73,0,0,0-.69,0l-1.9,1.1a.25.25,0,0,0-.15.19h0Z" transform="translate(-2.12 -3.81)"/><path class="fd4b1358-28a2-45fb-8edb-e981fa6aa48e" d="M49,53.78h0V54l.13,0,0,0,.51.3a.78.78,0,0,0,.7,0l1.75-1,.29-.07V53a.29.29,0,0,0-.15-.19l-.51-.29a.75.75,0,0,0-.7,0l-1.9,1.11a.23.23,0,0,0-.14.19Z" transform="translate(-2.12 -3.81)"/><path class="fd4b1358-28a2-45fb-8edb-e981fa6aa48e" d="M52,52.05h0v.21l.12,0,0,0,.51.3a.76.76,0,0,0,.69,0l1.76-1,.28-.07v-.23a.23.23,0,0,0-.14-.19l-.52-.29a.73.73,0,0,0-.69,0l-1.9,1.11A.23.23,0,0,0,52,52Z" transform="translate(-2.12 -3.81)"/><path class="fd4b1358-28a2-45fb-8edb-e981fa6aa48e" d="M55,50.31h0v.21l.12,0,0,0,.52.3a.76.76,0,0,0,.69,0l1.76-1,.28-.06V49.5a.23.23,0,0,0-.14-.19l-.52-.3A.76.76,0,0,0,57,49l-1.9,1.11a.23.23,0,0,0-.14.19Z" transform="translate(-2.12 -3.81)"/><path class="fd4b1358-28a2-45fb-8edb-e981fa6aa48e" d="M57.94,48.58h0v.21l.12,0,0,0,.52.3a.76.76,0,0,0,.69,0l1.76-1,.28-.06v-.23a.26.26,0,0,0-.14-.19l-.52-.3a.76.76,0,0,0-.69,0l-1.9,1.11a.22.22,0,0,0-.14.19Z" transform="translate(-2.12 -3.81)"/><path class="fd4b1358-28a2-45fb-8edb-e981fa6aa48e" d="M60.91,46.85h0v.21L61,47l0,0,.51.29a.75.75,0,0,0,.7,0l1.76-1,.28-.06V46a.27.27,0,0,0-.15-.19l-.51-.3a.76.76,0,0,0-.69,0l-1.9,1.11a.25.25,0,0,0-.15.19Z" transform="translate(-2.12 -3.81)"/><path class="fd4b1358-28a2-45fb-8edb-e981fa6aa48e" d="M63.89,45.12h0v.21l.13,0,0,0,.51.29a.73.73,0,0,0,.7,0l1.75-1,.29-.06v-.23a.27.27,0,0,0-.15-.19l-.51-.3a.78.78,0,0,0-.7,0L64,44.93a.23.23,0,0,0-.14.19Z" transform="translate(-2.12 -3.81)"/><path class="fd4b1358-28a2-45fb-8edb-e981fa6aa48e" d="M29.34,70.77l.13,0h0l1.91,1.1a.78.78,0,0,0,.7,0l3.53-2,.19,0v-.2h0a.23.23,0,0,0-.14-.19l-1.92-1.1a.76.76,0,0,0-.69,0l-3.58,2.08a.23.23,0,0,0-.14.2Z" transform="translate(-2.12 -3.81)"/><path class="fd4b1358-28a2-45fb-8edb-e981fa6aa48e" d="M32.35,72.52l.13,0h0l1.91,1.1a.73.73,0,0,0,.69,0l5-2.89.26-.06v-.21h0a.25.25,0,0,0-.15-.19l-1.91-1.11a.76.76,0,0,0-.69,0L32.5,72.1c-.1.06-.15.13-.15.2h0Z" transform="translate(-2.12 -3.81)"/><path class="fd4b1358-28a2-45fb-8edb-e981fa6aa48e" d="M35.39,74.28l.13,0h0l1.91,1.11a.76.76,0,0,0,.69,0l5-2.88.25-.06v-.21h0a.25.25,0,0,0-.14-.2l-1.91-1.1a.73.73,0,0,0-.69,0l-5.08,2.94a.26.26,0,0,0-.14.21Z" transform="translate(-2.12 -3.81)"/><path class="fd4b1358-28a2-45fb-8edb-e981fa6aa48e" d="M66.75,49l.14,0h0l1.91,1.11a.78.78,0,0,0,.7,0L73.1,48l.2,0v-.2h0a.27.27,0,0,0-.14-.19l-1.92-1.1a.76.76,0,0,0-.69,0L66.9,48.61c-.1.06-.15.13-.15.2Z" transform="translate(-2.12 -3.81)"/><path class="fd4b1358-28a2-45fb-8edb-e981fa6aa48e" d="M68.43,51.62l1.91,1.11a.76.76,0,0,0,.69,0l5.15-3c.19-.12.19-.29,0-.41l-1.91-1.1a.76.76,0,0,0-.69,0l-5.14,3c-.2.11-.2.29,0,.4" transform="translate(-2.12 -3.81)"/><path class="fd4b1358-28a2-45fb-8edb-e981fa6aa48e" d="M74.51,54.79h0V55l.12,0h0l.51.3a.76.76,0,0,0,.69,0l1.76-1,.28-.07V54a.26.26,0,0,0-.14-.19l-.52-.29a.76.76,0,0,0-.69,0l-1.9,1.1a.26.26,0,0,0-.14.2Z" transform="translate(-2.12 -3.81)"/><path class="fd4b1358-28a2-45fb-8edb-e981fa6aa48e" d="M75.91,55.59h0v.21l.12,0,0,0,.52.3a.76.76,0,0,0,.69,0l1.76-1L79.3,55v-.23a.26.26,0,0,0-.14-.19l-.52-.3a.76.76,0,0,0-.69,0l-1.9,1.11a.23.23,0,0,0-.14.19Z" transform="translate(-2.12 -3.81)"/><path class="fd4b1358-28a2-45fb-8edb-e981fa6aa48e" d="M24.72,67.9h0v.23l.14,0h0l.52.3a.76.76,0,0,0,.69,0l2.19-1.27.31-.09v-.24h0a.27.27,0,0,0-.14-.18l-.52-.3a.76.76,0,0,0-.69,0l-2.36,1.37c-.1.06-.15.13-.14.21" transform="translate(-2.12 -3.81)"/><path class="fd4b1358-28a2-45fb-8edb-e981fa6aa48e" d="M31,68.8l-1.92-1.11a.76.76,0,0,0-.69,0l-1.9,1.11a.21.21,0,0,0,0,.4l1.92,1.1a.76.76,0,0,0,.69,0L31,69.2a.21.21,0,0,0,0-.4" transform="translate(-2.12 -3.81)"/><path class="fd4b1358-28a2-45fb-8edb-e981fa6aa48e" d="M33.94,67.07,32,66a.76.76,0,0,0-.69,0l-1.9,1.11a.21.21,0,0,0,0,.4l1.91,1.1a.78.78,0,0,0,.7,0l1.9-1.1c.19-.11.19-.29,0-.4" transform="translate(-2.12 -3.81)"/><path class="fd4b1358-28a2-45fb-8edb-e981fa6aa48e" d="M36.92,65.34,35,64.23a.76.76,0,0,0-.69,0l-1.9,1.11a.21.21,0,0,0,0,.4l1.91,1.1a.76.76,0,0,0,.69,0l1.91-1.1c.19-.11.18-.29,0-.4" transform="translate(-2.12 -3.81)"/><path class="fd4b1358-28a2-45fb-8edb-e981fa6aa48e" d="M39.9,63.61,38,62.5a.78.78,0,0,0-.7,0L35.4,63.61c-.2.11-.2.29,0,.4l1.91,1.1a.76.76,0,0,0,.69,0L39.9,64a.21.21,0,0,0,0-.4" transform="translate(-2.12 -3.81)"/><path class="fd4b1358-28a2-45fb-8edb-e981fa6aa48e" d="M42.88,61.87,41,60.77a.78.78,0,0,0-.7,0l-1.9,1.11a.21.21,0,0,0,0,.4l1.92,1.1a.76.76,0,0,0,.69,0l1.9-1.1c.19-.11.19-.29,0-.41" transform="translate(-2.12 -3.81)"/><path class="fd4b1358-28a2-45fb-8edb-e981fa6aa48e" d="M45.86,60.14,43.94,59a.76.76,0,0,0-.69,0l-1.9,1.1a.22.22,0,0,0,0,.41l1.92,1.1a.76.76,0,0,0,.69,0l1.9-1.1c.19-.11.19-.29,0-.41" transform="translate(-2.12 -3.81)"/><path class="fd4b1358-28a2-45fb-8edb-e981fa6aa48e" d="M48.83,58.41l-1.91-1.1a.76.76,0,0,0-.69,0l-1.9,1.1c-.19.12-.19.29,0,.4l1.91,1.11a.78.78,0,0,0,.7,0l1.9-1.1c.19-.12.19-.3,0-.41" transform="translate(-2.12 -3.81)"/><path class="fd4b1358-28a2-45fb-8edb-e981fa6aa48e" d="M51.81,56.68l-1.91-1.1a.76.76,0,0,0-.69,0l-1.9,1.1c-.19.12-.19.29,0,.4l1.91,1.11a.76.76,0,0,0,.69,0l1.9-1.1c.2-.12.19-.29,0-.41" transform="translate(-2.12 -3.81)"/><path class="fd4b1358-28a2-45fb-8edb-e981fa6aa48e" d="M54.79,55l-1.91-1.1a.78.78,0,0,0-.7,0L50.29,55c-.2.11-.2.29,0,.4l1.91,1.11a.76.76,0,0,0,.69,0l1.9-1.11a.21.21,0,0,0,0-.4" transform="translate(-2.12 -3.81)"/><path class="fd4b1358-28a2-45fb-8edb-e981fa6aa48e" d="M57.77,53.22l-1.92-1.1a.76.76,0,0,0-.69,0l-1.9,1.1c-.19.11-.19.29,0,.4l1.91,1.11a.76.76,0,0,0,.69,0l1.9-1.11a.21.21,0,0,0,0-.4" transform="translate(-2.12 -3.81)"/><path class="fd4b1358-28a2-45fb-8edb-e981fa6aa48e" d="M60.74,51.49l-1.91-1.1a.76.76,0,0,0-.69,0l-1.9,1.1a.21.21,0,0,0,0,.4L58.16,53a.76.76,0,0,0,.69,0l1.9-1.11c.19-.11.19-.29,0-.4" transform="translate(-2.12 -3.81)"/><path class="fd4b1358-28a2-45fb-8edb-e981fa6aa48e" d="M41.6,66.09,39.69,65A.76.76,0,0,0,39,65l-1.9,1.11a.21.21,0,0,0,0,.4L39,67.59a.71.71,0,0,0,.69,0l1.91-1.1c.19-.11.18-.29,0-.4" transform="translate(-2.12 -3.81)"/><path class="fd4b1358-28a2-45fb-8edb-e981fa6aa48e" d="M44.58,64.36l-1.91-1.11a.76.76,0,0,0-.69,0l-1.91,1.11a.21.21,0,0,0,0,.4L42,65.86a.71.71,0,0,0,.69,0l1.9-1.1a.21.21,0,0,0,0-.4" transform="translate(-2.12 -3.81)"/><path class="fd4b1358-28a2-45fb-8edb-e981fa6aa48e" d="M47.56,62.63l-1.91-1.11a.78.78,0,0,0-.7,0l-1.9,1.11c-.19.11-.19.29,0,.4L45,64.13a.76.76,0,0,0,.69,0l1.9-1.1a.21.21,0,0,0,0-.4" transform="translate(-2.12 -3.81)"/><path class="fd4b1358-28a2-45fb-8edb-e981fa6aa48e" d="M50.54,60.9l-1.92-1.11a.76.76,0,0,0-.69,0L46,60.9a.21.21,0,0,0,0,.4L48,62.4a.76.76,0,0,0,.69,0l1.9-1.1a.21.21,0,0,0,0-.4" transform="translate(-2.12 -3.81)"/><path class="fd4b1358-28a2-45fb-8edb-e981fa6aa48e" d="M53.51,59.17,51.6,58.06a.76.76,0,0,0-.69,0L49,59.17a.21.21,0,0,0,0,.4l1.91,1.1a.78.78,0,0,0,.7,0l1.9-1.1c.19-.11.19-.29,0-.4" transform="translate(-2.12 -3.81)"/><path class="fd4b1358-28a2-45fb-8edb-e981fa6aa48e" d="M56.49,57.44l-1.91-1.11a.76.76,0,0,0-.69,0L52,57.44a.21.21,0,0,0,0,.4l1.91,1.1a.76.76,0,0,0,.69,0l1.9-1.1c.2-.11.19-.29,0-.4" transform="translate(-2.12 -3.81)"/><path class="fd4b1358-28a2-45fb-8edb-e981fa6aa48e" d="M59.47,55.71,57.56,54.6a.78.78,0,0,0-.7,0L55,55.71c-.2.11-.2.29,0,.4l1.91,1.1a.76.76,0,0,0,.69,0l1.9-1.1a.21.21,0,0,0,0-.4" transform="translate(-2.12 -3.81)"/><path class="fd4b1358-28a2-45fb-8edb-e981fa6aa48e" d="M62.45,54l-1.92-1.11a.76.76,0,0,0-.69,0L57.94,54c-.19.11-.19.28,0,.4l1.91,1.1a.76.76,0,0,0,.69,0l1.9-1.1a.21.21,0,0,0,0-.4" transform="translate(-2.12 -3.81)"/><path class="fd4b1358-28a2-45fb-8edb-e981fa6aa48e" d="M65.42,52.24l-1.91-1.1a.76.76,0,0,0-.69,0l-1.9,1.1a.22.22,0,0,0,0,.41l1.92,1.1a.76.76,0,0,0,.69,0l1.9-1.1c.19-.11.19-.29,0-.41" transform="translate(-2.12 -3.81)"/><path class="fd4b1358-28a2-45fb-8edb-e981fa6aa48e" d="M68.4,50.51l-1.91-1.1a.76.76,0,0,0-.69,0l-1.9,1.1c-.19.12-.19.29,0,.4L65.81,52a.78.78,0,0,0,.7,0l1.9-1.1c.19-.12.18-.29,0-.41" transform="translate(-2.12 -3.81)"/><path class="fd4b1358-28a2-45fb-8edb-e981fa6aa48e" d="M63.72,49.76l-1.91-1.1a.76.76,0,0,0-.69,0l-1.9,1.1a.21.21,0,0,0,0,.4l1.91,1.11a.78.78,0,0,0,.7,0l1.9-1.11c.19-.11.18-.29,0-.4" transform="translate(-2.12 -3.81)"/><path class="fd4b1358-28a2-45fb-8edb-e981fa6aa48e" d="M66.7,48l-1.91-1.1a.76.76,0,0,0-.69,0L62.2,48a.21.21,0,0,0,0,.4l1.91,1.11a.76.76,0,0,0,.69,0l1.9-1.11a.21.21,0,0,0,0-.4" transform="translate(-2.12 -3.81)"/><path class="fd4b1358-28a2-45fb-8edb-e981fa6aa48e" d="M43,75.77l-1.92-1.11a.76.76,0,0,0-.69,0l-1.9,1.11a.21.21,0,0,0,0,.4l1.91,1.1a.78.78,0,0,0,.7,0l1.9-1.1a.21.21,0,0,0,0-.4" transform="translate(-2.12 -3.81)"/><path class="fd4b1358-28a2-45fb-8edb-e981fa6aa48e" d="M46,74l-1.91-1.1a.76.76,0,0,0-.69,0L41.51,74a.21.21,0,0,0,0,.4l1.91,1.1a.78.78,0,0,0,.7,0l1.9-1.1c.19-.11.19-.29,0-.41" transform="translate(-2.12 -3.81)"/><path class="fd4b1358-28a2-45fb-8edb-e981fa6aa48e" d="M49,72.3l-1.91-1.1a.76.76,0,0,0-.69,0l-1.9,1.1c-.19.12-.19.3,0,.41l1.91,1.1a.76.76,0,0,0,.69,0l1.9-1.1c.19-.11.19-.29,0-.41" transform="translate(-2.12 -3.81)"/><path class="fd4b1358-28a2-45fb-8edb-e981fa6aa48e" d="M52,70.57l-1.91-1.1a.78.78,0,0,0-.7,0l-1.9,1.1c-.19.11-.18.29,0,.41l1.91,1.1a.76.76,0,0,0,.69,0L52,71c.19-.12.19-.3,0-.41" transform="translate(-2.12 -3.81)"/><path class="fd4b1358-28a2-45fb-8edb-e981fa6aa48e" d="M38.62,67.82l-1.91-1.1a.73.73,0,0,0-.69,0l-1.9,1.1a.21.21,0,0,0,0,.4L36,69.33a.78.78,0,0,0,.7,0l1.9-1.11c.19-.11.19-.29,0-.4" transform="translate(-2.12 -3.81)"/><path class="fd4b1358-28a2-45fb-8edb-e981fa6aa48e" d="M70.14,46l-1.91-1.1a.78.78,0,0,0-.7,0L65.18,46.3c-.2.11-.2.29,0,.4l1.91,1.11a.76.76,0,0,0,.69,0l2.36-1.38a.21.21,0,0,0,0-.4" transform="translate(-2.12 -3.81)"/><path class="fd4b1358-28a2-45fb-8edb-e981fa6aa48e" d="M70.22,60l-1.91-1.1a.76.76,0,0,0-.69,0l-17.18,10a.21.21,0,0,0,0,.4l1.92,1.11a.76.76,0,0,0,.69,0l17.18-10c.19-.11.19-.29,0-.41" transform="translate(-2.12 -3.81)"/><path class="fd4b1358-28a2-45fb-8edb-e981fa6aa48e" d="M31.41,65.07l-.52-.3a.76.76,0,0,0-.69,0l-1.9,1.11a.21.21,0,0,0,0,.4l.52.29a.73.73,0,0,0,.69,0l1.9-1.1a.21.21,0,0,0,0-.4" transform="translate(-2.12 -3.81)"/><path class="fd4b1358-28a2-45fb-8edb-e981fa6aa48e" d="M34.38,63.34l-.51-.3a.76.76,0,0,0-.69,0l-1.9,1.1c-.19.12-.19.3,0,.41l.51.29a.78.78,0,0,0,.7,0l1.9-1.1c.19-.11.19-.29,0-.4" transform="translate(-2.12 -3.81)"/><path class="fd4b1358-28a2-45fb-8edb-e981fa6aa48e" d="M37.36,61.61l-.51-.3a.78.78,0,0,0-.7,0l-1.9,1.1a.22.22,0,0,0,0,.41l.51.29a.78.78,0,0,0,.7,0l1.9-1.1c.19-.11.18-.29,0-.4" transform="translate(-2.12 -3.81)"/><path class="fd4b1358-28a2-45fb-8edb-e981fa6aa48e" d="M40.34,59.88l-.51-.3a.78.78,0,0,0-.7,0l-1.9,1.1c-.19.11-.19.29,0,.41l.52.29a.76.76,0,0,0,.69,0l1.9-1.1a.21.21,0,0,0,0-.4" transform="translate(-2.12 -3.81)"/><path class="fd4b1358-28a2-45fb-8edb-e981fa6aa48e" d="M43.32,58.15l-.52-.3a.76.76,0,0,0-.69,0L40.21,59a.21.21,0,0,0,0,.4l.52.3a.76.76,0,0,0,.69,0l1.9-1.1a.21.21,0,0,0,0-.4" transform="translate(-2.12 -3.81)"/><path class="fd4b1358-28a2-45fb-8edb-e981fa6aa48e" d="M46.3,56.42l-.52-.3a.76.76,0,0,0-.69,0l-1.9,1.1a.21.21,0,0,0,0,.4l.52.3a.76.76,0,0,0,.69,0l1.9-1.1a.21.21,0,0,0,0-.4" transform="translate(-2.12 -3.81)"/><path class="fd4b1358-28a2-45fb-8edb-e981fa6aa48e" d="M49.27,54.69l-.51-.3a.76.76,0,0,0-.69,0l-1.9,1.1a.21.21,0,0,0,0,.4l.51.3a.78.78,0,0,0,.7,0l1.9-1.1c.19-.11.19-.29,0-.4" transform="translate(-2.12 -3.81)"/><path class="fd4b1358-28a2-45fb-8edb-e981fa6aa48e" d="M52.25,53l-.51-.29a.78.78,0,0,0-.7,0l-1.9,1.1c-.19.11-.19.29,0,.4l.51.3a.76.76,0,0,0,.69,0l1.91-1.1c.19-.11.18-.29,0-.41" transform="translate(-2.12 -3.81)"/><path class="fd4b1358-28a2-45fb-8edb-e981fa6aa48e" d="M55.23,51.22l-.51-.29a.78.78,0,0,0-.7,0L52.12,52a.21.21,0,0,0,0,.4l.52.3a.76.76,0,0,0,.69,0l1.9-1.1c.19-.11.19-.29,0-.41" transform="translate(-2.12 -3.81)"/><path class="fd4b1358-28a2-45fb-8edb-e981fa6aa48e" d="M58.21,49.49l-.52-.29a.71.71,0,0,0-.69,0l-1.9,1.1a.21.21,0,0,0,0,.4l.52.3a.76.76,0,0,0,.69,0l1.9-1.1c.19-.12.19-.3,0-.41" transform="translate(-2.12 -3.81)"/><path class="fd4b1358-28a2-45fb-8edb-e981fa6aa48e" d="M61.19,47.76l-.52-.29a.73.73,0,0,0-.69,0l-1.9,1.11a.21.21,0,0,0,0,.4l.52.3a.76.76,0,0,0,.69,0l1.9-1.11a.21.21,0,0,0,0-.4" transform="translate(-2.12 -3.81)"/><path class="fd4b1358-28a2-45fb-8edb-e981fa6aa48e" d="M64.16,46l-.51-.3a.76.76,0,0,0-.69,0l-1.91,1.11a.21.21,0,0,0,0,.4l.51.3a.78.78,0,0,0,.7,0l1.9-1.11c.19-.11.19-.29,0-.4" transform="translate(-2.12 -3.81)"/><path class="fd4b1358-28a2-45fb-8edb-e981fa6aa48e" d="M67.14,44.3l-.51-.3a.78.78,0,0,0-.7,0L64,45.11c-.19.11-.19.29,0,.4l.51.3a.76.76,0,0,0,.69,0l1.9-1.11c.2-.11.19-.29,0-.4" transform="translate(-2.12 -3.81)"/><path class="fd4b1358-28a2-45fb-8edb-e981fa6aa48e" d="M28.43,66.8l-.52-.3a.76.76,0,0,0-.69,0l-2.36,1.37c-.19.11-.19.29,0,.41l.52.29a.76.76,0,0,0,.69,0l2.36-1.37a.21.21,0,0,0,0-.4" transform="translate(-2.12 -3.81)"/><path class="fd4b1358-28a2-45fb-8edb-e981fa6aa48e" d="M35.67,69.56l-1.92-1.1a.76.76,0,0,0-.69,0l-3.58,2.08a.21.21,0,0,0,0,.4l1.91,1.11a.78.78,0,0,0,.7,0L35.67,70a.21.21,0,0,0,0-.4" transform="translate(-2.12 -3.81)"/><path class="fd4b1358-28a2-45fb-8edb-e981fa6aa48e" d="M40.17,70.44l-1.91-1.11a.76.76,0,0,0-.69,0l-5.08,3a.21.21,0,0,0,0,.4l1.91,1.11a.76.76,0,0,0,.69,0l5.07-3a.21.21,0,0,0,0-.4" transform="translate(-2.12 -3.81)"/><path class="fd4b1358-28a2-45fb-8edb-e981fa6aa48e" d="M43.21,72.19l-1.91-1.1a.78.78,0,0,0-.7,0l-5.07,3a.21.21,0,0,0,0,.4l1.92,1.1a.76.76,0,0,0,.69,0l5.07-3a.21.21,0,0,0,0-.4" transform="translate(-2.12 -3.81)"/><path class="fd4b1358-28a2-45fb-8edb-e981fa6aa48e" d="M73.16,47.77l-1.92-1.1a.76.76,0,0,0-.69,0L66.9,48.79c-.19.12-.19.3,0,.41l1.91,1.1a.76.76,0,0,0,.69,0l3.66-2.12a.22.22,0,0,0,0-.41" transform="translate(-2.12 -3.81)"/><path class="fd4b1358-28a2-45fb-8edb-e981fa6aa48e" d="M76.17,49.52l-1.91-1.11a.76.76,0,0,0-.69,0l-5.15,3c-.19.11-.18.29,0,.4l1.91,1.11a.76.76,0,0,0,.69,0l5.15-3c.19-.11.19-.29,0-.4" transform="translate(-2.12 -3.81)"/><path class="fd4b1358-28a2-45fb-8edb-e981fa6aa48e" d="M77.76,54l-.52-.3a.76.76,0,0,0-.69,0l-1.9,1.1c-.19.11-.19.29,0,.4l.51.3a.76.76,0,0,0,.69,0l1.9-1.1a.21.21,0,0,0,0-.4" transform="translate(-2.12 -3.81)"/><path class="fd4b1358-28a2-45fb-8edb-e981fa6aa48e" d="M79.16,54.77l-.52-.29a.73.73,0,0,0-.69,0l-1.9,1.1a.21.21,0,0,0,0,.4l.52.3a.76.76,0,0,0,.69,0l1.9-1.11a.21.21,0,0,0,0-.4" transform="translate(-2.12 -3.81)"/><path class="fd4b1358-28a2-45fb-8edb-e981fa6aa48e" d="M67,54.86l-1.91-1.1a.76.76,0,0,0-.69,0l-1.9,1.1a.21.21,0,0,0,0,.4l1.91,1.11a.78.78,0,0,0,.7,0L67,55.26c.19-.11.19-.28,0-.4" transform="translate(-2.12 -3.81)"/><path class="fd4b1358-28a2-45fb-8edb-e981fa6aa48e" d="M70,53.13,68,52a.76.76,0,0,0-.69,0l-1.9,1.1a.21.21,0,0,0,0,.4l1.91,1.11a.76.76,0,0,0,.69,0L70,53.53a.21.21,0,0,0,0-.4" transform="translate(-2.12 -3.81)"/><path class="fd4b1358-28a2-45fb-8edb-e981fa6aa48e" d="M70,56.62,68.1,55.51a.76.76,0,0,0-.69,0l-1.9,1.11a.21.21,0,0,0,0,.4l1.91,1.1a.76.76,0,0,0,.69,0L70,57a.21.21,0,0,0,0-.4" transform="translate(-2.12 -3.81)"/><path class="fd4b1358-28a2-45fb-8edb-e981fa6aa48e" d="M73,54.89l-1.91-1.11a.78.78,0,0,0-.7,0l-1.9,1.11c-.19.11-.18.29,0,.4l1.91,1.1a.76.76,0,0,0,.69,0l1.9-1.1a.21.21,0,0,0,0-.4" transform="translate(-2.12 -3.81)"/><path class="fd4b1358-28a2-45fb-8edb-e981fa6aa48e" d="M76,53.16l-1.92-1.11a.76.76,0,0,0-.69,0l-1.9,1.11a.21.21,0,0,0,0,.4l1.92,1.1a.76.76,0,0,0,.69,0l1.9-1.1a.21.21,0,0,0,0-.4" transform="translate(-2.12 -3.81)"/><path class="fd4b1358-28a2-45fb-8edb-e981fa6aa48e" d="M79.21,51.27l-1.91-1.1a.76.76,0,0,0-.69,0l-2.17,1.25c-.19.12-.19.3,0,.41l1.92,1.1a.76.76,0,0,0,.69,0l2.16-1.26a.21.21,0,0,0,0-.4" transform="translate(-2.12 -3.81)"/><path class="fd4b1358-28a2-45fb-8edb-e981fa6aa48e" d="M61,58.33l-1.91-1.11a.78.78,0,0,0-.7,0l-1.9,1.1c-.19.12-.19.29,0,.41l1.91,1.1a.76.76,0,0,0,.69,0l1.9-1.1c.19-.12.19-.29,0-.4" transform="translate(-2.12 -3.81)"/><path class="fd4b1358-28a2-45fb-8edb-e981fa6aa48e" d="M64,56.59l-1.92-1.1a.76.76,0,0,0-.69,0l-1.9,1.1c-.19.11-.19.29,0,.41l1.92,1.1a.76.76,0,0,0,.69,0L64,57a.22.22,0,0,0,0-.41" transform="translate(-2.12 -3.81)"/><path class="fd4b1358-28a2-45fb-8edb-e981fa6aa48e" d="M64.06,60.08,62.14,59a.76.76,0,0,0-.69,0l-1.9,1.11a.21.21,0,0,0,0,.4l1.92,1.1a.76.76,0,0,0,.69,0l1.9-1.1a.21.21,0,0,0,0-.4" transform="translate(-2.12 -3.81)"/><path class="fd4b1358-28a2-45fb-8edb-e981fa6aa48e" d="M67,58.35l-1.91-1.11a.76.76,0,0,0-.69,0l-1.9,1.11a.21.21,0,0,0,0,.4l1.91,1.1a.78.78,0,0,0,.7,0l1.9-1.1c.19-.11.18-.29,0-.4" transform="translate(-2.12 -3.81)"/><path class="fd4b1358-28a2-45fb-8edb-e981fa6aa48e" d="M55.06,61.79l-1.91-1.11a.76.76,0,0,0-.69,0l-1.9,1.11a.21.21,0,0,0,0,.4l1.91,1.1a.76.76,0,0,0,.69,0l1.9-1.1a.21.21,0,0,0,0-.4" transform="translate(-2.12 -3.81)"/><path class="fd4b1358-28a2-45fb-8edb-e981fa6aa48e" d="M58,60.05,56.13,59a.78.78,0,0,0-.7,0l-1.9,1.1a.22.22,0,0,0,0,.41l1.91,1.1a.76.76,0,0,0,.69,0l1.9-1.1c.19-.11.19-.29,0-.41" transform="translate(-2.12 -3.81)"/><path class="fd4b1358-28a2-45fb-8edb-e981fa6aa48e" d="M58.1,63.54l-1.91-1.11a.75.75,0,0,0-.7,0l-1.9,1.1c-.19.11-.18.29,0,.4L55.51,65a.71.71,0,0,0,.69,0l1.9-1.1a.21.21,0,0,0,0-.4" transform="translate(-2.12 -3.81)"/><path class="fd4b1358-28a2-45fb-8edb-e981fa6aa48e" d="M61.08,61.81,59.17,60.7a.78.78,0,0,0-.7,0l-1.9,1.11a.21.21,0,0,0,0,.4l1.92,1.1a.73.73,0,0,0,.69,0l1.9-1.1a.21.21,0,0,0,0-.4" transform="translate(-2.12 -3.81)"/><path class="fd4b1358-28a2-45fb-8edb-e981fa6aa48e" d="M49.11,65.25l-1.92-1.11a.76.76,0,0,0-.69,0l-1.9,1.11a.21.21,0,0,0,0,.4l1.92,1.1a.76.76,0,0,0,.69,0l1.9-1.1a.21.21,0,0,0,0-.4" transform="translate(-2.12 -3.81)"/><path class="fd4b1358-28a2-45fb-8edb-e981fa6aa48e" d="M52.08,63.52l-1.91-1.11a.76.76,0,0,0-.69,0l-1.9,1.11a.21.21,0,0,0,0,.4L49.49,65a.78.78,0,0,0,.7,0l1.9-1.1c.19-.11.19-.29,0-.4" transform="translate(-2.12 -3.81)"/><path class="fd4b1358-28a2-45fb-8edb-e981fa6aa48e" d="M52.14,67l-1.91-1.1a.76.76,0,0,0-.69,0L47.64,67a.21.21,0,0,0,0,.4l1.91,1.11a.78.78,0,0,0,.7,0l1.9-1.11c.19-.11.19-.29,0-.4" transform="translate(-2.12 -3.81)"/><path class="fd4b1358-28a2-45fb-8edb-e981fa6aa48e" d="M55.12,65.27l-1.91-1.1a.71.71,0,0,0-.69,0l-1.9,1.1c-.2.11-.19.29,0,.4l1.91,1.11a.76.76,0,0,0,.69,0l1.9-1.11a.21.21,0,0,0,0-.4" transform="translate(-2.12 -3.81)"/><path class="fd4b1358-28a2-45fb-8edb-e981fa6aa48e" d="M43.15,68.71,41.24,67.6a.78.78,0,0,0-.7,0l-1.9,1.11c-.19.11-.18.29,0,.4l1.91,1.1a.76.76,0,0,0,.69,0l1.9-1.1a.21.21,0,0,0,0-.4" transform="translate(-2.12 -3.81)"/><path class="fd4b1358-28a2-45fb-8edb-e981fa6aa48e" d="M46.13,67l-1.91-1.11a.78.78,0,0,0-.7,0L41.62,67c-.19.11-.19.29,0,.4l1.91,1.1a.76.76,0,0,0,.69,0l1.9-1.1a.21.21,0,0,0,0-.4" transform="translate(-2.12 -3.81)"/><path class="fd4b1358-28a2-45fb-8edb-e981fa6aa48e" d="M46.19,70.46l-1.91-1.1a.78.78,0,0,0-.7,0l-1.9,1.1a.21.21,0,0,0,0,.4L43.6,72a.76.76,0,0,0,.69,0l1.9-1.11a.21.21,0,0,0,0-.4" transform="translate(-2.12 -3.81)"/><path class="fd4b1358-28a2-45fb-8edb-e981fa6aa48e" d="M49.17,68.73l-1.92-1.1a.76.76,0,0,0-.69,0l-1.9,1.1a.21.21,0,0,0,0,.4l1.92,1.11a.76.76,0,0,0,.69,0l1.9-1.11a.21.21,0,0,0,0-.4" transform="translate(-2.12 -3.81)"/><path class="fd4b1358-28a2-45fb-8edb-e981fa6aa48e" d="M73.2,58.23l-1.91-1.1a.76.76,0,0,0-.69,0l-1.9,1.1c-.19.12-.19.3,0,.41l1.91,1.1a.78.78,0,0,0,.7,0l1.89-1.1c.2-.11.19-.29,0-.41" transform="translate(-2.12 -3.81)"/><path class="fd4b1358-28a2-45fb-8edb-e981fa6aa48e" d="M76.18,56.5l-1.91-1.1a.78.78,0,0,0-.7,0l-1.89,1.1c-.2.12-.19.29,0,.41L73.59,58a.76.76,0,0,0,.69,0l1.9-1.1a.22.22,0,0,0,0-.41" transform="translate(-2.12 -3.81)"/><path class="fd4b1358-28a2-45fb-8edb-e981fa6aa48e" d="M82.21,53,80.3,51.9a.78.78,0,0,0-.7,0L77.7,53c-.19.11-.19.29,0,.4l1.91,1.11a.76.76,0,0,0,.69,0l1.9-1.11a.21.21,0,0,0,0-.4" transform="translate(-2.12 -3.81)"/><path class="ad6974ac-4ab1-4c34-acbf-c4b64b776984" d="M65.39,73.8l-6.12-3.54a.69.69,0,0,1,0-1.2l9.91-5.73a2,2,0,0,1,2,0l6.13,3.54a.69.69,0,0,1,0,1.2L67.38,73.8a2,2,0,0,1-2,0" transform="translate(-2.12 -3.81)"/><path class="b5cdc8c0-4726-47a8-99e7-14946533d725" d="M59.27,69.53l9.91-5.73a2,2,0,0,1,2,0l6.13,3.54a.68.68,0,0,1,.3.37.69.69,0,0,0-.3-.84l-6.13-3.54a2,2,0,0,0-2,0l-9.91,5.73a.68.68,0,0,0-.3.83.65.65,0,0,1,.3-.36" transform="translate(-2.12 -3.81)"/><path class="ad6d4f2c-319c-4e52-8cdc-ef63330aff7f" d="M25.81,57.83,52.62,42.35A8,8,0,0,0,56,35.93V17.35c0-2.48-1.51-3.61-3.37-2.54L25.81,30.29a8,8,0,0,0-3.36,6.42V55.29c0,2.47,1.5,3.61,3.36,2.54" transform="translate(-2.12 -3.81)"/><path class="ad6d4f2c-319c-4e52-8cdc-ef63330aff7f" d="M25.81,57.83,52.62,42.35A8,8,0,0,0,56,35.93V17.35c0-2.48-1.51-3.61-3.37-2.54L25.81,30.29a8,8,0,0,0-3.36,6.42V55.29c0,2.47,1.5,3.61,3.36,2.54" transform="translate(-2.12 -3.81)"/><path class="fa0c6d20-5426-4b9a-a930-9e918ad9725b" d="M24.47,58.47a1.87,1.87,0,0,1-1-.26,3.22,3.22,0,0,1-1.28-2.92V36.71a8.32,8.32,0,0,1,3.48-6.63L52.5,14.6a2.41,2.41,0,0,1,2.44-.18,3.22,3.22,0,0,1,1.29,2.93V35.93a8.35,8.35,0,0,1-3.49,6.63L25.93,58a2.93,2.93,0,0,1-1.46.43M54,14.65a2.44,2.44,0,0,0-1.22.37L25.93,30.5a7.78,7.78,0,0,0-3.24,6.21V55.29a2.78,2.78,0,0,0,1,2.51,1.94,1.94,0,0,0,2-.18L52.5,42.14a7.79,7.79,0,0,0,3.25-6.21V17.35a2.76,2.76,0,0,0-1-2.51,1.43,1.43,0,0,0-.74-.19" transform="translate(-2.12 -3.81)"/><path class="ad6d4f2c-319c-4e52-8cdc-ef63330aff7f" d="M24.36,58.44l7.53,4.34L63,19.34,55.3,14.91a2.3,2.3,0,0,0-1.47-.32,1.38,1.38,0,0,0-.61.2C48.81,17.81,29.67,32,28.6,35s-6.4,18.57-5.8,21.35v0a3.21,3.21,0,0,0,1.55,2" transform="translate(-2.12 -3.81)"/><path class="a01140c8-5cdb-40af-9842-2c12f620a703" d="M34,62.54,60.78,47.06a8.07,8.07,0,0,0,3.36-6.43V22.06c0-2.48-1.51-3.62-3.36-2.54L34,35a8,8,0,0,0-3.37,6.42V60c0,2.47,1.51,3.61,3.37,2.54" transform="translate(-2.12 -3.81)"/><path class="fa0c6d20-5426-4b9a-a930-9e918ad9725b" d="M32.63,63.18a1.94,1.94,0,0,1-1-.26A3.2,3.2,0,0,1,30.36,60V41.42a8.33,8.33,0,0,1,3.49-6.63L60.66,19.31a2.39,2.39,0,0,1,2.44-.18,3.24,3.24,0,0,1,1.28,2.93V40.63a8.34,8.34,0,0,1-3.48,6.64L34.09,62.75a3,3,0,0,1-1.46.43M62.11,19.35a2.51,2.51,0,0,0-1.21.37L34.09,35.2a7.81,7.81,0,0,0-3.25,6.22V60a2.77,2.77,0,0,0,1.05,2.51,2,2,0,0,0,2-.18L60.66,46.85a7.79,7.79,0,0,0,3.24-6.22V22.06a2.77,2.77,0,0,0-1-2.51,1.5,1.5,0,0,0-.75-.2" transform="translate(-2.12 -3.81)"/><path class="b7b8cb5b-d3f7-45e5-b967-04e3de3bb4f6" d="M33.11,62.37c-.79,0-1.07-1.07-1.07-2V41.81a7.09,7.09,0,0,1,2.89-5.59L61.74,20.74a1.77,1.77,0,0,1,.85-.28c.79,0,1.07,1.07,1.07,2V41a7.15,7.15,0,0,1-2.88,5.6L34,62.1A1.81,1.81,0,0,1,33.11,62.37Z" transform="translate(-2.12 -3.81)"/><g class="bae39d49-eca1-474d-823e-6efb4ffdf16e"><g class="bc1b6d97-6072-4dcf-853d-db29ec4ac5b9"><path class="a82e8b26-20de-45e5-b440-803c97a75e9a" d="M36.13,39.11A11.61,11.61,0,0,0,33.47,46c-.12,4,0,13.89,0,14.62s-.34,2.73,1.64,1.59,5.13-2.88,5.13-2.88Z" transform="translate(-2.12 -3.81)"/></g></g><path class="ad6d4f2c-319c-4e52-8cdc-ef63330aff7f" d="M37.41,59.38l19.93-11.5a4.91,4.91,0,0,0,2-3.9V28.18c0-1.5-.92-2.19-2-1.54L37.41,38.15a4.86,4.86,0,0,0-2,3.89v15.8c0,1.5.91,2.19,2,1.54" transform="translate(-2.12 -3.81)"/><path class="fa0c6d20-5426-4b9a-a930-9e918ad9725b" d="M36.59,59.87A1.3,1.3,0,0,1,36,59.7a2,2,0,0,1-.82-1.86V42a5.13,5.13,0,0,1,2.16-4.1L57.22,26.43a1.52,1.52,0,0,1,1.57-.11,2,2,0,0,1,.83,1.86V44a5.15,5.15,0,0,1-2.16,4.1L37.53,59.59a1.85,1.85,0,0,1-.94.28M58.15,26.63a1.32,1.32,0,0,0-.69.22L37.53,38.35A4.63,4.63,0,0,0,35.61,42v15.8a1.59,1.59,0,0,0,.58,1.44,1.06,1.06,0,0,0,1.1-.1L57.22,47.67A4.63,4.63,0,0,0,59.14,44V28.18a1.6,1.6,0,0,0-.59-1.44.8.8,0,0,0-.4-.11" transform="translate(-2.12 -3.81)"/><path class="ad6d4f2c-319c-4e52-8cdc-ef63330aff7f" d="M36,59.43l3,1.75L61.66,28.27l-2.75-1.6a.72.72,0,0,0-.59-.07,5.08,5.08,0,0,0-1,.45C52.06,30,35.71,49.5,35.71,58.07c0,1.2.27,1.36.27,1.36" transform="translate(-2.12 -3.81)"/><path class="fcab9adc-d1e0-4060-bb9b-96e87d721ff8" d="M40.28,61.05,60.22,49.54a4.91,4.91,0,0,0,2-3.9V29.84c0-1.5-.92-2.19-2-1.54L40.28,39.81a4.9,4.9,0,0,0-2,3.9V59.5c0,1.51.92,2.2,2,1.55" transform="translate(-2.12 -3.81)"/><path class="fa0c6d20-5426-4b9a-a930-9e918ad9725b" d="M39.47,61.53a1.3,1.3,0,0,1-.64-.17A2,2,0,0,1,38,59.5V43.71a5.17,5.17,0,0,1,2.16-4.11L60.09,28.09A1.57,1.57,0,0,1,61.67,28a2,2,0,0,1,.83,1.86v15.8a5.15,5.15,0,0,1-2.17,4.11L40.4,61.25a1.81,1.81,0,0,1-.93.28M61,28.29a1.46,1.46,0,0,0-.69.22L40.4,40a4.65,4.65,0,0,0-1.92,3.7V59.5a1.6,1.6,0,0,0,.59,1.44,1,1,0,0,0,1.09-.1L60.09,49.33A4.64,4.64,0,0,0,62,45.64V29.84a1.6,1.6,0,0,0-.59-1.44.81.81,0,0,0-.41-.11" transform="translate(-2.12 -3.81)"/><path class="b7b8cb5b-d3f7-45e5-b967-04e3de3bb4f6" d="M39.84,60.57c-.11,0-.27-.29-.27-.83V44a4,4,0,0,1,1.56-3.07L61.06,29.37a.79.79,0,0,1,.33-.12c.11,0,.27.3.27.83v15.8A4,4,0,0,1,60.1,49L40.17,60.45a.66.66,0,0,1-.33.12" transform="translate(-2.12 -3.81)"/><polygon class="be70e75a-e9e1-47ff-9551-85b72cf0004c" points="47.22 48.6 50.97 46.43 50.97 34.32 47.22 36.49 47.22 48.6"/><polygon class="be70e75a-e9e1-47ff-9551-85b72cf0004c" points="43.82 42.35 43.82 46.66 54.37 40.56 54.37 36.26 43.82 42.35"/><path class="a82e8b26-20de-45e5-b440-803c97a75e9a" d="M57.56,16.22c-.86-.58-2.63.58-2.63.58L28.69,32a8.3,8.3,0,0,0-3.36,6.42V44.3l2,1.18V39.55a8.33,8.33,0,0,1,3.37-6.43L57,18s1.77-1.15,2.63-.57Z" transform="translate(-2.12 -3.81)"/><path class="e49333c0-8f31-43f3-b26c-28619daa75ad" d="M25.81,43.49V38.37a7.85,7.85,0,0,1,3.14-6L55.19,17.21h0a6.36,6.36,0,0,1,2.18-.83,1.45,1.45,0,0,1,.48,0l0,0,1,.57c-.63-.28-2,.51-2.15.58L30.47,32.72h0a8.7,8.7,0,0,0-3.58,6.82v4.56Z" transform="translate(-2.12 -3.81)"/><polygon class="e7daf9c2-2e75-4b74-9195-e6b74b449450" points="25.14 39.08 23.27 38 24.31 37.36 25.14 38.04 25.14 39.08"/><polygon class="e7daf9c2-2e75-4b74-9195-e6b74b449450" points="24.87 40.61 24.54 40.8 23.53 39.19 24.87 39.97 24.87 40.61"/><polygon class="e7daf9c2-2e75-4b74-9195-e6b74b449450" points="24.87 39.97 23.53 39.19 23.27 38 25.14 39.08 24.87 39.97"/><polygon class="e7daf9c2-2e75-4b74-9195-e6b74b449450" points="25.14 38.04 23.35 36.72 23.69 36.53 24.72 37.12 25.14 38.04"/><polygon class="fc393cb5-2854-4891-856c-5bcb328d367b" points="24.8 39.28 22.93 38.2 22.93 37.16 24.8 38.24 24.8 39.28"/><polygon class="fc393cb5-2854-4891-856c-5bcb328d367b" points="24.54 40.8 23.19 40.03 23.19 39.39 24.54 40.16 24.54 40.8"/><polygon class="fc393cb5-2854-4891-856c-5bcb328d367b" points="24.54 40.16 23.19 39.39 22.93 38.2 24.8 39.28 24.54 40.16"/><polygon class="fc393cb5-2854-4891-856c-5bcb328d367b" points="24.8 38.24 22.93 37.16 23.35 36.72 24.38 37.32 24.8 38.24"/><path class="e7daf9c2-2e75-4b74-9195-e6b74b449450" d="M25.76,42.62c-.39-.22-.72,2.68-.61,3.51a1.76,1.76,0,0,0,.77,1.22s.67.38.77-.33-.55-4.17-.93-4.4" transform="translate(-2.12 -3.81)"/><path class="fc393cb5-2854-4891-856c-5bcb328d367b" d="M25.51,42.77c-.39-.22-.88,2.67-.77,3.49a1.73,1.73,0,0,0,.77,1.22s.67.38.77-.33-.38-4.16-.77-4.38" transform="translate(-2.12 -3.81)"/><path class="e7daf9c2-2e75-4b74-9195-e6b74b449450" d="M25.25,43.79c0,.29.09.52.21.52s.21-.23.21-.52-.1-.52-.21-.52-.21.23-.21.52" transform="translate(-2.12 -3.81)"/><path class="a82e8b26-20de-45e5-b440-803c97a75e9a" d="M25.45,44a.8.8,0,0,1-.41-.63,3,3,0,0,1,.63-1.76h.19l.24.13V42a2.33,2.33,0,0,0-.43.17,4.39,4.39,0,0,0-.28,1.45.49.49,0,0,0,.25.41Z" transform="translate(-2.12 -3.81)"/><path class="a082c771-c8eb-4e2a-a32d-4e40ef111a05" d="M25.21,43.84a.51.51,0,0,1-.26-.4,5.73,5.73,0,0,1,.32-1.61c.11-.08.4-.24.4-.24l.24.13a3.91,3.91,0,0,0-.4.25,5.65,5.65,0,0,0-.32,1.6.51.51,0,0,0,.26.41Z" transform="translate(-2.12 -3.81)"/></g></g></svg>