<svg width="32" height="32" viewBox="0 0 100 100" fill="none" xmlns="http://www.w3.org/2000/svg">
  <defs>
    <linearGradient id="bg" x1="0%" y1="0%" x2="100%" y2="100%">
      <stop offset="0%" stop-color="#0f355b"/>
      <stop offset="100%" stop-color="#14b6cb"/>
    </linearGradient>
  </defs>
  <rect width="100" height="100" rx="20" fill="url(#bg)"/>
  <!-- Brain outline -->
  <path d="M50 18 C33 18, 15 31, 15 50 C15 69, 33 82, 50 82" stroke="#fff" stroke-width="4" fill="none" stroke-linecap="round"/>
  <path d="M50 18 C67 18, 85 31, 85 50 C85 69, 67 82, 50 82" stroke="#fff" stroke-width="4" fill="none" stroke-linecap="round"/>
  <!-- Neural nodes -->
  <circle cx="50" cy="50" r="6" fill="#22d3ee"/>
  <circle cx="30" cy="38" r="4" fill="#fff" opacity="0.9"/>
  <circle cx="70" cy="38" r="4" fill="#fff" opacity="0.9"/>
  <circle cx="26" cy="56" r="3.5" fill="#22d3ee" opacity="0.8"/>
  <circle cx="74" cy="56" r="3.5" fill="#22d3ee" opacity="0.8"/>
  <!-- Connections -->
  <line x1="30" y1="38" x2="50" y2="50" stroke="#fff" stroke-width="2" opacity="0.5"/>
  <line x1="70" y1="38" x2="50" y2="50" stroke="#fff" stroke-width="2" opacity="0.5"/>
  <line x1="26" y1="56" x2="50" y2="50" stroke="#22d3ee" stroke-width="1.5" opacity="0.4"/>
  <line x1="74" y1="56" x2="50" y2="50" stroke="#22d3ee" stroke-width="1.5" opacity="0.4"/>
</svg>
