<svg width="32" height="32" viewBox="0 0 100 100" fill="none" xmlns="http://www.w3.org/2000/svg">
  <defs>
    <linearGradient id="bg" x1="0%" y1="0%" x2="100%" y2="100%">
      <stop offset="0%" stop-color="#0f355b"/>
      <stop offset="100%" stop-color="#14b6cb"/>
    </linearGradient>
  </defs>
  <rect width="100" height="100" rx="18" fill="url(#bg)"/>
  <!-- Chip -->
  <rect x="26" y="26" width="48" height="48" rx="10" stroke="#fff" stroke-width="3" fill="none" opacity="0.9"/>
  <!-- Pines -->
  <line x1="38" y1="14" x2="38" y2="26" stroke="#fff" stroke-width="3" stroke-linecap="round" opacity="0.7"/>
  <line x1="50" y1="14" x2="50" y2="26" stroke="#fff" stroke-width="3" stroke-linecap="round" opacity="0.7"/>
  <line x1="62" y1="14" x2="62" y2="26" stroke="#fff" stroke-width="3" stroke-linecap="round" opacity="0.7"/>
  <line x1="38" y1="74" x2="38" y2="86" stroke="#fff" stroke-width="3" stroke-linecap="round" opacity="0.7"/>
  <line x1="50" y1="74" x2="50" y2="86" stroke="#fff" stroke-width="3" stroke-linecap="round" opacity="0.7"/>
  <line x1="62" y1="74" x2="62" y2="86" stroke="#fff" stroke-width="3" stroke-linecap="round" opacity="0.7"/>
  <line x1="14" y1="38" x2="26" y2="38" stroke="#fff" stroke-width="3" stroke-linecap="round" opacity="0.7"/>
  <line x1="14" y1="50" x2="26" y2="50" stroke="#fff" stroke-width="3" stroke-linecap="round" opacity="0.7"/>
  <line x1="14" y1="62" x2="26" y2="62" stroke="#fff" stroke-width="3" stroke-linecap="round" opacity="0.7"/>
  <line x1="74" y1="38" x2="86" y2="38" stroke="#fff" stroke-width="3" stroke-linecap="round" opacity="0.7"/>
  <line x1="74" y1="50" x2="86" y2="50" stroke="#fff" stroke-width="3" stroke-linecap="round" opacity="0.7"/>
  <line x1="74" y1="62" x2="86" y2="62" stroke="#fff" stroke-width="3" stroke-linecap="round" opacity="0.7"/>
  <!-- Core -->
  <circle cx="50" cy="50" r="8" fill="#22d3ee"/>
  <circle cx="50" cy="50" r="4" fill="#fff"/>
</svg>
